<?xml version="1.0" standalone="no"?>
<!DOCTYPE svg PUBLIC "-//W3C//DTD SVG 20010904//EN"
 "http://www.w3.org/TR/2001/REC-SVG-20010904/DTD/svg10.dtd">
<svg version="1.0" xmlns="http://www.w3.org/2000/svg"
 width="2214.000000pt" height="669.000000pt" viewBox="0 0 2214.000000 669.000000"
 preserveAspectRatio="xMidYMid meet">

<g transform="translate(0.000000,669.000000) scale(0.100000,-0.100000)"
fill="#33E6FF" stroke="none">
<path d="M10 2136 l0 -1323 127 -22 c382 -64 802 -74 1036 -26 342 71 570 268
665 575 53 172 73 479 43 665 -72 445 -343 681 -838 726 -197 17 -403 -3 -570
-56 -43 -14 -81 -25 -85 -25 -5 0 -8 182 -8 405 l0 405 -185 0 -185 0 0 -1324z
m1114 269 c141 -39 265 -133 324 -243 69 -129 97 -333 72 -528 -39 -312 -183
-500 -440 -574 -142 -41 -438 -38 -632 6 l-68 16 2 626 3 627 97 33 c54 18
137 39 185 47 116 19 374 13 457 -10z"/>
<path d="M9560 3054 l0 -406 -22 5 c-13 3 -73 19 -134 36 -159 43 -327 57
-503 43 -464 -39 -724 -233 -828 -618 -26 -94 -27 -110 -27 -344 -1 -221 1
-255 22 -349 57 -255 166 -429 340 -542 182 -119 398 -158 774 -140 283 14
475 41 671 93 l77 20 0 1304 0 1304 -185 0 -185 0 0 -406z m-302 -639 c85 -14
260 -64 290 -83 10 -7 12 -137 10 -618 l-3 -609 -53 -17 c-151 -51 -469 -73
-622 -44 -254 48 -405 217 -461 516 -19 99 -16 360 4 444 59 237 225 385 472
419 74 10 278 6 363 -8z"/>
<path d="M17162 2098 l3 -1363 185 0 185 0 3 433 c1 237 5 432 7 432 3 0 142
-116 308 -258 166 -142 395 -338 510 -435 l207 -177 237 0 236 0 -21 23 c-11
12 -288 258 -615 547 -327 289 -592 528 -588 531 3 3 49 23 101 44 228 91 461
223 660 373 111 84 350 309 350 329 0 11 -242 153 -259 153 -6 0 -34 -25 -63
-56 -223 -237 -606 -466 -987 -590 -40 -13 -75 -24 -77 -24 -2 0 -4 315 -4
700 l0 700 -190 0 -190 0 2 -1362z"/>
<path d="M2320 1735 l0 -1005 185 0 185 0 0 729 0 729 66 61 c75 68 210 140
314 166 36 10 103 20 150 23 l85 7 3 143 c2 117 0 143 -12 148 -22 9 -192 -14
-276 -37 -99 -27 -219 -87 -309 -154 -40 -31 -75 -55 -76 -53 -2 3 -14 48 -55
206 l-11 42 -124 0 -125 0 0 -1005z"/>
<path d="M4317 2729 c-196 -22 -378 -88 -504 -183 -232 -175 -344 -511 -312
-933 22 -287 97 -473 254 -629 68 -68 99 -90 186 -133 168 -83 312 -111 567
-111 300 0 510 58 681 186 209 157 321 438 321 807 0 562 -235 885 -713 978
-118 23 -355 32 -480 18z m428 -313 c97 -31 161 -70 227 -139 123 -128 185
-378 159 -645 -31 -333 -163 -517 -421 -588 -90 -25 -319 -25 -410 -1 -218 58
-352 204 -407 442 -26 114 -26 419 1 520 61 235 211 385 431 430 112 23 319
14 420 -19z"/>
<path d="M6478 2730 c-117 -11 -255 -34 -380 -63 l-93 -23 -3 -142 c-2 -99 1
-142 9 -142 6 0 45 9 88 20 139 35 323 61 487 67 255 10 429 -21 537 -96 92
-63 117 -125 117 -294 l0 -120 -48 7 c-225 30 -613 36 -772 11 -390 -59 -589
-260 -590 -597 -1 -311 160 -516 460 -587 281 -67 636 -41 898 64 l85 35 36
-29 c20 -16 54 -48 76 -70 l39 -41 93 0 93 0 0 738 c0 628 -2 747 -15 797 -62
242 -254 389 -581 445 -133 23 -396 33 -536 20z m607 -1060 c50 -5 105 -12
123 -15 l32 -6 0 -239 0 -240 -92 -44 c-105 -51 -212 -81 -343 -96 -393 -45
-596 64 -599 320 -1 89 19 152 67 206 59 67 154 108 297 128 52 7 412 -3 515
-14z"/>
<path d="M11040 2730 c-163 -11 -270 -23 -452 -51 l-138 -21 0 -1324 0 -1324
185 0 185 0 0 405 c0 337 2 405 14 405 7 0 33 -7 57 -16 270 -96 659 -91 917
12 112 45 183 93 272 183 140 141 212 307 246 565 19 144 14 366 -11 496 -72
366 -314 590 -709 656 -114 18 -389 25 -566 14z m535 -319 c105 -34 178 -77
238 -140 104 -109 147 -230 154 -436 17 -431 -128 -686 -437 -771 -94 -26
-354 -26 -465 0 -88 20 -213 62 -232 78 -10 8 -13 146 -13 629 l0 619 23 9
c12 5 63 14 112 20 50 6 101 13 115 15 14 2 117 3 230 2 181 -2 213 -5 275
-25z"/>
<path d="M13535 2734 c-179 -18 -341 -60 -445 -115 -275 -146 -410 -398 -427
-799 -16 -371 90 -683 288 -852 216 -184 509 -252 984 -228 196 9 316 21 417
40 28 6 52 10 54 10 2 0 4 65 4 143 l0 144 -102 -18 c-222 -37 -466 -48 -644
-28 -134 15 -235 42 -332 90 -178 87 -272 230 -297 452 l-6 57 714 0 715 0 13
88 c19 121 16 388 -4 478 -67 295 -242 461 -547 520 -75 15 -311 26 -385 18z
m260 -299 c32 -9 78 -24 102 -35 59 -26 138 -103 168 -164 31 -63 55 -171 55
-248 l0 -58 -544 0 -545 0 6 38 c40 281 166 421 428 476 55 11 275 5 330 -9z"/>
<path d="M15507 2730 c-128 -12 -279 -38 -382 -63 l-90 -23 -3 -142 c-1 -86 1
-142 7 -142 5 0 55 11 111 24 188 46 311 60 530 60 166 1 220 -3 285 -18 140
-32 225 -85 271 -168 27 -50 29 -61 32 -187 l4 -134 -49 7 c-228 30 -614 36
-776 11 -111 -17 -257 -62 -324 -102 -124 -72 -219 -203 -248 -340 -19 -88
-19 -229 0 -318 46 -218 202 -367 445 -424 281 -67 642 -41 898 65 l84 35 56
-50 c31 -27 66 -58 76 -70 17 -19 30 -21 113 -21 l93 0 0 733 c0 596 -3 743
-14 792 -61 256 -254 402 -611 460 -111 18 -390 27 -508 15z m608 -1060 c50
-5 105 -12 123 -15 l32 -6 -2 -237 -3 -237 -54 -32 c-112 -67 -282 -110 -476
-119 -247 -13 -401 42 -465 166 -27 52 -43 147 -36 208 19 164 135 254 366
286 52 7 412 -3 515 -14z"/>
</g>
</svg>
