<?xml version="1.0" standalone="no"?>
<!DOCTYPE svg PUBLIC "-//W3C//DTD SVG 20010904//EN"
 "http://www.w3.org/TR/2001/REC-SVG-20010904/DTD/svg10.dtd">
<svg version="1.0" xmlns="http://www.w3.org/2000/svg"
 width="795.000000pt" height="245.000000pt" viewBox="0 0 795.000000 245.000000"
 preserveAspectRatio="xMidYMid meet">

<g transform="translate(0.000000,245.000000) scale(0.100000,-0.100000)"
fill="#33E6FF" stroke="none">
<path d="M3799 2164 c24 -21 103 -84 176 -139 432 -325 954 -548 1497 -639
242 -41 357 -49 671 -44 l292 4 44 29 45 30 -75 5 -74 5 35 22 c19 13 38 23
43 23 4 0 7 4 7 9 0 4 -36 11 -80 15 -74 6 -84 4 -132 -20 -29 -15 -48 -28
-43 -30 6 -1 23 -5 40 -9 l30 -7 -25 -13 c-27 -15 -74 -18 -103 -6 -17 6 -16
9 10 21 l28 13 -45 10 c-76 15 -78 18 -27 40 26 11 47 24 47 27 0 4 -27 11
-60 18 -52 9 -67 8 -120 -10 -33 -11 -60 -21 -60 -24 0 -2 19 -8 43 -15 l42
-12 -41 -17 c-34 -15 -49 -16 -88 -7 -25 6 -46 14 -46 19 0 4 4 8 9 8 5 0 22
5 38 11 27 11 26 12 -42 34 l-70 22 58 18 c31 10 54 22 50 26 -5 3 -30 14 -57
22 -44 15 -54 15 -112 1 -67 -17 -74 -28 -24 -39 42 -9 37 -20 -13 -34 -36
-11 -48 -10 -87 7 l-45 19 45 15 44 14 -64 30 -65 31 40 12 c22 7 47 15 55 18
22 7 -89 62 -125 62 -16 0 -48 -6 -70 -13 l-40 -13 37 -18 c20 -10 35 -21 33
-25 -3 -4 -24 -10 -47 -14 -31 -5 -51 -2 -75 11 -18 10 -33 20 -33 24 0 3 19
10 42 15 l43 9 -53 34 c-29 18 -51 36 -48 38 2 3 26 10 53 17 l48 12 -48 28
c-47 28 -48 28 -141 17 -350 -41 -757 23 -1094 173 -87 38 -133 63 -277 146
l-40 23 44 -39z m1355 -369 c24 -18 19 -24 -21 -27 -30 -2 -63 15 -63 33 0 14
63 10 84 -6z m-245 -24 c11 -7 9 -10 -9 -16 -15 -5 -28 -2 -38 9 -15 15 -14
16 8 16 14 0 31 -4 39 -9z m214 -85 c24 -18 22 -23 -13 -31 -34 -7 -99 23 -77
37 19 12 70 9 90 -6z m237 -131 c26 -14 27 -13 -25 -30 -9 -2 -31 3 -51 12
-30 15 -32 18 -17 24 29 12 66 9 93 -6z m249 -92 l23 -6 -23 -12 c-27 -15 -92
1 -67 16 16 10 35 11 67 2z"/>
<path d="M3637 2069 c-48 -67 -187 -207 -271 -275 -243 -195 -518 -316 -856
-374 l-105 -19 120 5 c508 21 1013 148 1440 362 l90 45 -25 16 c-33 21 -285
212 -330 250 l-35 29 -28 -39z"/>
<path d="M5526 1891 c-17 -6 -15 -9 12 -20 17 -7 40 -10 53 -6 l22 7 -24 14
c-27 15 -36 16 -63 5z"/>
<path d="M7505 1868 c-27 -14 -65 -50 -65 -59 0 -17 61 15 81 42 22 31 17 36
-16 17z"/>
<path d="M5450 1825 l-45 -11 55 -31 c52 -30 58 -31 103 -21 26 6 47 15 47 20
0 4 -2 8 -4 8 -2 0 -28 11 -57 23 -48 21 -59 22 -99 12z"/>
<path d="M7251 1788 c-31 -8 -125 -77 -117 -85 2 -2 24 2 50 9 30 8 59 26 83
50 39 40 38 42 -16 26z"/>
<path d="M5770 1783 c-43 -8 -42 -19 1 -32 33 -10 52 -10 93 0 l51 12 -35 13
c-36 13 -66 15 -110 7z"/>
<path d="M6959 1720 c-25 -7 -109 -59 -109 -67 0 -15 102 14 138 40 23 17 42
32 42 34 0 5 -44 2 -71 -7z"/>
<path d="M5713 1707 c-24 -5 -43 -13 -43 -16 0 -4 26 -17 59 -28 56 -20 62
-21 120 -6 34 9 59 18 56 21 -9 9 -118 42 -135 41 -8 -1 -34 -6 -57 -12z"/>
<path d="M6030 1706 l-45 -13 48 -10 c39 -9 58 -7 103 7 40 12 51 19 39 23
-25 10 -94 7 -145 -7z"/>
<path d="M6695 1691 c-27 -4 -70 -18 -95 -31 l-45 -25 45 -3 c35 -2 57 4 93
23 26 15 49 31 52 36 4 5 5 8 3 8 -2 -1 -25 -5 -53 -8z"/>
<path d="M6335 1674 c-63 -23 -65 -34 -8 -34 46 0 143 30 143 45 0 11 -96 3
-135 -11z"/>
<path d="M7234 1643 c-12 -2 -36 -20 -55 -40 l-34 -36 34 7 c18 3 39 6 45 6 6
0 24 16 39 35 29 37 27 39 -29 28z"/>
<path d="M6008 1622 c-26 -9 -49 -20 -53 -23 -3 -4 20 -13 52 -21 59 -14 74
-12 173 29 9 4 -4 11 -35 19 -66 16 -81 16 -137 -4z"/>
<path d="M6925 1593 c-18 -5 -105 -62 -105 -70 0 -2 27 -3 60 -3 57 0 63 2
103 40 l42 39 -40 0 c-22 -1 -49 -4 -60 -6z"/>
<path d="M6278 1567 c-27 -11 -48 -24 -48 -28 0 -4 26 -10 57 -14 50 -6 64 -4
115 21 32 15 58 31 58 36 0 17 -135 6 -182 -15z"/>
<path d="M6577 1551 c-80 -46 -80 -51 -1 -51 64 0 73 3 129 40 l60 40 -70 -1
c-57 -1 -79 -6 -118 -28z"/>
<path d="M6949 1483 c-15 -2 -39 -18 -55 -35 -24 -25 -26 -29 -9 -25 11 4 41
11 67 18 26 6 54 20 64 30 16 18 16 19 -12 18 -16 -1 -41 -4 -55 -6z"/>
<path d="M6582 1446 c-18 -13 -36 -26 -39 -30 -4 -3 29 -6 73 -6 73 1 82 3
114 30 l35 29 -75 0 c-62 0 -81 -4 -108 -23z"/>
<path d="M372 743 l3 -428 80 -13 c122 -20 297 -11 362 17 115 50 168 150 167
311 0 108 -21 170 -76 227 -67 69 -219 100 -345 70 l-63 -14 0 128 0 129 -65
0 -65 0 2 -427z m371 85 c88 -27 137 -119 123 -235 -17 -149 -80 -202 -236
-203 -143 0 -130 -21 -130 216 l0 203 48 15 c59 18 142 20 195 4z"/>
<path d="M3470 1039 c0 -121 -1 -131 -17 -124 -44 17 -134 27 -193 22 -94 -8
-157 -33 -206 -83 -54 -53 -74 -117 -74 -234 0 -157 47 -251 148 -298 54 -26
64 -27 202 -26 85 1 168 8 200 16 l55 13 3 423 2 422 -60 0 -60 0 0 -131z
m-32 -219 l32 -12 0 -198 c0 -140 -3 -201 -12 -206 -21 -14 -204 -17 -241 -5
-45 15 -92 68 -106 118 -15 54 -13 178 3 216 17 42 55 75 103 93 43 16 167 13
221 -6z"/>
<path d="M5932 733 l3 -438 62 -3 62 -3 3 139 3 139 162 -139 162 -139 76 3
75 3 -194 170 c-107 94 -195 172 -195 175 -1 3 27 18 62 33 82 36 176 98 245
162 l55 51 -44 26 -44 26 -40 -37 c-75 -69 -210 -147 -302 -175 l-23 -7 0 225
0 226 -65 0 -65 0 2 -437z"/>
<path d="M1120 615 l0 -325 60 0 60 0 0 233 c0 229 0 234 23 255 31 29 106 62
145 62 32 0 32 0 32 51 l0 51 -47 -7 c-48 -7 -136 -46 -148 -65 -12 -20 -23
-9 -30 30 -7 40 -7 40 -51 40 l-44 0 0 -325z"/>
<path d="M1710 924 c-114 -30 -181 -111 -199 -239 -19 -134 14 -255 88 -323
85 -78 288 -96 408 -36 64 32 115 91 133 152 47 163 4 339 -99 408 -78 51
-220 68 -331 38z m230 -103 c92 -46 126 -210 71 -337 -58 -131 -289 -137 -355
-9 -29 55 -30 221 -2 277 42 86 183 119 286 69z"/>
<path d="M2415 930 c-98 -18 -95 -16 -95 -65 0 -50 1 -50 70 -34 62 14 209 14
253 0 50 -17 77 -54 77 -105 l0 -41 -153 0 c-144 0 -155 -1 -202 -26 -57 -29
-90 -72 -100 -129 -16 -94 21 -170 100 -210 44 -22 63 -25 155 -25 76 0 119 5
158 19 53 18 54 18 76 -3 13 -12 36 -21 54 -21 l32 0 0 243 c0 232 -1 245 -22
287 -25 48 -69 83 -127 100 -50 15 -216 21 -276 10z m295 -345 c6 -3 10 -39
10 -79 l0 -74 -37 -17 c-21 -10 -70 -23 -109 -28 -61 -9 -78 -8 -119 7 -60 23
-83 68 -66 128 11 37 29 52 80 69 28 9 225 4 241 -6z"/>
<path d="M3860 929 c-41 -5 -81 -11 -87 -14 -10 -3 -13 -100 -13 -435 l0 -430
60 0 60 0 0 134 0 134 58 -15 c84 -22 206 -13 277 21 99 49 145 129 153 267 9
164 -33 256 -142 309 -60 30 -75 33 -178 36 -62 1 -147 -1 -188 -7z m283 -103
c71 -30 107 -97 107 -200 0 -83 -15 -131 -55 -175 -55 -60 -155 -78 -263 -46
l-52 16 0 204 c0 236 -16 211 138 214 59 1 104 -4 125 -13z"/>
<path d="M4680 924 c-77 -20 -130 -60 -165 -124 -26 -48 -30 -67 -33 -156 -6
-138 12 -199 76 -263 30 -29 67 -55 97 -65 58 -21 241 -32 325 -19 l55 8 3 49
c3 48 3 48 -25 42 -76 -15 -167 -17 -232 -6 -108 18 -167 68 -178 148 l-6 42
231 0 231 0 6 55 c14 105 -15 198 -75 248 -63 54 -196 71 -310 41z m201 -100
c37 -19 56 -49 65 -101 l7 -43 -178 0 -178 0 6 35 c7 41 39 90 70 107 57 30
152 31 208 2z"/>
<path d="M5370 934 c-14 -2 -49 -9 -77 -15 l-53 -10 0 -46 0 -46 38 7 c87 17
191 23 243 16 96 -14 119 -36 119 -112 l0 -44 -123 4 c-231 8 -327 -51 -327
-198 0 -142 102 -210 295 -197 44 3 101 13 127 23 47 18 48 18 71 -4 14 -13
36 -22 55 -22 l32 0 0 226 c0 136 -5 243 -11 271 -15 57 -62 105 -126 127 -47
17 -211 29 -263 20z m218 -340 l52 -7 0 -78 c0 -76 -1 -79 -28 -93 -44 -23
-147 -39 -198 -31 -64 9 -104 49 -104 103 0 48 29 88 73 101 38 11 133 13 205
5z"/>
</g>
</svg>
