<?xml version="1.0" encoding="UTF-8"?>
<!DOCTYPE svg PUBLIC "-//W3C//DTD SVG 1.1//EN" "http://www.w3.org/Graphics/SVG/1.1/DTD/svg11.dtd">
<svg xmlns="http://www.w3.org/2000/svg" version="1.1" width="334px" height="334px" style="shape-rendering:geometricPrecision; text-rendering:geometricPrecision; image-rendering:optimizeQuality; fill-rule:evenodd; clip-rule:evenodd" xmlns:xlink="http://www.w3.org/1999/xlink">
<g><path style="opacity:0.987" fill="#00b2a8" d="M 147.5,-0.5 C 160.167,-0.5 172.833,-0.5 185.5,-0.5C 254.678,10.5089 301.511,48.8423 326,114.5C 329.225,125.474 331.725,136.474 333.5,147.5C 333.5,160.167 333.5,172.833 333.5,185.5C 322.491,254.678 284.158,301.511 218.5,326C 207.526,329.225 196.526,331.725 185.5,333.5C 172.833,333.5 160.167,333.5 147.5,333.5C 78.3222,322.491 31.4889,284.158 7,218.5C 3.77541,207.526 1.27541,196.526 -0.5,185.5C -0.5,172.833 -0.5,160.167 -0.5,147.5C 10.5089,78.3222 48.8423,31.4889 114.5,7C 125.474,3.77541 136.474,1.27541 147.5,-0.5 Z M 218.5,69.5 C 229.53,68.1852 238.197,72.0185 244.5,81C 248.263,81.1344 251.929,80.801 255.5,80C 250.784,85.2677 246.951,91.101 244,97.5C 244,112.833 244,128.167 244,143.5C 240.942,166.549 228.442,181.715 206.5,189C 190.545,190.255 174.545,190.922 158.5,191C 146.786,192.232 136.452,196.566 127.5,204C 109.529,222.972 91.1954,241.638 72.5,260C 70.6313,261.602 68.6313,262.602 66.5,263C 110.641,207.892 155.141,153.058 200,98.5C 199.229,84.1549 205.396,74.4883 218.5,69.5 Z M 173.5,200.5 C 201.167,200.5 228.833,200.5 256.5,200.5C 256.5,204.5 256.5,208.5 256.5,212.5C 228.833,212.5 201.167,212.5 173.5,212.5C 173.5,208.5 173.5,204.5 173.5,200.5 Z"/></g>
<g><path style="opacity:0.852" fill="#00b2a8" d="M 221.5,82.5 C 229.885,81.7159 233.051,85.3826 231,93.5C 227.476,97.0738 223.642,97.4072 219.5,94.5C 216.641,89.9324 217.307,85.9324 221.5,82.5 Z"/></g>
</svg>
