<svg id="svg" version="1.1" xmlns="http://www.w3.org/2000/svg" xmlns:xlink="http://www.w3.org/1999/xlink" width="400" height="247.13715046604526" viewBox="0, 0, 400,247.13715046604526"><g id="svgg"><path id="path0" d="M251.946 60.796 C 252.084 61.193,252.357 61.579,252.551 61.654 C 252.991 61.822,252.991 61.806,252.516 60.854 C 252.027 59.873,251.610 59.831,251.946 60.796 M253.894 63.935 C 253.894 64.071,254.057 64.398,254.257 64.662 C 254.456 64.926,254.620 65.031,254.620 64.895 C 254.620 64.759,254.456 64.432,254.257 64.168 C 254.057 63.904,253.894 63.799,253.894 63.935 M256.127 67.629 C 256.122 67.773,256.282 68.107,256.482 68.371 C 256.681 68.634,256.848 68.733,256.852 68.589 C 256.857 68.445,256.697 68.111,256.497 67.847 C 256.298 67.583,256.131 67.485,256.127 67.629 M258.163 71.429 C 258.343 71.896,258.635 72.326,258.812 72.385 C 259.175 72.506,258.926 71.943,258.232 71.075 C 257.864 70.614,257.859 70.638,258.163 71.429 M139.923 74.104 C 139.494 74.886,139.124 75.765,139.101 76.058 C 139.079 76.351,138.994 76.549,138.912 76.498 C 138.698 76.367,137.460 78.347,135.965 81.211 C 135.255 82.571,134.530 83.850,134.354 84.054 C 133.962 84.509,132.411 87.260,131.742 88.690 C 131.471 89.268,131.155 89.740,131.039 89.740 C 130.683 89.740,128.260 94.973,128.388 95.464 C 128.454 95.716,128.407 95.859,128.283 95.783 C 127.741 95.448,127.981 100.215,128.576 101.577 C 128.836 102.172,129.048 102.767,129.048 102.899 C 129.048 103.118,130.728 106.014,131.024 106.304 C 131.206 106.483,131.710 107.388,132.950 109.765 C 133.553 110.921,134.186 111.979,134.356 112.116 C 134.526 112.253,134.884 112.809,135.151 113.352 C 136.214 115.508,137.758 118.263,138.089 118.594 C 138.281 118.786,138.820 119.705,139.288 120.637 C 139.755 121.568,140.730 123.321,141.453 124.532 C 142.177 125.742,143.103 127.373,143.511 128.156 C 143.918 128.939,144.419 129.772,144.623 130.008 C 145.013 130.458,145.623 131.558,146.990 134.273 C 147.444 135.176,147.979 136.077,148.178 136.276 C 148.513 136.611,150.038 139.322,151.091 141.455 C 151.339 141.956,151.656 142.438,151.797 142.524 C 151.937 142.611,152.449 143.470,152.934 144.433 C 153.419 145.396,154.343 147.029,154.988 148.061 C 155.633 149.094,156.636 150.856,157.218 151.978 C 157.799 153.100,158.374 154.017,158.495 154.017 C 158.616 154.017,158.714 154.140,158.714 154.289 C 158.714 156.179,162.401 160.199,165.513 161.702 L 166.749 162.299 187.203 162.372 C 205.578 162.437,207.642 162.405,207.510 162.062 C 207.424 161.838,207.925 160.730,208.717 159.393 C 210.313 156.700,211.880 153.959,213.487 151.051 C 214.125 149.895,215.337 147.781,216.180 146.354 C 218.060 143.168,219.837 140.058,220.947 138.010 L 221.785 136.465 199.938 136.465 L 178.091 136.465 177.567 135.757 C 177.279 135.368,176.576 134.172,176.005 133.099 C 175.434 132.027,174.328 130.093,173.549 128.801 C 172.769 127.509,171.779 125.785,171.347 124.969 C 170.916 124.153,170.327 123.096,170.038 122.621 C 168.219 119.625,166.214 116.174,165.801 115.328 C 165.535 114.784,164.765 113.449,164.089 112.361 C 163.413 111.273,162.304 109.326,161.625 108.035 C 160.946 106.743,160.254 105.519,160.089 105.315 C 159.636 104.758,157.478 100.976,157.478 100.739 C 157.478 100.626,157.327 100.358,157.142 100.143 C 156.957 99.928,156.447 99.088,156.008 98.276 C 154.741 95.933,154.001 94.656,153.101 93.266 C 152.641 92.553,152.107 91.596,151.916 91.138 C 151.724 90.680,150.728 88.932,149.702 87.254 C 148.676 85.576,147.837 84.117,147.837 84.012 C 147.837 83.825,144.364 77.856,142.974 75.654 C 142.589 75.045,142.059 74.127,141.795 73.614 C 141.147 72.355,140.840 72.436,139.923 74.104 M258.838 72.917 C 258.838 73.046,259.015 73.251,259.231 73.372 C 259.447 73.493,259.606 73.691,259.583 73.811 C 259.561 73.931,259.673 74.073,259.832 74.126 C 260.051 74.199,260.054 74.095,259.842 73.700 C 259.688 73.412,259.448 73.177,259.309 73.177 C 259.170 73.177,259.125 73.066,259.209 72.930 C 259.293 72.794,259.244 72.682,259.100 72.682 C 258.956 72.682,258.838 72.788,258.838 72.917 M260.074 74.494 C 260.074 74.754,260.802 76.143,260.938 76.143 C 260.998 76.143,260.977 75.949,260.891 75.711 C 260.691 75.160,260.074 74.241,260.074 74.494 M262.052 78.368 C 262.052 78.504,262.170 78.616,262.314 78.616 C 262.458 78.616,262.507 78.727,262.423 78.863 C 262.339 78.999,262.394 79.110,262.546 79.110 C 262.698 79.110,262.761 79.210,262.686 79.331 C 262.611 79.453,262.711 79.615,262.909 79.691 C 263.209 79.806,263.201 79.686,262.862 78.975 C 262.473 78.159,262.052 77.844,262.052 78.368 M201.731 79.357 C 201.731 79.493,201.953 79.604,202.225 79.604 C 202.497 79.604,202.719 79.493,202.719 79.357 C 202.719 79.221,202.497 79.110,202.225 79.110 C 201.953 79.110,201.731 79.221,201.731 79.357 M185.289 85.539 C 185.042 85.812,184.899 86.094,184.970 86.165 C 185.041 86.236,185.284 86.013,185.510 85.669 C 186.003 84.917,185.904 84.859,185.289 85.539 M266.442 85.949 C 266.612 86.018,266.696 86.164,266.628 86.275 C 266.560 86.385,266.674 86.540,266.880 86.619 C 267.186 86.736,267.207 86.672,266.993 86.274 C 266.849 86.005,266.597 85.794,266.431 85.804 C 266.207 85.819,266.209 85.855,266.442 85.949 M268.730 89.993 C 268.874 90.262,269.095 90.482,269.222 90.482 C 269.563 90.482,269.241 89.801,268.826 89.641 C 268.539 89.531,268.520 89.601,268.730 89.993 M269.230 90.915 C 269.243 91.174,270.455 92.628,270.456 92.386 C 270.459 91.996,269.698 90.729,269.462 90.729 C 269.330 90.729,269.225 90.813,269.230 90.915 M271.488 95.056 C 271.492 95.328,271.585 95.828,271.693 96.168 L 271.891 96.786 271.899 96.168 C 271.903 95.828,271.810 95.328,271.693 95.056 L 271.481 94.561 271.488 95.056 M185.592 111.007 C 186.029 111.466,186.429 111.791,186.480 111.730 C 186.531 111.669,186.173 111.294,185.685 110.896 L 184.796 110.172 185.592 111.007 M229.048 124.104 C 228.837 124.512,228.720 124.845,228.788 124.845 C 228.856 124.845,229.084 124.512,229.295 124.104 C 229.506 123.696,229.623 123.362,229.555 123.362 C 229.487 123.362,229.259 123.696,229.048 124.104 " stroke="none" fill="#f8c742" fill-rule="evenodd"></path><path id="path1" d="M266.618 109.964 C 266.486 110.059,266.343 110.358,266.300 110.630 C 266.229 111.079,266.260 111.071,266.634 110.553 C 267.056 109.967,267.048 109.656,266.618 109.964 M253.028 133.687 C 252.892 133.787,252.743 134.091,252.696 134.363 C 252.598 134.930,252.715 134.846,253.127 134.054 C 253.436 133.461,253.420 133.400,253.028 133.687 M246.744 144.586 C 246.341 145.340,246.424 145.550,246.873 144.909 C 247.091 144.598,247.211 144.286,247.140 144.215 C 247.070 144.144,246.891 144.311,246.744 144.586 M244.664 148.002 C 244.364 148.302,244.493 148.565,244.870 148.421 C 245.074 148.342,245.241 148.179,245.241 148.058 C 245.241 147.798,244.900 147.765,244.664 148.002 M241.069 154.420 C 240.654 155.331,240.854 155.386,241.374 154.504 C 241.613 154.100,241.708 153.770,241.586 153.770 C 241.465 153.770,241.232 154.063,241.069 154.420 M238.188 158.727 C 237.953 159.107,238.274 159.352,238.592 159.035 C 238.769 158.857,238.774 158.719,238.605 158.615 C 238.466 158.529,238.279 158.580,238.188 158.727 M234.858 161.187 C 234.662 161.308,234.583 161.489,234.684 161.589 C 234.784 161.690,234.996 161.642,235.155 161.483 C 235.528 161.110,235.320 160.901,234.858 161.187 M208.493 162.345 C 208.733 162.586,210.630 162.669,210.630 162.439 C 210.630 162.338,210.110 162.236,209.473 162.212 C 208.836 162.188,208.395 162.248,208.493 162.345 M211.210 162.456 C 211.538 162.646,211.744 162.644,211.940 162.448 C 212.139 162.249,212.015 162.178,211.483 162.183 C 210.844 162.190,210.810 162.223,211.210 162.456 M213.683 162.456 C 214.010 162.646,214.216 162.644,214.412 162.448 C 214.611 162.249,214.487 162.178,213.956 162.183 C 213.316 162.190,213.283 162.223,213.683 162.456 M216.687 162.423 C 216.771 162.559,216.994 162.670,217.182 162.670 C 217.370 162.670,217.592 162.559,217.676 162.423 C 217.763 162.282,217.550 162.176,217.182 162.176 C 216.813 162.176,216.600 162.282,216.687 162.423 M219.210 162.448 C 219.405 162.644,219.612 162.646,219.939 162.456 C 220.339 162.223,220.306 162.190,219.666 162.183 C 219.134 162.178,219.011 162.249,219.210 162.448 M44.623 186.021 C 39.930 187.227,34.611 192.527,34.611 195.999 C 34.611 196.273,34.472 196.544,34.302 196.600 C 33.895 196.736,33.875 201.904,34.278 202.743 C 34.435 203.070,34.927 204.272,35.371 205.413 C 36.424 208.118,38.769 210.704,41.262 211.908 C 42.159 212.341,42.948 212.766,43.016 212.851 C 44.093 214.208,53.117 214.248,54.136 212.902 C 54.207 212.808,54.804 212.478,55.462 212.167 C 59.464 210.282,61.645 206.186,61.504 200.824 L 61.434 198.146 55.253 198.076 C 47.384 197.988,48.012 197.803,47.986 200.218 C 47.961 202.606,47.633 202.464,53.188 202.469 L 57.302 202.472 57.079 203.467 C 56.752 204.921,55.476 207.169,54.977 207.169 C 54.822 207.169,54.543 207.354,54.357 207.580 C 53.915 208.114,51.703 209.142,50.989 209.145 C 50.683 209.146,50.433 209.258,50.433 209.394 C 50.433 209.537,49.650 209.642,48.578 209.642 C 47.559 209.642,46.724 209.543,46.724 209.422 C 46.724 209.301,46.312 209.125,45.809 209.030 C 39.120 207.775,36.432 198.058,41.370 192.977 C 45.025 189.215,50.448 188.762,54.435 191.887 L 55.347 192.602 56.722 191.249 C 58.302 189.694,58.322 189.619,57.437 188.626 C 55.336 186.268,48.819 184.943,44.623 186.021 M122.126 199.876 L 122.126 213.350 124.227 213.350 L 126.329 213.350 126.329 199.876 L 126.329 186.403 124.227 186.403 L 122.126 186.403 122.126 199.876 M162.546 188.047 C 161.121 188.343,159.951 188.712,159.951 188.863 C 159.951 188.957,159.367 189.298,158.653 189.620 C 150.422 193.334,150.272 207.945,158.423 212.034 C 159.187 212.418,159.955 212.863,160.129 213.023 C 161.426 214.219,169.746 214.085,170.581 212.855 C 170.649 212.755,171.261 212.392,171.941 212.049 C 173.322 211.352,175.031 209.853,175.031 209.339 C 175.031 208.771,172.896 206.838,172.520 207.065 C 172.232 207.240,170.208 208.755,169.456 209.360 C 167.810 210.684,162.486 210.687,160.831 209.365 C 160.687 209.249,160.219 208.875,159.791 208.533 C 159.364 208.191,158.919 207.905,158.802 207.897 C 158.686 207.890,158.323 207.546,157.996 207.132 C 154.981 203.320,155.619 196.258,159.211 193.696 C 159.783 193.288,160.457 192.764,160.710 192.531 C 161.285 191.999,163.753 191.347,165.188 191.347 C 167.541 191.347,169.220 192.043,171.011 193.758 C 171.331 194.064,171.754 194.314,171.951 194.314 C 172.473 194.314,174.289 192.599,174.289 192.106 C 174.289 191.708,173.090 190.358,172.735 190.358 C 172.644 190.358,171.927 189.948,171.143 189.447 C 169.072 188.122,165.207 187.492,162.546 188.047 M304.486 188.407 C 301.838 189.029,300.384 190.998,300.182 194.237 L 300.054 196.292 298.471 196.292 L 296.887 196.292 296.960 197.960 L 297.033 199.629 298.579 199.629 L 300.125 199.629 300.124 206.489 L 300.124 213.350 301.978 213.350 L 303.832 213.350 303.832 206.551 L 303.832 199.753 305.253 199.727 C 306.035 199.712,306.981 199.721,307.355 199.745 L 308.035 199.790 308.035 198.041 L 308.035 196.292 305.933 196.292 L 303.832 196.292 303.832 195.031 C 303.832 192.555,304.823 191.438,306.811 191.674 L 307.981 191.812 308.502 190.558 C 308.789 189.868,309.023 189.157,309.023 188.977 C 309.023 188.279,306.423 187.952,304.486 188.407 M177.068 200.803 L 177.132 213.226 178.925 213.299 L 180.717 213.371 180.717 200.876 L 180.717 188.381 178.861 188.381 L 177.004 188.381 177.068 200.803 M233.127 193.090 L 233.127 197.800 232.324 197.200 C 231.882 196.870,231.075 196.462,230.532 196.292 C 229.988 196.123,229.437 195.887,229.308 195.767 C 229.004 195.486,226.129 195.484,225.822 195.765 C 225.693 195.883,225.071 196.172,224.440 196.406 C 223.153 196.884,221.731 198.110,221.144 199.246 C 220.929 199.661,220.661 200.000,220.547 200.000 C 219.569 200.000,219.103 206.117,219.926 208.158 C 222.103 213.562,228.083 215.720,231.995 212.514 L 233.127 211.586 233.127 212.468 L 233.127 213.350 234.858 213.350 L 236.588 213.350 236.588 200.865 L 236.588 188.381 234.858 188.381 L 233.127 188.381 233.127 193.090 M244.994 200.877 L 244.994 213.372 246.663 213.299 L 248.331 213.226 248.398 208.344 L 248.465 203.461 251.884 203.461 C 255.018 203.461,256.860 203.194,256.860 202.739 C 256.860 202.640,257.361 202.310,257.974 202.004 C 260.642 200.671,261.808 196.845,260.658 193.197 C 260.046 191.255,259.235 190.469,256.450 189.119 L 254.926 188.381 249.960 188.381 L 244.994 188.381 244.994 200.877 M263.041 200.865 L 263.041 213.350 264.888 213.350 L 266.735 213.350 266.744 200.865 L 266.754 188.381 264.897 188.381 L 263.041 188.381 263.041 200.865 M288.010 193.696 L 288.010 196.292 286.515 196.292 L 285.021 196.292 285.094 197.960 L 285.167 199.629 286.561 199.702 L 287.954 199.776 288.055 204.894 C 288.166 210.555,288.379 211.472,289.770 212.294 C 290.162 212.526,290.482 212.789,290.482 212.879 C 290.482 213.494,294.458 213.938,295.892 213.483 C 297.074 213.107,295.832 210.005,294.592 210.237 C 292.175 210.691,291.718 209.678,291.718 203.865 C 291.718 199.770,291.721 199.753,292.274 199.736 C 292.580 199.727,293.498 199.700,294.314 199.675 L 295.797 199.629 295.870 197.960 L 295.943 196.292 293.831 196.292 L 291.718 196.292 291.718 193.696 L 291.718 191.100 289.864 191.100 L 288.010 191.100 288.010 193.696 M255.406 192.570 C 257.460 193.961,257.964 196.142,256.695 198.149 C 255.679 199.754,255.400 199.856,251.731 199.958 L 248.455 200.049 248.455 195.925 L 248.455 191.801 251.483 191.883 C 254.213 191.957,254.600 192.025,255.406 192.570 M69.468 195.700 C 68.993 195.912,68.105 196.310,67.495 196.584 C 63.862 198.218,61.778 203.139,63.003 207.192 C 63.714 209.542,64.945 211.619,65.628 211.619 C 65.794 211.619,66.132 211.842,66.378 212.114 C 66.624 212.386,66.928 212.608,67.052 212.608 C 67.177 212.608,67.443 212.772,67.643 212.972 C 68.543 213.873,72.816 214.256,74.753 213.610 C 80.982 211.534,83.272 203.335,78.961 198.541 C 77.942 197.408,77.244 196.976,74.375 195.703 C 73.222 195.191,70.612 195.190,69.468 195.700 M89.740 195.452 C 89.536 195.529,88.669 195.916,87.813 196.313 C 86.957 196.709,86.173 197.033,86.071 197.033 C 85.591 197.033,84.029 199.073,83.221 200.756 C 82.041 203.213,81.930 206.063,82.942 207.963 C 83.282 208.602,83.560 209.281,83.560 209.473 C 83.560 209.986,85.957 212.333,86.662 212.510 C 86.996 212.593,87.268 212.749,87.268 212.855 C 87.268 214.254,94.648 214.226,95.992 212.823 C 96.236 212.569,96.577 212.361,96.752 212.361 C 97.314 212.361,99.313 210.229,99.618 209.304 C 99.781 208.810,100.012 208.405,100.131 208.405 C 100.515 208.405,100.862 206.603,100.864 204.602 C 100.865 202.750,100.483 200.742,100.128 200.742 C 100.038 200.742,99.716 200.245,99.412 199.637 C 98.907 198.626,97.103 196.786,96.617 196.786 C 96.505 196.786,95.829 196.495,95.116 196.140 C 93.836 195.503,90.679 195.098,89.740 195.452 M107.464 196.263 C 105.555 197.205,104.079 198.349,104.079 198.887 C 104.079 199.040,103.868 199.391,103.611 199.668 C 100.745 202.744,101.887 209.210,105.822 212.182 C 108.569 214.257,113.135 214.551,114.833 212.764 L 115.328 212.243 115.407 213.210 C 115.557 215.040,114.627 216.873,113.246 217.468 C 111.178 218.360,108.709 217.771,107.664 216.137 C 106.811 214.803,106.372 214.709,104.494 215.461 C 102.070 216.431,102.189 216.956,105.585 220.266 C 107.750 222.375,113.345 222.473,116.348 220.454 C 119.343 218.440,119.647 217.053,119.651 205.377 L 119.654 196.044 117.688 196.044 C 116.167 196.044,115.674 196.131,115.508 196.429 C 115.314 196.774,115.205 196.770,114.445 196.386 C 113.978 196.151,113.302 195.811,112.941 195.631 C 111.641 194.981,109.581 195.219,107.464 196.263 M134.677 195.458 C 134.278 195.576,132.940 196.253,131.511 197.060 C 127.589 199.276,126.842 207.106,130.174 211.063 C 130.546 211.505,130.985 211.867,131.149 211.867 C 131.314 211.867,131.727 212.125,132.067 212.440 C 134.805 214.978,140.876 214.264,143.781 211.062 C 144.945 209.780,144.863 209.428,143.144 208.321 C 141.436 207.220,141.554 207.207,140.017 208.653 C 138.697 209.894,135.961 210.291,134.902 209.394 C 132.772 207.592,132.761 207.640,135.538 206.630 C 135.980 206.469,136.606 206.135,136.931 205.888 C 137.255 205.641,137.644 205.439,137.796 205.440 C 137.948 205.440,138.739 205.171,139.555 204.842 C 140.371 204.513,141.802 203.952,142.735 203.595 C 144.483 202.927,145.368 202.303,144.972 202.017 C 144.848 201.927,144.413 201.135,144.005 200.255 C 143.280 198.694,142.063 197.033,141.642 197.033 C 141.526 197.033,140.842 196.682,140.122 196.253 C 138.827 195.481,135.997 195.068,134.677 195.458 M189.122 195.791 C 188.918 195.907,188.124 196.292,187.357 196.646 C 185.018 197.727,182.942 200.430,182.942 202.396 C 182.942 202.710,182.831 202.967,182.695 202.967 C 182.554 202.967,182.447 203.703,182.447 204.683 C 182.447 205.626,182.559 206.467,182.695 206.551 C 182.831 206.635,182.943 206.948,182.944 207.246 C 182.951 208.646,185.400 212.361,186.317 212.361 C 186.487 212.361,186.715 212.508,186.823 212.688 C 187.700 214.137,195.797 214.285,195.797 212.852 C 195.797 212.736,196.012 212.573,196.274 212.490 C 197.238 212.184,198.695 210.407,199.266 208.840 C 199.576 207.989,199.924 207.187,200.038 207.058 C 200.319 206.742,200.306 202.824,200.021 202.283 C 199.897 202.047,199.492 201.187,199.122 200.371 C 198.225 198.397,197.472 197.633,195.550 196.746 C 194.666 196.339,193.750 195.903,193.514 195.778 C 192.979 195.494,189.625 195.504,189.122 195.791 M274.413 195.790 C 274.209 195.906,273.531 196.180,272.906 196.400 C 271.561 196.871,270.449 197.822,269.880 198.987 C 269.318 200.136,269.307 200.114,270.738 200.709 C 272.397 201.398,272.568 201.381,273.530 200.433 C 274.893 199.087,275.122 198.976,276.523 198.976 C 277.450 198.976,278.002 199.104,278.283 199.385 C 278.508 199.610,278.936 199.887,279.234 200.000 C 279.782 200.208,280.593 201.596,280.593 202.324 C 280.593 202.796,280.074 202.843,279.642 202.410 C 279.240 202.008,273.490 201.974,273.230 202.372 C 273.133 202.521,272.723 202.724,272.320 202.823 C 271.381 203.053,269.221 205.196,269.221 205.898 C 269.221 206.189,269.110 206.428,268.974 206.428 C 268.516 206.428,268.696 209.239,269.224 210.331 C 271.102 214.218,276.591 215.260,279.719 212.324 L 280.470 211.620 280.546 212.485 L 280.623 213.350 282.339 213.350 L 284.054 213.350 284.054 207.175 C 284.054 199.138,283.293 197.218,279.728 196.263 C 279.184 196.117,278.546 195.897,278.310 195.774 C 277.773 195.494,274.913 195.506,274.413 195.790 M315.204 195.790 C 315.000 195.906,314.277 196.192,313.597 196.426 C 309.441 197.856,307.305 203.660,309.141 208.536 C 310.737 212.778,315.797 215.001,320.386 213.476 C 321.071 213.249,321.632 212.968,321.632 212.852 C 321.632 212.736,321.826 212.579,322.064 212.503 C 326.206 211.183,327.376 202.574,323.963 198.537 C 323.167 197.596,321.249 196.293,320.656 196.290 C 320.445 196.289,319.953 196.122,319.564 195.919 C 318.795 195.518,315.836 195.431,315.204 195.790 M335.618 195.767 C 335.545 195.886,335.002 196.105,334.412 196.254 C 333.823 196.402,332.987 196.862,332.554 197.275 L 331.768 198.027 331.768 197.159 L 331.768 196.292 330.037 196.292 L 328.307 196.292 328.307 204.821 L 328.307 213.350 330.037 213.350 L 331.768 213.350 331.768 208.665 C 331.768 200.938,332.994 198.799,336.967 199.594 C 337.515 199.703,337.701 199.648,337.701 199.376 C 337.701 199.175,337.790 199.011,337.899 199.011 C 338.190 199.011,339.007 196.605,338.820 196.302 C 338.732 196.160,338.396 196.044,338.072 196.044 C 337.748 196.044,337.414 195.933,337.330 195.797 C 337.142 195.493,335.802 195.469,335.618 195.767 M345.959 196.375 C 345.130 196.805,344.268 197.310,344.043 197.496 C 343.678 197.800,343.634 197.754,343.634 197.064 L 343.634 196.292 341.904 196.292 L 340.173 196.292 340.173 204.821 L 340.173 213.350 342.027 213.350 L 343.881 213.350 343.881 207.903 C 343.881 202.585,344.116 200.747,344.796 200.740 C 344.905 200.738,345.418 200.335,345.937 199.843 C 347.236 198.613,348.672 198.602,349.956 199.814 C 351.084 200.877,351.286 202.207,351.293 208.591 L 351.298 213.350 353.008 213.350 L 354.718 213.350 354.800 207.778 C 354.855 204.049,354.973 202.148,355.157 202.030 C 355.308 201.933,355.616 201.494,355.842 201.053 C 356.068 200.612,356.556 200.059,356.927 199.823 C 357.298 199.587,357.670 199.298,357.753 199.182 C 358.265 198.464,360.250 198.977,361.333 200.107 L 362.423 201.245 362.423 207.297 L 362.423 213.350 364.295 213.350 L 366.167 213.350 366.087 206.719 C 366.016 200.798,365.961 200.041,365.575 199.655 C 365.337 199.418,365.142 199.008,365.142 198.746 C 365.142 198.075,363.295 196.306,362.410 196.128 C 362.003 196.047,361.611 195.884,361.538 195.765 C 361.356 195.472,358.564 195.492,358.031 195.791 C 357.795 195.924,357.213 196.205,356.737 196.416 C 355.417 197.001,354.772 197.415,354.411 197.910 C 354.102 198.331,354.032 198.303,353.295 197.464 C 352.863 196.972,352.098 196.438,351.595 196.277 C 351.091 196.116,350.574 195.887,350.445 195.767 C 349.893 195.257,347.487 195.583,345.959 196.375 M201.982 201.545 C 202.009 209.087,202.268 210.376,204.128 212.237 C 206.439 214.550,210.549 214.595,212.962 212.332 C 213.941 211.415,214.091 211.436,214.091 212.485 L 214.091 213.350 215.822 213.350 L 217.553 213.350 217.553 204.821 L 217.553 196.292 215.575 196.292 L 213.597 196.292 213.597 201.617 C 213.597 206.386,213.547 207.039,213.121 207.875 C 211.858 210.350,209.948 211.182,207.853 210.168 C 205.917 209.230,205.821 208.871,205.728 202.163 L 205.647 196.292 203.805 196.292 L 201.963 196.292 201.982 201.545 M193.971 199.888 C 195.267 200.712,196.292 202.270,196.292 203.416 C 196.292 203.713,196.403 203.956,196.539 203.956 C 196.675 203.956,196.786 204.283,196.786 204.683 C 196.786 205.082,196.675 205.478,196.539 205.562 C 196.403 205.646,196.292 205.937,196.292 206.207 C 196.292 210.053,190.679 211.921,187.980 208.974 C 183.552 204.140,188.605 196.477,193.971 199.888 M229.783 199.305 C 229.923 199.420,230.424 199.765,230.896 200.072 C 233.299 201.632,233.870 205.389,232.137 208.248 C 228.652 213.999,220.689 208.027,223.650 201.882 C 224.023 201.107,225.886 199.506,226.415 199.506 C 226.571 199.506,226.700 199.402,226.700 199.275 C 226.700 198.791,229.191 198.815,229.783 199.305 M318.624 199.298 C 318.669 199.412,318.848 199.506,319.021 199.506 C 319.700 199.506,321.575 201.229,321.970 202.217 C 323.755 206.676,320.239 211.543,316.052 210.411 C 311.589 209.205,310.630 202.161,314.630 199.976 C 315.218 199.655,315.698 199.314,315.698 199.218 C 315.698 198.781,318.449 198.856,318.624 199.298 M73.256 199.806 C 75.613 200.512,77.126 203.149,76.630 205.686 C 76.510 206.298,76.407 206.877,76.401 206.974 C 76.395 207.070,75.930 207.571,75.367 208.086 C 74.804 208.602,74.173 209.190,73.963 209.394 C 73.490 209.855,70.495 209.908,69.957 209.465 C 68.124 207.955,67.730 207.523,67.471 206.737 C 66.068 202.489,69.298 198.620,73.256 199.806 M93.943 200.218 C 96.773 201.672,97.076 206.269,94.501 208.682 C 90.621 212.319,85.080 207.133,87.501 202.130 C 88.656 199.745,91.423 198.924,93.943 200.218 M113.286 200.106 C 116.512 201.477,116.519 207.225,113.297 209.263 C 109.401 211.729,104.680 206.214,107.211 202.154 C 108.747 199.692,110.734 199.022,113.286 200.106 M138.411 199.860 C 139.844 200.601,139.828 200.898,138.321 201.461 C 137.562 201.745,136.842 201.978,136.720 201.978 C 136.599 201.978,136.329 202.149,136.119 202.359 C 135.909 202.568,135.151 202.942,134.433 203.189 C 133.715 203.436,132.943 203.718,132.717 203.815 C 132.353 203.972,132.333 203.876,132.538 202.960 C 133.110 200.415,136.264 198.750,138.411 199.860 M279.432 205.462 C 282.497 206.278,278.323 211.141,275.080 210.532 C 271.797 209.916,272.083 205.895,275.460 205.196 C 276.579 204.964,277.892 205.052,279.432 205.462 " stroke="none" fill="#040404" fill-rule="evenodd"></path><path id="path2" d="M166.316 34.039 C 166.078 34.102,165.884 34.242,165.884 34.351 C 165.884 34.460,165.577 34.610,165.202 34.685 C 164.291 34.867,161.651 36.668,161.187 37.424 C 160.079 39.228,159.209 40.812,159.209 41.025 C 159.209 41.158,159.000 41.465,158.745 41.709 C 158.490 41.952,157.750 43.152,157.102 44.376 C 156.453 45.600,155.723 46.887,155.479 47.236 C 155.235 47.586,155.001 48.030,154.959 48.224 C 154.917 48.418,154.753 48.688,154.596 48.825 C 154.438 48.961,153.790 50.074,153.157 51.298 C 152.523 52.522,151.869 53.634,151.702 53.770 C 151.535 53.906,151.175 54.462,150.901 55.006 C 149.352 58.079,148.540 59.553,148.359 59.623 C 148.246 59.667,147.878 60.260,147.541 60.939 C 146.401 63.239,145.074 65.635,144.869 65.761 C 144.757 65.830,144.255 66.665,143.753 67.616 C 143.251 68.567,142.547 69.901,142.187 70.581 C 141.827 71.261,141.461 71.850,141.374 71.891 C 141.185 71.978,141.413 72.999,141.661 73.177 C 141.756 73.245,142.065 73.829,142.349 74.475 C 142.633 75.121,142.982 75.649,143.126 75.649 C 143.269 75.649,143.387 75.788,143.388 75.958 C 143.388 76.128,144.180 77.602,145.146 79.234 C 146.113 80.865,147.295 82.923,147.774 83.807 C 149.176 86.397,149.878 87.614,150.198 88.010 C 150.364 88.214,151.025 89.382,151.668 90.606 C 152.311 91.829,153.094 93.220,153.409 93.696 C 153.724 94.172,154.418 95.319,154.951 96.245 L 155.920 97.928 156.823 96.412 C 157.319 95.579,157.726 94.844,157.726 94.779 C 157.726 94.600,159.959 90.763,160.872 89.375 C 161.317 88.698,161.681 88.044,161.681 87.920 C 161.681 87.797,162.627 86.109,163.782 84.171 C 164.938 82.232,165.884 80.567,165.884 80.471 C 165.884 80.375,166.534 79.222,167.328 77.910 C 169.057 75.055,173.828 66.781,175.896 63.049 C 176.712 61.578,177.533 60.194,177.720 59.976 C 178.029 59.613,181.325 59.578,214.679 59.580 C 243.927 59.582,251.283 59.520,251.222 59.272 C 251.180 59.101,250.796 58.294,250.369 57.478 C 249.941 56.663,249.369 55.550,249.096 55.006 C 248.824 54.462,248.465 53.906,248.298 53.770 C 248.131 53.634,247.472 52.522,246.832 51.298 C 246.193 50.074,245.314 48.517,244.880 47.837 C 244.446 47.157,243.561 45.600,242.912 44.376 C 242.263 43.152,241.587 42.036,241.411 41.895 C 241.234 41.754,240.913 41.217,240.698 40.702 C 240.482 40.186,239.993 39.300,239.610 38.732 C 239.227 38.165,238.848 37.529,238.767 37.320 C 238.568 36.800,235.636 34.856,234.796 34.686 C 234.422 34.611,234.116 34.439,234.116 34.304 C 234.116 34.169,233.894 34.117,233.622 34.188 C 233.350 34.259,233.127 34.216,233.127 34.093 C 233.127 33.869,167.172 33.816,166.316 34.039 M216.567 89.926 C 216.574 90.264,217.029 90.841,217.174 90.696 C 217.369 90.501,217.059 89.740,216.784 89.740 C 216.663 89.740,216.565 89.824,216.567 89.926 " stroke="none" fill="#4a89f1" fill-rule="evenodd"></path><path id="path3" d="M177.719 59.977 C 177.532 60.195,176.712 61.578,175.896 63.049 C 173.828 66.781,169.057 75.055,167.328 77.910 C 166.534 79.222,165.884 80.375,165.884 80.471 C 165.884 80.567,164.938 82.232,163.782 84.171 C 162.627 86.109,161.681 87.797,161.681 87.920 C 161.681 88.044,161.317 88.698,160.872 89.375 C 159.926 90.814,157.726 94.602,157.726 94.793 C 157.726 94.864,157.300 95.621,156.780 96.473 L 155.834 98.022 156.528 99.135 C 156.909 99.747,157.336 100.508,157.476 100.826 C 157.806 101.577,159.704 104.834,160.091 105.315 C 160.256 105.519,160.946 106.743,161.625 108.035 C 162.304 109.326,163.413 111.273,164.089 112.361 C 164.765 113.449,165.535 114.784,165.801 115.328 C 166.214 116.174,168.219 119.625,170.038 122.621 C 170.327 123.096,170.916 124.153,171.347 124.969 C 171.779 125.785,172.769 127.509,173.549 128.801 C 174.328 130.093,175.434 132.027,176.005 133.099 C 176.576 134.172,177.279 135.368,177.567 135.757 L 178.091 136.465 200.043 136.465 L 221.996 136.465 222.622 135.473 C 222.967 134.928,223.649 133.732,224.139 132.816 C 224.629 131.899,225.560 130.260,226.209 129.172 C 226.857 128.084,227.884 126.304,228.490 125.216 C 229.097 124.129,230.405 121.848,231.397 120.148 C 232.389 118.449,233.837 115.946,234.613 114.586 C 236.406 111.448,237.736 109.137,239.810 105.562 C 240.717 103.999,241.925 101.885,242.493 100.865 C 243.062 99.845,243.662 98.814,243.828 98.573 C 244.075 98.212,244.026 97.949,243.547 97.089 C 243.228 96.515,242.574 95.321,242.096 94.438 C 241.617 93.554,240.695 91.941,240.046 90.853 C 239.397 89.765,238.368 87.985,237.759 86.897 C 237.150 85.810,235.843 83.529,234.856 81.829 C 231.620 76.259,228.686 71.156,224.980 64.648 C 224.128 63.152,223.098 61.400,222.691 60.754 L 221.951 59.580 200.004 59.580 C 180.163 59.580,178.026 59.618,177.719 59.977 M200.004 79.172 C 200.006 79.378,200.087 79.357,200.247 79.110 C 200.460 78.780,200.488 78.780,200.494 79.110 C 200.501 79.440,200.529 79.440,200.742 79.110 C 200.896 78.870,200.983 78.847,200.985 79.043 C 200.988 79.262,201.304 79.305,202.101 79.195 C 202.909 79.085,203.214 79.128,203.214 79.352 C 203.214 79.540,203.408 79.611,203.708 79.533 C 203.980 79.462,204.203 79.517,204.203 79.656 C 204.203 79.796,204.425 79.851,204.697 79.780 C 204.969 79.709,205.192 79.749,205.192 79.870 C 205.192 79.991,205.498 80.161,205.871 80.247 C 206.763 80.455,209.716 81.866,209.942 82.192 C 210.039 82.333,210.237 82.447,210.383 82.447 C 210.529 82.447,210.754 82.614,210.883 82.818 C 211.012 83.022,211.119 83.133,211.120 83.066 C 211.128 82.773,214.744 86.469,215.072 87.104 C 215.271 87.490,215.676 88.067,215.973 88.387 C 216.269 88.707,216.449 89.031,216.373 89.107 C 216.297 89.183,216.370 89.246,216.537 89.246 C 216.704 89.246,216.771 89.357,216.687 89.493 C 216.603 89.629,216.639 89.740,216.767 89.740 C 217.032 89.740,218.159 93.257,218.431 94.932 C 218.928 98.001,218.111 105.068,217.258 105.068 C 217.132 105.068,217.098 105.179,217.182 105.315 C 217.266 105.451,217.225 105.562,217.092 105.562 C 216.958 105.562,216.720 105.955,216.561 106.435 C 216.403 106.915,215.894 107.871,215.430 108.561 C 214.966 109.251,214.586 109.865,214.586 109.926 C 214.586 110.087,211.373 113.136,211.365 112.984 C 211.360 112.913,211.244 113.050,211.105 113.288 C 210.966 113.526,210.692 113.721,210.495 113.721 C 210.297 113.721,210.136 113.820,210.136 113.940 C 210.136 114.213,206.763 115.833,205.715 116.063 C 205.291 116.156,204.944 116.332,204.944 116.454 C 204.944 116.575,204.583 116.613,204.141 116.537 C 203.604 116.444,203.446 116.476,203.665 116.630 C 204.098 116.938,202.313 117.182,199.629 117.182 C 197.026 117.182,195.268 116.944,195.469 116.618 C 195.567 116.459,195.386 116.428,194.969 116.532 C 194.581 116.630,194.314 116.594,194.314 116.445 C 194.314 116.306,194.148 116.193,193.945 116.193 C 193.475 116.193,190.015 114.664,189.905 114.408 C 189.860 114.302,189.674 114.215,189.492 114.215 C 189.309 114.215,188.846 113.907,188.462 113.530 C 188.077 113.152,187.227 112.410,186.573 111.880 C 185.918 111.350,184.876 110.129,184.255 109.166 C 183.635 108.204,183.030 107.379,182.910 107.334 C 182.790 107.288,182.754 107.149,182.831 107.025 C 182.908 106.900,182.868 106.799,182.742 106.799 C 181.967 106.799,180.695 101.103,180.729 97.788 C 180.764 94.434,182.145 89.070,182.818 89.680 C 182.929 89.781,182.951 89.669,182.865 89.431 C 182.780 89.193,182.825 88.999,182.964 88.999 C 183.104 88.999,183.150 88.888,183.066 88.752 C 182.981 88.616,183.049 88.504,183.216 88.504 C 183.382 88.504,183.457 88.442,183.381 88.366 C 183.305 88.291,183.565 87.876,183.958 87.446 C 184.351 87.016,184.672 86.534,184.672 86.375 C 184.672 86.216,185.358 85.490,186.196 84.761 C 187.034 84.033,187.952 83.214,188.236 82.942 C 188.519 82.670,188.835 82.475,188.937 82.509 C 189.039 82.543,189.122 82.461,189.122 82.327 C 189.122 82.003,192.401 80.460,193.881 80.088 C 194.527 79.926,195.056 79.710,195.056 79.609 C 195.056 79.508,195.334 79.479,195.674 79.544 C 196.037 79.613,196.292 79.547,196.292 79.384 C 196.292 79.192,196.714 79.155,197.651 79.265 C 198.596 79.377,199.011 79.340,199.011 79.144 C 199.011 78.989,199.234 78.863,199.506 78.863 C 199.778 78.863,200.002 79.002,200.004 79.172 " stroke="none" fill="#f1f1f1" fill-rule="evenodd"></path><path id="path4" d="M222.426 59.733 C 222.344 59.815,222.532 60.286,222.844 60.781 C 223.155 61.276,223.794 62.404,224.263 63.288 C 224.733 64.172,225.291 65.173,225.504 65.513 C 226.000 66.306,230.046 73.274,231.301 75.496 C 232.326 77.311,234.378 80.888,237.231 85.833 C 238.196 87.506,239.685 90.099,240.538 91.595 C 241.392 93.090,242.579 95.123,243.177 96.112 C 244.122 97.675,244.226 97.981,243.975 98.460 C 243.816 98.763,242.852 100.457,241.832 102.225 C 240.813 103.993,239.564 106.162,239.058 107.046 C 238.552 107.930,237.356 109.988,236.402 111.619 C 234.751 114.439,233.375 116.836,230.119 122.559 C 228.725 125.009,227.504 127.146,224.224 132.880 C 223.368 134.376,222.422 135.878,222.121 136.218 C 221.820 136.557,221.244 137.447,220.840 138.195 C 219.832 140.063,218.008 143.257,216.180 146.354 C 215.337 147.781,214.125 149.895,213.487 151.051 C 211.892 153.937,210.318 156.692,208.744 159.349 C 207.350 161.703,207.221 162.065,207.726 162.215 C 208.734 162.515,233.375 162.186,233.375 161.873 C 233.375 161.751,233.486 161.721,233.622 161.805 C 233.758 161.889,233.869 161.828,233.869 161.669 C 233.869 161.511,234.029 161.442,234.224 161.517 C 234.419 161.592,234.616 161.542,234.661 161.407 C 234.706 161.271,234.913 161.135,235.120 161.104 C 235.447 161.056,235.940 160.777,237.809 159.580 C 238.022 159.444,238.195 159.166,238.195 158.962 C 238.195 158.758,238.367 158.618,238.577 158.652 C 238.798 158.687,239.121 158.374,239.345 157.910 C 240.520 155.472,241.405 153.873,241.667 153.714 C 241.829 153.615,242.110 153.170,242.290 152.725 C 242.470 152.280,242.679 151.860,242.755 151.792 C 242.831 151.724,243.328 150.807,243.860 149.753 C 244.392 148.699,244.927 147.837,245.049 147.837 C 245.171 147.837,245.201 147.726,245.117 147.590 C 245.033 147.454,245.089 147.342,245.241 147.342 C 245.393 147.342,245.449 147.231,245.365 147.095 C 245.281 146.959,245.336 146.848,245.488 146.848 C 245.640 146.848,245.696 146.737,245.612 146.601 C 245.528 146.465,245.583 146.354,245.734 146.354 C 245.884 146.354,246.172 145.962,246.372 145.483 C 246.806 144.442,248.237 142.059,248.493 141.949 C 248.593 141.907,248.606 141.694,248.523 141.476 C 248.413 141.190,248.463 141.138,248.702 141.286 C 248.944 141.435,248.991 141.380,248.875 141.079 C 248.789 140.853,248.817 140.667,248.939 140.667 C 249.123 140.667,250.749 138.099,250.818 137.701 C 250.890 137.279,251.538 136.218,251.723 136.218 C 251.845 136.218,251.876 136.106,251.792 135.970 C 251.708 135.834,251.753 135.723,251.893 135.723 C 252.187 135.723,252.570 135.073,252.695 134.363 C 252.742 134.091,252.913 133.758,253.075 133.622 C 253.237 133.486,253.742 132.639,254.197 131.740 C 254.653 130.841,255.217 129.914,255.451 129.681 C 255.685 129.447,255.813 129.153,255.736 129.028 C 255.658 128.903,255.713 128.801,255.857 128.801 C 256.001 128.801,256.119 128.634,256.119 128.430 C 256.119 128.226,256.222 128.059,256.349 128.059 C 256.476 128.059,256.655 127.809,256.748 127.503 C 256.840 127.197,257.229 126.429,257.613 125.797 C 257.996 125.164,258.239 124.576,258.152 124.489 C 258.065 124.402,258.249 124.265,258.561 124.183 C 258.985 124.072,259.044 123.983,258.797 123.826 C 258.530 123.657,258.529 123.616,258.791 123.613 C 258.969 123.611,259.046 123.498,258.962 123.362 C 258.878 123.226,258.933 123.115,259.085 123.115 C 259.237 123.115,259.293 123.004,259.209 122.868 C 259.125 122.732,259.171 122.621,259.312 122.621 C 259.525 122.621,260.388 121.297,260.440 120.890 C 260.482 120.568,261.950 118.171,262.106 118.171 C 262.204 118.171,262.220 118.004,262.141 117.800 C 262.054 117.572,262.142 117.429,262.369 117.429 C 262.676 117.429,263.185 116.318,263.039 115.968 C 263.016 115.912,263.165 115.772,263.371 115.657 C 263.577 115.542,263.874 115.059,264.030 114.584 C 264.187 114.109,264.406 113.721,264.516 113.721 C 264.627 113.721,264.783 113.462,264.862 113.145 C 264.942 112.829,265.287 112.267,265.631 111.896 C 266.175 111.309,266.307 110.974,266.238 110.361 C 266.229 110.280,266.390 110.086,266.596 109.928 C 266.801 109.770,267.375 108.835,267.872 107.849 C 268.368 106.863,268.882 106.057,269.013 106.057 C 269.143 106.057,269.182 105.946,269.098 105.810 C 269.014 105.674,269.069 105.562,269.221 105.562 C 269.373 105.562,269.429 105.451,269.345 105.315 C 269.261 105.179,269.310 105.068,269.454 105.068 C 269.598 105.068,269.716 104.910,269.716 104.718 C 269.716 104.525,269.806 104.330,269.916 104.285 C 270.027 104.240,270.480 103.424,270.923 102.472 C 272.546 98.989,272.112 94.865,269.797 91.779 C 269.465 91.336,269.262 90.863,269.346 90.728 C 269.429 90.593,269.378 90.482,269.232 90.482 C 269.086 90.482,268.773 90.065,268.537 89.555 C 268.302 89.045,268.053 88.572,267.985 88.504 C 267.917 88.436,267.669 87.964,267.433 87.454 C 267.197 86.944,266.885 86.527,266.738 86.527 C 266.592 86.527,266.541 86.415,266.625 86.279 C 266.709 86.143,266.654 86.032,266.502 86.032 C 266.350 86.032,266.294 85.921,266.378 85.785 C 266.462 85.649,266.417 85.538,266.277 85.538 C 266.137 85.538,266.087 85.371,266.165 85.167 C 266.257 84.928,266.160 84.796,265.894 84.796 C 265.584 84.796,265.522 84.664,265.646 84.271 C 265.744 83.964,265.716 83.805,265.580 83.889 C 265.452 83.969,264.856 83.079,264.255 81.911 C 263.655 80.744,263.026 79.736,262.857 79.671 C 262.688 79.606,262.611 79.453,262.686 79.331 C 262.761 79.210,262.698 79.110,262.546 79.110 C 262.394 79.110,262.339 78.999,262.423 78.863 C 262.507 78.727,262.450 78.616,262.297 78.616 C 262.131 78.616,262.082 78.416,262.175 78.123 C 262.284 77.779,262.233 77.663,262.006 77.738 C 261.801 77.806,261.362 77.191,260.816 76.068 C 260.340 75.090,259.809 74.199,259.636 74.089 C 259.464 73.978,259.379 73.795,259.449 73.682 C 259.520 73.569,259.399 73.408,259.182 73.324 C 258.957 73.238,258.848 73.014,258.928 72.804 C 259.006 72.601,258.973 72.435,258.854 72.435 C 258.664 72.435,257.951 71.171,256.277 67.862 C 256.002 67.318,255.636 66.786,255.463 66.681 C 255.291 66.575,255.220 66.307,255.306 66.084 C 255.410 65.813,255.365 65.738,255.172 65.858 C 254.913 66.018,254.771 65.726,254.853 65.204 C 254.869 65.102,254.775 65.019,254.643 65.019 C 254.511 65.019,254.113 64.407,253.759 63.659 C 253.406 62.911,253.006 62.299,252.872 62.299 C 252.738 62.299,252.685 62.208,252.754 62.096 C 252.823 61.984,252.663 61.707,252.398 61.480 C 251.950 61.097,251.803 60.632,251.895 59.900 C 251.935 59.586,222.739 59.420,222.426 59.733 " stroke="none" fill="#d54434" fill-rule="evenodd"></path></g></svg>