<svg id="svg" version="1.1" xmlns="http://www.w3.org/2000/svg" xmlns:xlink="http://www.w3.org/1999/xlink" width="400" height="282.96875" viewBox="0, 0, 400,282.96875"><g id="svgg"><path id="path0" d="M126.833 106.779 C 121.023 107.551,117.446 108.853,114.235 111.364 C 111.147 113.779,108.130 118.772,107.606 122.333 C 107.559 122.654,107.393 123.742,107.238 124.750 C 106.848 127.284,106.852 132.163,107.247 134.417 C 107.407 135.333,107.557 136.233,107.580 136.417 C 107.719 137.535,108.710 139.878,109.542 141.055 C 109.725 141.315,110.035 141.816,110.229 142.169 C 110.573 142.792,112.089 144.596,113.062 145.541 C 114.757 147.185,120.255 150.401,122.667 151.158 C 123.079 151.288,124.669 151.943,126.200 152.614 C 127.731 153.284,129.073 153.833,129.183 153.833 C 129.566 153.833,132.459 155.586,134.140 156.836 C 139.352 160.712,137.127 170.000,130.987 170.000 C 127.081 170.000,125.145 167.492,124.908 162.125 L 124.799 159.667 115.293 159.667 L 105.787 159.667 105.906 162.708 C 106.034 165.971,106.437 168.806,107.002 170.417 C 107.195 170.967,107.413 171.652,107.488 171.940 C 108.787 176.964,114.642 181.099,122.203 182.333 C 137.167 184.774,151.051 180.605,154.670 172.583 C 158.766 163.504,158.013 152.898,152.810 146.413 C 150.518 143.555,146.178 140.505,142.018 138.826 C 140.954 138.397,139.278 137.698,138.293 137.273 C 137.309 136.848,136.409 136.499,136.293 136.499 C 135.007 136.489,128.005 132.165,127.255 130.917 C 124.378 126.130,125.994 120.834,130.591 119.984 C 134.332 119.293,137.000 122.671,137.000 128.098 L 137.000 129.500 146.104 129.500 L 155.207 129.500 155.091 126.708 C 154.925 122.724,154.263 119.706,152.983 117.098 C 152.718 116.557,152.500 116.021,152.500 115.908 C 152.500 115.679,151.304 114.008,150.263 112.783 C 147.708 109.775,142.244 107.434,136.417 106.851 C 134.901 106.699,127.833 106.646,126.833 106.779 M25.500 145.000 L 25.500 181.833 35.250 181.833 L 45.000 181.833 45.000 145.000 L 45.000 108.167 35.250 108.167 L 25.500 108.167 25.500 145.000 M50.000 145.000 L 50.000 181.833 59.167 181.833 L 68.333 181.833 68.340 159.292 L 68.347 136.750 69.171 139.456 C 69.624 140.944,70.036 142.407,70.086 142.706 C 70.136 143.005,70.657 144.862,71.245 146.833 C 71.832 148.804,72.432 150.940,72.579 151.579 C 72.726 152.218,73.333 154.356,73.928 156.329 C 74.524 158.302,75.041 160.142,75.079 160.417 C 75.117 160.692,75.676 162.679,76.323 164.833 C 76.970 166.987,77.499 168.845,77.500 168.960 C 77.500 169.172,78.830 173.781,79.596 176.228 C 79.822 176.950,80.040 177.775,80.080 178.062 C 80.120 178.349,80.312 179.108,80.506 179.750 C 80.700 180.392,80.915 181.104,80.983 181.333 L 81.107 181.750 91.804 181.793 L 102.500 181.836 102.500 145.001 L 102.500 108.167 93.334 108.167 L 84.168 108.167 84.126 130.333 L 84.083 152.498 83.302 149.708 C 82.872 148.173,82.414 146.467,82.283 145.917 C 82.152 145.367,81.591 143.304,81.037 141.333 C 80.483 139.362,79.454 135.650,78.752 133.083 C 78.049 130.517,77.020 126.804,76.463 124.833 C 75.907 122.862,75.275 120.517,75.059 119.622 C 74.842 118.726,74.243 116.551,73.727 114.788 C 73.211 113.026,72.720 111.283,72.635 110.917 C 72.551 110.550,72.366 109.781,72.223 109.208 L 71.963 108.167 60.981 108.167 L 50.000 108.167 50.000 145.000 M172.589 108.708 C 172.490 109.220,171.497 113.304,168.830 124.167 C 168.188 126.779,167.624 129.179,167.576 129.500 C 167.528 129.821,167.184 131.283,166.813 132.750 C 166.441 134.217,165.920 136.275,165.655 137.325 C 165.390 138.374,165.129 139.526,165.076 139.884 C 165.022 140.243,164.454 142.598,163.813 145.118 C 163.171 147.638,162.617 149.936,162.582 150.225 C 162.546 150.514,161.942 153.075,161.239 155.917 C 158.640 166.427,157.669 170.431,157.581 171.000 C 157.531 171.321,156.962 173.678,156.316 176.238 C 155.671 178.798,155.117 181.104,155.084 181.363 L 155.024 181.833 165.236 181.833 L 175.449 181.833 175.818 179.542 C 176.251 176.860,177.291 170.363,177.432 169.458 L 177.529 168.833 185.015 168.833 C 192.029 168.833,192.501 168.852,192.510 169.125 C 192.515 169.285,192.547 169.679,192.582 170.000 C 192.654 170.669,194.296 180.892,194.423 181.458 L 194.506 181.833 204.838 181.833 L 215.171 181.833 215.068 181.125 C 215.011 180.735,214.597 178.992,214.146 177.250 C 213.696 175.508,213.134 173.258,212.897 172.250 C 212.660 171.242,211.920 168.204,211.252 165.500 C 210.584 162.796,209.952 160.171,209.848 159.667 C 209.744 159.162,209.185 156.875,208.607 154.583 C 208.028 152.292,206.972 148.017,206.260 145.083 C 205.547 142.150,204.419 137.537,203.753 134.833 C 203.086 132.129,202.338 129.054,202.091 128.000 C 201.843 126.946,201.280 124.658,200.840 122.917 C 199.441 117.381,197.507 109.439,197.400 108.792 L 197.296 108.167 184.995 108.167 L 172.693 108.167 172.589 108.708 M185.137 124.702 C 185.183 125.311,185.317 126.094,186.582 133.167 C 187.082 135.962,187.527 138.625,187.571 139.083 C 187.614 139.542,188.110 142.467,188.672 145.583 C 189.980 152.839,190.123 153.714,190.040 153.962 C 189.989 154.118,188.762 154.167,184.927 154.167 L 179.882 154.167 179.958 153.292 C 179.999 152.810,180.519 149.717,181.112 146.417 C 181.705 143.117,182.294 139.629,182.422 138.667 C 182.549 137.704,183.032 134.817,183.495 132.250 C 183.958 129.683,184.463 126.815,184.618 125.875 C 184.907 124.120,185.065 123.763,185.137 124.702 " stroke="none" fill="#ec341c" fill-rule="evenodd"></path><path id="path1" d="M258.250 108.033 C 256.787 108.541,255.879 110.176,256.045 112.005 C 256.200 113.716,256.839 114.350,259.406 115.341 C 262.290 116.455,263.076 118.231,261.240 119.485 C 259.583 120.616,257.671 119.487,257.668 117.375 L 257.667 116.833 256.750 116.833 L 255.833 116.833 255.838 117.708 C 255.846 118.923,256.425 120.258,257.224 120.901 C 258.215 121.699,261.417 121.694,262.525 120.893 C 265.136 119.007,264.484 114.976,261.425 114.092 C 259.046 113.403,257.999 112.550,258.001 111.300 C 258.003 108.949,261.397 108.669,261.768 110.989 L 261.876 111.667 262.771 111.667 L 263.667 111.667 263.659 110.958 C 263.634 108.593,260.899 107.114,258.250 108.033 M342.256 108.176 C 340.252 109.176,339.920 110.097,339.918 114.667 C 339.916 119.134,340.397 120.475,342.286 121.273 C 344.127 122.051,347.500 120.937,347.500 119.552 C 347.500 119.460,347.607 119.167,347.738 118.901 C 348.831 116.676,348.335 110.507,346.943 109.021 C 345.835 107.839,343.704 107.454,342.256 108.176 M201.876 108.208 C 201.919 108.323,202.082 109.017,202.237 109.750 C 202.392 110.483,203.079 113.446,203.762 116.333 C 205.688 124.467,208.540 136.535,211.226 147.917 C 213.878 159.157,214.883 163.256,215.022 163.408 C 215.104 163.498,215.167 151.486,215.167 135.783 L 215.167 108.000 208.482 108.000 C 203.204 108.000,201.814 108.044,201.876 108.208 M227.833 144.917 L 227.833 181.833 228.750 181.833 L 229.667 181.833 229.667 144.917 L 229.667 108.000 228.750 108.000 L 227.833 108.000 227.833 144.917 M242.500 114.667 L 242.500 121.350 243.458 121.300 L 244.417 121.250 244.417 114.667 L 244.417 108.083 243.458 108.033 L 242.500 107.983 242.500 114.667 M246.167 114.667 L 246.167 121.333 247.081 121.333 L 247.995 121.333 248.039 116.389 L 248.083 111.444 249.125 114.032 C 249.698 115.456,250.167 116.674,250.167 116.740 C 250.167 116.806,250.591 117.867,251.110 119.097 L 252.054 121.333 253.277 121.333 L 254.500 121.333 254.500 114.658 L 254.500 107.983 253.542 108.033 L 252.583 108.083 252.536 112.917 L 252.488 117.750 251.491 115.427 C 250.942 114.149,250.231 112.374,249.910 111.483 C 249.590 110.591,249.142 109.442,248.916 108.930 L 248.504 108.000 247.335 108.000 L 246.167 108.000 246.167 114.667 M264.667 108.833 L 264.667 109.667 266.250 109.667 L 267.833 109.667 267.833 115.500 L 267.833 121.333 268.833 121.333 L 269.833 121.333 269.833 115.500 L 269.833 109.667 271.417 109.667 L 273.000 109.667 273.000 108.833 L 273.000 108.000 268.833 108.000 L 264.667 108.000 264.667 108.833 M274.000 114.667 L 274.000 121.333 275.000 121.333 L 276.000 121.333 276.000 114.667 L 276.000 108.000 275.000 108.000 L 274.000 108.000 274.000 114.667 M277.000 108.833 L 277.000 109.667 278.583 109.667 L 280.167 109.667 280.167 115.500 L 280.167 121.333 281.167 121.333 L 282.167 121.333 282.167 115.500 L 282.167 109.667 283.750 109.667 L 285.333 109.667 285.333 108.833 L 285.333 108.000 281.167 108.000 L 277.000 108.000 277.000 108.833 M286.369 113.375 C 286.432 119.044,286.447 119.161,287.267 120.353 C 288.176 121.674,291.403 121.999,292.777 120.908 C 294.177 119.796,294.244 119.466,294.298 113.375 L 294.346 108.000 293.434 108.000 L 292.521 108.000 292.469 113.292 C 292.430 117.203,292.361 118.681,292.203 118.957 C 291.701 119.836,290.026 120.165,289.195 119.548 C 288.358 118.927,288.338 118.783,288.336 113.208 L 288.333 108.000 287.321 108.000 L 286.309 108.000 286.369 113.375 M295.278 108.111 C 295.217 108.172,295.167 108.547,295.167 108.944 L 295.167 109.667 296.833 109.667 L 298.500 109.667 298.500 115.500 L 298.500 121.333 299.417 121.333 L 300.333 121.333 300.333 115.500 L 300.333 109.667 302.000 109.667 L 303.667 109.667 303.667 108.833 L 303.667 108.000 299.528 108.000 C 297.251 108.000,295.339 108.050,295.278 108.111 M309.000 114.667 L 309.000 121.333 309.914 121.333 L 310.828 121.333 310.872 116.494 L 310.917 111.654 311.710 113.535 C 312.146 114.570,312.503 115.492,312.502 115.583 C 312.502 115.675,313.014 116.987,313.640 118.500 L 314.778 121.250 316.056 121.299 L 317.333 121.347 317.333 114.674 L 317.333 108.000 316.333 108.000 L 315.333 108.000 315.324 113.125 L 315.314 118.250 314.931 117.167 C 314.721 116.571,314.119 115.071,313.594 113.833 C 313.069 112.596,312.581 111.358,312.509 111.083 C 312.438 110.808,312.134 110.002,311.833 109.292 L 311.287 108.000 310.144 108.000 L 309.000 108.000 309.000 114.667 M321.924 108.201 C 321.485 109.525,320.441 113.053,320.159 114.167 C 319.846 115.397,319.218 117.546,318.403 120.167 C 318.045 121.318,318.055 121.333,319.126 121.333 L 320.085 121.333 320.587 119.542 L 321.088 117.750 323.003 117.704 L 324.917 117.658 325.233 118.954 C 325.874 121.574,325.710 121.333,326.852 121.333 C 327.730 121.333,327.845 121.297,327.768 121.042 C 327.719 120.881,327.568 120.203,327.431 119.535 C 327.294 118.866,326.702 116.616,326.115 114.535 C 325.528 112.453,324.903 110.150,324.726 109.417 L 324.404 108.083 323.200 108.034 C 322.327 107.999,321.975 108.045,321.924 108.201 M326.833 108.833 L 326.833 109.667 328.417 109.667 L 330.000 109.667 330.000 115.500 L 330.000 121.333 331.000 121.333 L 332.000 121.333 332.000 115.500 L 332.000 109.667 333.583 109.667 L 335.167 109.667 335.167 108.833 L 335.167 108.000 331.000 108.000 L 326.833 108.000 326.833 108.833 M336.167 114.667 L 336.167 121.333 337.083 121.333 L 338.000 121.333 338.000 114.667 L 338.000 108.000 337.083 108.000 L 336.167 108.000 336.167 114.667 M350.000 114.659 L 350.000 121.333 350.917 121.333 L 351.833 121.333 351.846 116.375 L 351.858 111.417 352.167 112.083 C 352.336 112.450,352.481 112.863,352.488 113.001 C 352.494 113.140,353.062 114.602,353.749 116.251 C 354.436 117.901,354.999 119.303,354.999 119.369 C 355.000 119.434,355.155 119.903,355.345 120.410 L 355.691 121.333 356.929 121.333 L 358.167 121.333 358.167 114.667 L 358.167 108.000 357.250 108.000 L 356.333 108.000 356.332 113.042 L 356.330 118.083 355.903 117.167 C 355.668 116.662,355.331 115.818,355.153 115.291 C 354.784 114.197,354.130 112.555,353.244 110.500 C 352.908 109.721,352.581 108.858,352.518 108.583 C 352.406 108.091,352.386 108.083,351.202 108.034 L 350.000 107.985 350.000 114.659 M362.677 108.792 C 362.252 110.479,362.004 111.364,361.030 114.667 C 359.853 118.657,359.167 121.071,359.167 121.224 C 359.167 121.284,359.605 121.333,360.140 121.333 L 361.114 121.333 361.294 120.708 C 361.394 120.365,361.634 119.540,361.828 118.875 L 362.181 117.667 364.053 117.667 L 365.925 117.667 366.402 119.500 L 366.878 121.333 367.856 121.333 C 369.020 121.333,368.993 121.544,368.196 118.695 C 367.845 117.442,367.432 115.892,367.277 115.250 C 367.123 114.608,366.610 112.715,366.137 111.042 L 365.277 108.000 364.077 108.000 L 362.877 108.000 362.677 108.792 M369.833 114.667 L 369.833 121.333 373.417 121.333 L 377.000 121.333 377.000 120.417 L 377.000 119.500 374.333 119.500 L 371.667 119.500 371.667 113.750 L 371.667 108.000 370.750 108.000 L 369.833 108.000 369.833 114.667 M345.357 110.008 C 346.801 111.714,346.615 118.595,345.098 119.589 C 342.840 121.069,341.276 118.010,341.785 113.107 C 342.139 109.693,343.842 108.216,345.357 110.008 M364.548 112.292 C 364.780 113.185,365.047 114.292,365.140 114.750 C 365.233 115.208,365.361 115.715,365.423 115.875 C 365.525 116.140,365.394 116.167,363.998 116.167 C 362.616 116.167,362.469 116.137,362.538 115.875 C 362.682 115.327,364.083 110.670,364.105 110.668 C 364.117 110.667,364.316 111.398,364.548 112.292 M323.986 113.932 C 324.269 114.949,324.500 115.868,324.500 115.974 C 324.500 116.105,324.029 116.167,323.020 116.167 L 321.540 116.167 322.035 114.375 C 322.307 113.390,322.646 112.171,322.789 111.667 L 323.049 110.750 323.261 111.417 C 323.378 111.783,323.704 112.915,323.986 113.932 M262.874 128.249 C 259.505 129.713,259.916 134.032,263.548 135.330 C 266.232 136.289,266.993 136.997,266.752 138.308 C 266.284 140.858,262.602 140.616,262.466 138.026 L 262.417 137.083 261.458 137.033 L 260.500 136.983 260.500 137.799 C 260.500 140.349,261.848 141.667,264.456 141.667 C 267.257 141.667,268.688 140.351,268.688 137.774 C 268.688 135.568,267.861 134.712,264.875 133.824 C 263.352 133.371,262.621 132.618,262.621 131.500 C 262.621 129.116,266.064 128.840,266.440 131.194 L 266.543 131.833 267.438 131.833 C 268.454 131.833,268.565 131.561,268.133 130.121 C 267.601 128.344,264.881 127.377,262.874 128.249 M276.257 128.265 C 273.153 129.401,273.406 133.843,276.651 135.178 C 280.121 136.605,280.366 136.840,280.106 138.494 C 279.697 141.093,275.833 140.349,275.833 137.672 L 275.833 137.000 274.917 137.000 L 274.000 137.000 274.000 137.887 C 274.000 140.398,275.289 141.658,277.867 141.665 C 280.820 141.672,282.282 140.227,282.141 137.439 C 282.045 135.532,281.058 134.554,278.581 133.909 C 276.751 133.432,275.815 132.306,276.166 131.003 C 276.714 128.966,279.567 129.098,279.918 131.176 L 280.029 131.833 280.931 131.833 C 281.951 131.833,282.032 131.655,281.650 130.250 C 281.146 128.397,278.528 127.433,276.257 128.265 M285.907 128.304 C 284.006 129.196,283.413 130.816,283.425 135.083 C 283.436 139.247,284.092 140.835,286.039 141.413 C 289.133 142.332,291.667 140.530,291.667 137.410 L 291.667 136.667 290.775 136.667 L 289.883 136.667 289.699 137.774 C 289.215 140.697,286.282 140.913,285.523 138.082 C 284.980 136.058,285.172 132.054,285.873 130.773 C 286.974 128.760,289.667 129.537,289.667 131.869 C 289.667 132.326,289.682 132.333,290.682 132.333 L 291.698 132.333 291.586 131.458 C 291.231 128.680,288.427 127.122,285.907 128.304 M317.580 128.312 C 315.585 129.218,315.097 130.497,315.089 134.833 C 315.081 139.337,315.666 140.807,317.707 141.413 C 320.765 142.321,322.952 140.811,323.288 137.561 L 323.380 136.667 322.357 136.667 L 321.333 136.667 321.332 137.292 C 321.329 139.742,319.217 140.986,317.788 139.381 C 316.715 138.176,316.765 131.387,317.855 130.227 C 319.051 128.954,320.770 129.581,321.187 131.442 L 321.386 132.333 322.300 132.333 L 323.213 132.333 323.125 131.363 C 322.876 128.618,320.176 127.132,317.580 128.312 M334.833 128.347 C 331.424 129.893,332.078 134.184,335.914 135.439 C 338.767 136.373,339.623 137.792,338.249 139.312 C 336.855 140.855,334.831 140.137,334.585 138.011 L 334.467 137.000 333.562 137.000 C 332.457 137.000,332.388 137.122,332.638 138.633 C 332.979 140.688,333.834 141.425,336.106 141.621 C 338.941 141.866,340.562 140.668,340.790 138.160 C 340.980 136.059,339.363 134.000,337.522 134.000 C 336.042 134.000,334.697 132.523,334.887 131.106 C 335.182 128.907,338.496 129.154,338.499 131.375 C 338.500 131.825,338.519 131.833,339.515 131.833 L 340.529 131.833 340.420 131.125 C 340.068 128.855,339.015 127.998,336.583 128.005 C 335.938 128.006,335.317 128.128,334.833 128.347 M242.625 128.258 C 242.556 128.330,242.500 131.301,242.500 134.861 L 242.500 141.333 245.261 141.333 C 246.971 141.333,248.160 141.262,248.386 141.147 C 251.737 139.428,251.910 130.219,248.620 128.742 C 247.597 128.283,242.959 127.909,242.625 128.258 M252.611 128.278 C 252.550 128.339,252.500 131.301,252.500 134.861 L 252.500 141.333 256.176 141.333 L 259.852 141.333 259.801 140.542 L 259.750 139.750 257.125 139.704 L 254.500 139.658 254.500 137.584 L 254.500 135.509 256.875 135.463 L 259.250 135.417 259.301 134.625 L 259.352 133.833 256.926 133.833 L 254.500 133.833 254.500 131.921 L 254.500 130.009 256.958 129.963 L 259.417 129.917 259.467 129.042 L 259.517 128.167 256.120 128.167 C 254.251 128.167,252.672 128.217,252.611 128.278 M292.944 128.278 C 292.883 128.339,292.833 131.301,292.833 134.861 L 292.833 141.333 293.833 141.333 L 294.833 141.333 294.833 134.750 L 294.833 128.167 293.944 128.167 C 293.456 128.167,293.006 128.217,292.944 128.278 M296.667 134.750 L 296.667 141.333 300.250 141.333 L 303.833 141.333 303.833 140.500 L 303.833 139.667 301.167 139.667 L 298.500 139.667 298.500 137.583 L 298.500 135.500 300.917 135.500 L 303.333 135.500 303.333 134.667 L 303.333 133.833 300.917 133.833 L 298.500 133.833 298.500 131.921 L 298.500 130.009 301.042 129.963 L 303.583 129.917 303.634 129.042 L 303.684 128.167 300.175 128.167 L 296.667 128.167 296.667 134.750 M305.111 128.278 C 305.050 128.339,305.000 131.301,305.000 134.861 L 305.000 141.333 305.997 141.333 L 306.995 141.333 307.039 136.458 C 307.079 132.025,307.104 131.651,307.313 132.333 C 307.439 132.746,308.089 134.433,308.756 136.083 C 309.423 137.733,310.061 139.383,310.174 139.750 C 310.645 141.287,310.701 141.333,312.088 141.333 L 313.333 141.333 313.333 134.750 L 313.333 128.167 312.417 128.167 L 311.500 128.167 311.492 133.208 L 311.485 138.250 310.982 137.167 C 310.705 136.571,310.327 135.633,310.142 135.083 C 309.806 134.089,308.347 130.470,307.671 128.958 L 307.318 128.167 306.270 128.167 C 305.694 128.167,305.172 128.217,305.111 128.278 M324.667 134.750 L 324.667 141.333 328.250 141.333 L 331.833 141.333 331.833 140.500 L 331.833 139.667 329.167 139.667 L 326.500 139.667 326.500 137.583 L 326.500 135.500 328.917 135.500 L 331.333 135.500 331.333 134.667 L 331.333 133.833 328.917 133.833 L 326.500 133.833 326.500 131.921 L 326.500 130.009 329.042 129.963 L 331.583 129.917 331.634 129.042 L 331.684 128.167 328.175 128.167 L 324.667 128.167 324.667 134.750 M247.924 130.712 C 248.810 131.690,249.098 133.042,248.948 135.500 C 248.753 138.673,247.854 139.833,245.589 139.833 L 244.667 139.833 244.667 134.815 L 244.667 129.797 245.939 129.861 L 247.212 129.925 247.924 130.712 M304.002 146.496 C 303.187 148.117,303.182 148.000,304.061 148.000 C 304.717 148.000,304.830 147.938,305.205 147.375 C 305.433 147.031,305.891 146.450,306.223 146.083 C 307.023 145.198,307.007 145.167,305.752 145.167 L 304.670 145.167 304.002 146.496 M284.127 148.323 C 282.109 148.974,281.175 151.057,281.171 154.917 C 281.165 160.352,283.362 162.874,286.998 161.606 L 287.746 161.345 288.272 161.855 C 288.883 162.447,289.247 162.431,289.726 161.788 L 290.071 161.326 289.477 160.733 L 288.884 160.140 289.310 159.028 C 290.186 156.744,289.881 151.443,288.781 149.810 C 287.892 148.491,285.739 147.803,284.127 148.323 M319.760 148.405 C 318.324 148.939,317.685 149.779,317.546 151.318 C 317.328 153.722,318.313 154.877,321.464 155.909 C 323.490 156.573,324.133 158.002,323.056 159.453 C 321.850 161.078,319.539 160.305,319.366 158.220 L 319.292 157.333 318.312 157.333 L 317.331 157.333 317.439 158.542 C 317.646 160.868,318.791 161.833,321.343 161.833 C 324.126 161.833,325.500 160.503,325.500 157.809 C 325.500 155.778,324.586 154.817,321.878 154.000 C 320.040 153.445,319.306 152.596,319.561 151.319 C 320.021 149.021,323.333 149.373,323.333 151.719 C 323.333 151.949,323.503 152.000,324.266 152.000 L 325.199 152.000 325.087 150.958 C 324.849 148.740,322.233 147.487,319.760 148.405 M243.952 152.125 C 243.344 154.119,242.757 156.125,242.649 156.583 C 242.540 157.042,242.241 158.129,241.984 159.000 C 241.727 159.871,241.467 160.790,241.407 161.042 L 241.297 161.500 242.287 161.500 L 243.276 161.500 243.743 159.828 L 244.210 158.156 246.146 158.203 L 248.082 158.250 248.500 159.833 L 248.918 161.417 249.941 161.466 L 250.964 161.515 250.561 160.132 C 250.339 159.372,250.099 158.412,250.027 157.999 C 249.955 157.586,249.339 155.279,248.659 152.874 L 247.422 148.500 246.240 148.500 L 245.058 148.500 243.952 152.125 M251.833 155.000 L 251.833 161.500 252.833 161.500 L 253.833 161.500 253.833 158.833 L 253.833 156.167 255.281 156.167 C 258.082 156.167,259.500 154.811,259.500 152.131 C 259.500 149.269,258.399 148.500,254.304 148.500 L 251.833 148.500 251.833 155.000 M260.667 155.000 L 260.667 161.500 261.583 161.500 L 262.500 161.500 262.500 158.833 L 262.500 156.167 263.958 156.159 C 266.961 156.144,268.161 155.001,268.165 152.155 C 268.169 149.185,267.269 148.524,263.208 148.509 L 260.667 148.500 260.667 155.000 M269.500 155.000 L 269.500 161.500 273.083 161.500 L 276.667 161.500 276.667 160.667 L 276.667 159.833 274.000 159.833 L 271.333 159.833 271.333 154.167 L 271.333 148.500 270.417 148.500 L 269.500 148.500 269.500 155.000 M277.667 155.000 L 277.667 161.500 278.667 161.500 L 279.667 161.500 279.667 155.000 L 279.667 148.500 278.667 148.500 L 277.667 148.500 277.667 155.000 M291.333 153.729 C 291.333 160.945,291.753 161.836,295.155 161.832 C 298.656 161.829,299.167 160.770,299.167 153.510 L 299.167 148.500 298.257 148.500 L 297.347 148.500 297.298 153.738 C 297.252 158.751,297.235 158.996,296.902 159.446 C 296.065 160.575,294.339 160.523,293.544 159.344 C 293.172 158.792,293.167 158.709,293.167 153.642 L 293.167 148.500 292.250 148.500 L 291.333 148.500 291.333 153.729 M300.833 155.000 L 300.833 161.500 304.500 161.500 L 308.167 161.500 308.167 160.667 L 308.167 159.833 305.500 159.833 L 302.833 159.833 302.833 157.750 L 302.833 155.667 305.167 155.667 L 307.500 155.667 307.500 154.750 L 307.500 153.833 305.167 153.833 L 302.833 153.833 302.833 152.000 L 302.833 150.167 305.333 150.167 L 307.833 150.167 307.833 149.333 L 307.833 148.500 304.333 148.500 L 300.833 148.500 300.833 155.000 M309.333 155.000 L 309.333 161.500 313.009 161.500 L 316.685 161.500 316.634 160.708 L 316.583 159.917 313.875 159.871 L 311.167 159.825 311.167 157.746 L 311.167 155.667 313.583 155.667 L 316.000 155.667 316.000 154.750 L 316.000 153.833 313.583 153.833 L 311.167 153.833 311.167 152.000 L 311.167 150.167 313.750 150.167 L 316.333 150.167 316.333 149.333 L 316.333 148.500 312.833 148.500 L 309.333 148.500 309.333 155.000 M286.546 150.063 C 287.473 150.629,287.913 153.253,287.652 156.667 C 287.586 157.537,287.524 158.396,287.516 158.574 C 287.502 158.854,287.419 158.820,286.914 158.330 L 286.327 157.762 285.705 158.391 L 285.083 159.021 285.742 159.580 L 286.400 160.139 285.803 160.251 C 283.795 160.628,282.775 157.935,283.176 153.316 C 283.433 150.353,284.823 149.012,286.546 150.063 M256.411 150.237 C 257.110 150.529,257.500 151.244,257.500 152.234 C 257.500 153.764,256.640 154.500,254.852 154.500 L 253.833 154.500 253.833 152.250 L 253.833 150.000 254.839 150.000 C 255.392 150.000,256.099 150.107,256.411 150.237 M265.557 150.548 C 267.255 152.149,266.116 154.500,263.642 154.500 L 262.500 154.500 262.500 152.250 L 262.500 150.000 263.738 150.000 C 264.909 150.000,265.008 150.030,265.557 150.548 M246.896 153.436 C 247.745 156.507,247.792 156.333,246.106 156.333 L 244.713 156.333 244.878 155.625 C 245.094 154.699,246.023 151.456,246.123 151.281 C 246.241 151.073,246.251 151.101,246.896 153.436 M296.954 168.582 C 295.253 169.050,294.615 170.020,294.595 172.167 C 294.574 174.385,295.353 175.558,297.250 176.165 C 299.142 176.771,300.000 177.456,300.000 178.362 C 300.000 180.191,297.871 180.111,297.595 178.272 L 297.480 177.500 295.990 177.500 L 294.500 177.500 294.500 178.548 C 294.500 181.331,297.278 182.767,300.724 181.765 C 304.674 180.616,304.255 175.141,300.112 173.763 C 298.005 173.062,297.092 171.705,298.204 170.926 C 299.008 170.363,300.000 170.969,300.000 172.022 L 300.000 172.500 301.606 172.500 L 303.213 172.500 303.103 171.571 C 302.785 168.863,300.308 167.659,296.954 168.582 M242.500 175.250 L 242.500 181.833 244.083 181.833 L 245.667 181.833 245.667 179.083 L 245.667 176.333 246.333 176.333 C 246.949 176.333,247.651 176.748,247.674 177.125 C 248.005 182.397,247.725 181.833,250.010 181.833 C 251.908 181.833,252.108 181.747,251.573 181.155 C 251.382 180.944,251.277 180.288,251.181 178.703 C 251.041 176.399,250.774 175.662,249.989 175.413 C 249.682 175.316,249.709 175.253,250.312 174.668 C 251.793 173.230,251.542 170.188,249.848 169.047 C 249.307 168.682,249.147 168.667,245.892 168.667 L 242.500 168.667 242.500 175.250 M253.167 175.250 L 253.167 181.833 257.167 181.833 L 261.167 181.833 261.167 180.417 L 261.167 179.000 258.917 179.000 L 256.667 179.000 256.667 177.667 L 256.667 176.333 258.667 176.333 L 260.667 176.333 260.667 175.000 L 260.667 173.667 258.667 173.667 L 256.667 173.667 256.667 172.417 L 256.667 171.167 258.833 171.167 L 261.000 171.167 261.000 169.917 L 261.000 168.667 257.083 168.667 L 253.167 168.667 253.167 175.250 M262.706 175.208 L 262.750 181.750 264.292 181.798 L 265.833 181.846 265.847 177.965 L 265.860 174.083 266.677 176.583 C 267.127 177.958,267.496 179.184,267.497 179.307 C 267.499 179.431,267.657 180.049,267.850 180.682 L 268.199 181.833 270.100 181.833 L 272.000 181.833 272.000 175.250 L 272.000 168.667 270.417 168.667 L 268.833 168.667 268.824 172.292 L 268.814 175.917 268.160 173.917 C 267.801 172.817,267.505 171.808,267.503 171.675 C 267.501 171.542,267.310 170.811,267.078 170.050 L 266.656 168.667 264.659 168.667 L 262.663 168.667 262.706 175.208 M274.000 175.250 L 274.000 181.833 275.497 181.833 L 276.994 181.833 277.039 177.792 L 277.083 173.750 277.452 175.250 C 277.654 176.075,278.183 177.875,278.627 179.250 L 279.435 181.750 281.301 181.797 L 283.167 181.844 283.167 175.255 L 283.167 168.667 281.583 168.667 L 280.000 168.667 279.990 172.208 L 279.981 175.750 278.870 172.208 L 277.759 168.667 275.880 168.667 L 274.000 168.667 274.000 175.250 M285.040 175.208 L 285.083 181.750 289.125 181.795 L 293.167 181.839 293.167 180.420 L 293.167 179.000 290.833 179.000 L 288.500 179.000 288.500 177.667 L 288.500 176.333 290.583 176.333 L 292.667 176.333 292.667 175.000 L 292.667 173.667 290.583 173.667 L 288.500 173.667 288.500 172.417 L 288.500 171.167 290.667 171.167 L 292.833 171.167 292.833 169.917 L 292.833 168.667 288.915 168.667 L 284.996 168.667 285.040 175.208 M247.552 171.319 C 248.373 172.139,247.689 173.776,246.458 173.940 L 245.667 174.045 245.667 172.499 L 245.667 170.954 246.529 171.056 C 247.003 171.112,247.464 171.230,247.552 171.319 " stroke="none" fill="#5c6364" fill-rule="evenodd"></path><path id="path2" d="" stroke="none" fill="#f04c40" fill-rule="evenodd"></path><path id="path3" d="" stroke="none" fill="#f04c40" fill-rule="evenodd"></path><path id="path4" d="" stroke="none" fill="#f04c40" fill-rule="evenodd"></path></g></svg>