<?xml version="1.0" standalone="no"?>
<!DOCTYPE svg PUBLIC "-//W3C//DTD SVG 20010904//EN"
 "http://www.w3.org/TR/2001/REC-SVG-20010904/DTD/svg10.dtd">
<svg version="1.0" xmlns="http://www.w3.org/2000/svg"
 width="1200.000000pt" height="355.000000pt" viewBox="0 0 1200.000000 355.000000"
 preserveAspectRatio="xMidYMid meet">

<g transform="translate(0.000000,355.000000) scale(0.100000,-0.100000)"
fill="#000000" stroke="none">
<path d="M3720 2915 c-280 -44 -455 -202 -515 -465 -37 -161 -20 -390 37 -508
76 -159 197 -252 475 -365 297 -122 373 -191 373 -340 0 -137 -66 -217 -180
-217 -128 0 -200 92 -200 257 l0 53 -275 0 -275 0 0 -103 c0 -312 144 -496
439 -560 141 -30 444 -30 586 1 208 45 357 147 429 294 56 114 70 182 70 343
0 204 -31 305 -135 434 -82 100 -196 171 -429 266 -286 116 -380 199 -380 335
0 80 40 154 101 185 15 8 53 15 83 15 44 0 60 -5 86 -26 48 -41 71 -97 77
-186 l6 -78 270 0 270 0 -8 92 c-14 188 -64 317 -160 414 -66 66 -151 114
-250 139 -139 36 -342 44 -495 20z"/>
<path d="M730 1780 l0 -1110 288 2 287 3 0 1105 0 1105 -287 3 -288 2 0 -1110z"/>
<path d="M1470 1780 l0 -1110 270 0 270 0 0 687 c0 377 3 683 6 680 4 -4 93
-312 198 -684 l192 -678 317 -3 317 -2 0 1110 0 1110 -270 0 -270 0 0 -687 c0
-377 -3 -683 -7 -680 -3 4 -90 312 -192 684 l-186 678 -323 3 -322 2 0 -1110z"/>
<path d="M5162 2848 c-30 -117 -522 -2167 -522 -2172 0 -3 135 -6 300 -6 l299
0 6 33 c3 17 14 91 25 162 11 72 22 145 25 162 l6 33 233 0 233 0 18 -118 c10
-64 23 -151 29 -192 l12 -75 308 -3 c245 -2 307 0 304 10 -3 7 -126 507 -274
1111 l-268 1097 -362 0 -362 0 -10 -42z m453 -858 c41 -245 78 -457 81 -472
l6 -28 -166 0 c-91 0 -166 3 -166 7 0 10 149 893 156 922 3 13 7 22 9 19 2 -2
38 -204 80 -448z"/>
<path d="M6054 2873 c3 -10 89 -371 191 -803 102 -432 187 -789 189 -795 3 -5
5 356 5 803 l1 812 -196 0 c-181 0 -195 -1 -190 -17z"/>
<path d="M6840 1786 c0 -1100 0 -1106 20 -1106 20 0 20 5 18 1102 -3 1041 -4
1103 -20 1106 -17 3 -18 -55 -18 -1102z"/>
<path d="M7280 2695 c0 -188 1 -195 20 -195 19 0 20 7 20 195 0 188 -1 195
-20 195 -19 0 -20 -7 -20 -195z"/>
<path d="M7390 2695 c0 -188 1 -195 20 -195 19 0 20 7 20 157 0 88 4 153 9
148 4 -6 34 -76 66 -157 56 -142 60 -148 87 -148 l28 0 0 195 c0 188 -1 195
-20 195 -18 0 -20 -8 -22 -162 l-3 -163 -64 163 c-62 156 -66 162 -93 162
l-28 0 0 -195z"/>
<path d="M7715 2865 c-20 -19 -25 -34 -25 -73 0 -59 19 -83 87 -108 63 -23 93
-50 93 -86 0 -39 -32 -68 -74 -68 -40 0 -65 21 -73 61 -4 20 -11 29 -26 29
-17 0 -19 -5 -14 -36 12 -70 74 -104 151 -83 48 13 76 52 76 103 0 57 -21 81
-91 107 -86 32 -114 84 -69 129 37 37 110 15 110 -33 0 -10 8 -17 20 -17 29 0
26 45 -5 75 -20 21 -34 25 -80 25 -46 0 -60 -4 -80 -25z"/>
<path d="M7940 2870 c0 -17 7 -20 50 -20 l50 0 0 -175 c0 -168 1 -175 20 -175
19 0 20 8 22 173 l3 172 48 3 c39 3 47 6 47 23 0 18 -8 19 -120 19 -113 0
-120 -1 -120 -20z"/>
<path d="M8230 2695 c0 -188 1 -195 20 -195 19 0 20 7 20 195 0 188 -1 195
-20 195 -19 0 -20 -7 -20 -195z"/>
<path d="M8320 2870 c0 -17 7 -20 50 -20 l50 0 0 -175 c0 -168 1 -175 20 -175
19 0 20 7 20 175 l0 175 50 0 c43 0 50 3 50 20 0 19 -7 20 -120 20 -113 0
-120 -1 -120 -20z"/>
<path d="M8600 2738 c0 -126 3 -159 18 -188 33 -67 146 -75 188 -12 16 23 19
52 22 190 l4 162 -26 0 -26 0 0 -163 c0 -146 -2 -166 -18 -180 -20 -18 -68
-22 -90 -9 -23 15 -32 75 -32 214 0 131 -1 138 -20 138 -19 0 -20 -7 -20 -152z"/>
<path d="M8870 2870 c0 -17 7 -20 50 -20 l50 0 0 -175 c0 -168 1 -175 20 -175
19 0 20 7 20 175 l0 175 50 0 c43 0 50 3 50 20 0 19 -7 20 -120 20 -113 0
-120 -1 -120 -20z"/>
<path d="M9280 2696 l0 -196 25 0 25 0 0 158 1 157 62 -155 c62 -152 64 -155
95 -158 l32 -3 0 195 c0 189 -1 196 -20 196 -19 0 -20 -7 -20 -160 0 -88 -3
-160 -7 -160 -5 0 -35 71 -69 158 -60 154 -62 157 -92 160 l-32 3 0 -195z"/>
<path d="M9619 2695 c-55 -191 -56 -195 -34 -195 18 0 25 9 36 53 l14 52 66 3
66 3 12 -56 c11 -48 16 -55 36 -55 l23 0 -30 113 c-17 61 -40 148 -52 192 -20
76 -22 80 -51 83 l-31 3 -55 -196z m127 -17 l7 -38 -52 0 c-31 0 -51 4 -51 11
0 12 36 139 47 169 6 16 38 -78 49 -142z"/>
<path d="M9820 2870 c0 -17 7 -20 50 -20 l50 0 0 -175 c0 -168 1 -175 20 -175
19 0 20 7 20 175 l0 175 50 0 c43 0 50 3 50 20 0 19 -7 20 -120 20 -113 0
-120 -1 -120 -20z"/>
<path d="M10110 2695 c0 -188 1 -195 20 -195 19 0 20 7 20 195 0 188 -1 195
-20 195 -19 0 -20 -7 -20 -195z"/>
<path d="M10272 2874 c-44 -30 -57 -71 -57 -179 0 -148 34 -201 126 -199 68 2
104 51 115 156 9 88 -10 174 -46 210 -23 22 -38 28 -72 28 -24 0 -54 -7 -66
-16z m98 -24 c27 -15 40 -64 40 -159 0 -112 -19 -155 -71 -159 -59 -5 -73 21
-77 140 -4 113 0 140 28 168 22 22 51 25 80 10z"/>
<path d="M10520 2695 c0 -188 1 -195 20 -195 19 0 20 7 20 156 0 85 4 153 8
150 5 -3 35 -73 68 -156 l58 -150 33 0 33 0 0 195 0 195 -25 0 -25 0 -2 -162
-3 -162 -64 162 c-62 156 -65 162 -93 162 l-28 0 0 -195z"/>
<path d="M10910 2887 c0 -3 -96 -338 -105 -367 -6 -18 -4 -21 17 -18 18 2 26
13 37 56 l14 52 64 0 c42 0 65 -4 68 -12 2 -7 9 -32 15 -55 8 -32 16 -43 30
-43 11 0 20 4 20 10 0 8 -80 309 -96 363 -4 11 -15 17 -35 17 -16 0 -29 -1
-29 -3z m58 -144 c12 -49 22 -91 22 -95 0 -9 -94 -11 -102 -3 -6 6 44 185 52
185 3 0 15 -39 28 -87z"/>
<path d="M11120 2695 l0 -195 100 0 c93 0 100 1 100 20 0 18 -7 20 -80 20
l-80 0 0 175 c0 168 -1 175 -20 175 -19 0 -20 -7 -20 -195z"/>
<path d="M7900 2279 c-48 -10 -70 -41 -70 -98 0 -57 23 -83 92 -106 25 -9 55
-25 67 -36 45 -42 12 -119 -53 -119 -37 0 -61 21 -71 63 -5 18 -14 27 -27 27
-18 0 -19 -4 -14 -37 10 -57 45 -83 112 -83 48 0 60 4 85 29 24 25 29 38 29
78 0 59 -19 80 -94 108 -82 30 -106 72 -70 123 29 42 114 19 114 -31 0 -10 8
-17 20 -17 14 0 20 7 20 24 0 54 -67 90 -140 75z"/>
<path d="M8306 2279 c-41 -11 -65 -37 -72 -76 -10 -54 12 -92 70 -119 28 -13
56 -24 62 -24 21 0 47 -40 47 -72 0 -60 -80 -91 -123 -48 -11 11 -20 31 -20
45 0 18 -5 25 -20 25 -25 0 -27 -37 -5 -79 18 -35 32 -41 101 -41 45 0 59 5
79 24 30 30 39 65 31 111 -8 39 -28 56 -96 80 -60 21 -80 42 -80 81 0 44 24
66 69 62 30 -2 38 -9 50 -35 14 -31 51 -47 51 -23 0 25 -30 79 -47 83 -45 13
-70 14 -97 6z"/>
<path d="M8590 2277 c-52 -18 -73 -63 -78 -166 -7 -153 28 -221 113 -221 26 0
55 5 66 10 21 12 42 49 53 93 6 24 4 27 -19 27 -18 0 -25 -5 -25 -20 0 -78
-78 -108 -124 -47 -17 24 -20 42 -20 132 0 90 3 109 20 132 37 50 107 40 119
-17 5 -21 13 -30 26 -30 42 0 8 95 -39 106 -15 3 -34 7 -42 9 -8 2 -31 -2 -50
-8z"/>
<path d="M9556 2279 c-65 -18 -88 -68 -88 -194 0 -143 32 -195 121 -195 39 0
52 5 75 28 14 16 29 45 33 65 5 32 3 37 -14 37 -15 0 -22 -9 -27 -32 -17 -87
-112 -94 -136 -10 -13 48 -13 166 0 214 22 77 118 78 132 3 2 -12 13 -21 27
-23 22 -4 23 -1 17 30 -3 18 -15 41 -25 51 -23 24 -78 36 -115 26z"/>
<path d="M10082 2279 c-44 -9 -70 -35 -78 -76 -10 -54 12 -92 70 -119 28 -13
56 -24 62 -24 20 0 47 -40 47 -70 0 -41 -28 -70 -70 -70 -40 0 -73 30 -73 65
0 18 -5 25 -20 25 -25 0 -27 -37 -5 -79 18 -35 32 -41 100 -41 72 0 105 27
112 93 7 63 -12 90 -84 117 -74 27 -93 45 -93 85 0 42 28 67 72 63 26 -2 36
-10 48 -35 8 -18 23 -33 33 -33 39 0 2 86 -41 96 -15 3 -31 7 -37 8 -5 1 -25
-1 -43 -5z"/>
<path d="M7280 2084 l0 -197 80 5 c124 7 154 46 154 198 0 151 -34 190 -169
190 l-65 0 0 -196z m159 137 c26 -26 34 -73 29 -165 -4 -97 -27 -126 -100
-126 l-48 0 0 155 0 155 50 0 c36 0 55 -5 69 -19z"/>
<path d="M7580 2085 l0 -195 100 0 c93 0 100 1 100 20 0 18 -7 20 -80 20 l-81
0 3 73 3 72 73 3 c55 2 72 6 72 17 0 12 -16 15 -75 15 l-75 0 0 65 0 65 80 0
c73 0 80 2 80 20 0 19 -7 20 -100 20 l-100 0 0 -195z"/>
<path d="M8800 2085 c0 -188 1 -195 20 -195 19 0 20 7 20 195 0 188 -1 195
-20 195 -19 0 -20 -7 -20 -195z"/>
<path d="M8910 2085 l0 -195 105 0 c98 0 105 1 105 20 0 17 -8 19 -82 22 l-83
3 0 70 0 70 73 3 c54 2 72 6 72 17 0 11 -18 15 -72 17 l-73 3 0 60 0 60 78 3
c69 3 77 5 77 22 0 19 -7 20 -100 20 l-100 0 0 -195z"/>
<path d="M9170 2085 c0 -187 1 -195 20 -195 18 0 20 8 22 158 l3 157 64 -157
c61 -153 64 -158 92 -158 l29 0 0 195 c0 188 -1 195 -20 195 -19 0 -20 -7 -20
-161 0 -88 -3 -158 -7 -155 -5 2 -35 74 -68 160 -57 148 -61 156 -87 156 l-28
0 0 -195z"/>
<path d="M9760 2085 l0 -195 100 0 c93 0 100 1 100 20 0 18 -7 20 -80 20 l-80
0 0 75 0 75 70 0 c56 0 70 3 70 15 0 12 -14 15 -70 15 l-70 0 0 65 0 65 75 0
c68 0 75 2 75 20 0 19 -7 20 -95 20 l-95 0 0 -195z"/>
<path d="M9137 1735 c-13 -28 -14 -35 -3 -35 7 0 26 16 40 35 l27 35 -24 0
c-17 0 -28 -10 -40 -35z"/>
<path d="M8521 1668 c-13 -7 -32 -24 -43 -38 -38 -52 -45 -208 -13 -287 21
-50 55 -67 123 -60 44 5 60 2 74 -10 16 -14 18 -14 24 1 4 10 0 24 -8 33 -14
13 -14 21 -2 60 30 99 8 257 -40 288 -34 22 -87 28 -115 13z m93 -47 c31 -35
42 -173 19 -254 -4 -17 -6 -17 -22 -3 -25 23 -48 0 -25 -26 15 -16 15 -18 0
-24 -32 -12 -67 6 -83 43 -21 52 -15 218 10 256 21 33 74 37 101 8z"/>
<path d="M9615 1673 c-59 -14 -90 -90 -62 -148 13 -27 28 -38 76 -55 33 -12
68 -31 77 -41 25 -28 22 -78 -5 -101 -47 -38 -121 -9 -121 47 0 18 -5 25 -20
25 -40 0 -18 -89 27 -109 34 -15 99 -14 132 4 35 18 55 64 48 111 -8 48 -19
60 -85 84 -73 28 -92 45 -92 86 0 44 24 66 69 62 30 -2 38 -9 50 -35 9 -20 22
-33 33 -33 41 0 5 82 -43 99 -33 11 -50 12 -84 4z"/>
<path d="M7302 1493 c-28 -99 -54 -187 -58 -196 -5 -13 -1 -17 18 -17 22 0 26
7 38 55 l13 55 67 0 67 0 12 -55 c11 -47 16 -55 36 -55 l23 0 -29 108 c-80
299 -72 277 -106 280 l-30 3 -51 -178z m128 -55 c0 -15 -9 -18 -50 -18 -40 0
-50 3 -50 16 0 15 32 135 47 174 5 15 53 -139 53 -172z"/>
<path d="M7560 1476 c0 -189 1 -196 20 -196 18 0 20 7 20 84 l0 84 62 4 c81 6
108 34 108 112 0 44 -4 57 -26 77 -22 20 -38 24 -105 28 l-79 3 0 -196z m151
138 c28 -25 25 -79 -6 -110 -20 -20 -34 -25 -63 -22 l-37 3 -3 64 c-4 88 0 95
49 88 22 -3 49 -13 60 -23z"/>
<path d="M7830 1476 c0 -189 1 -196 20 -196 18 0 20 7 20 85 l0 85 45 0 c88 0
133 48 122 132 -9 65 -33 82 -127 86 l-80 4 0 -196z m125 154 c35 -13 49 -53
34 -97 -12 -37 -40 -53 -90 -53 l-29 0 0 80 0 80 29 0 c16 0 41 -4 56 -10z"/>
<path d="M8090 1475 l0 -195 100 0 c93 0 100 1 100 20 0 18 -7 20 -80 20 l-80
0 0 175 c0 168 -1 175 -20 175 -19 0 -20 -7 -20 -195z"/>
<path d="M8340 1475 c0 -188 1 -195 20 -195 19 0 20 7 20 195 0 188 -1 195
-20 195 -19 0 -20 -7 -20 -195z"/>
<path d="M8752 1499 l3 -171 28 -24 c43 -37 118 -34 158 5 l29 29 0 166 c0
159 -1 166 -20 166 -19 0 -20 -7 -20 -160 0 -147 -2 -162 -20 -180 -11 -11
-32 -20 -47 -20 -64 1 -73 28 -73 209 0 146 -1 151 -21 151 -20 0 -20 -4 -17
-171z"/>
<path d="M9040 1475 l0 -195 100 0 c93 0 100 1 100 20 0 18 -7 20 -80 20 l-81
0 3 73 3 72 73 3 c54 2 72 6 72 17 0 11 -18 15 -72 17 l-73 3 -3 63 -3 62 81
0 c73 0 80 2 80 20 0 19 -7 20 -100 20 l-100 0 0 -195z"/>
<path d="M9300 1475 l0 -195 100 0 c93 0 100 1 100 20 0 18 -7 20 -80 20 l-80
0 0 75 0 75 70 0 c56 0 70 3 70 15 0 12 -14 15 -70 15 l-70 0 0 65 0 65 75 0
c68 0 75 2 75 20 0 19 -7 20 -95 20 l-95 0 0 -195z"/>
<path d="M8925 1062 c-53 -18 -75 -50 -75 -110 0 -51 20 -76 95 -115 52 -28
60 -36 63 -64 2 -24 -2 -34 -17 -43 -29 -15 -61 3 -61 35 0 23 -4 25 -45 25
-50 0 -49 1 -34 -52 7 -26 19 -43 39 -53 34 -18 119 -20 154 -4 49 23 73 121
40 167 -8 12 -41 35 -73 51 -74 38 -88 54 -73 86 16 35 59 35 68 0 5 -21 12
-25 45 -25 33 0 39 3 39 21 0 64 -86 106 -165 81z"/>
<path d="M7270 871 l0 -191 45 0 45 0 0 80 c0 78 1 80 24 80 42 0 56 -25 56
-96 l0 -64 46 0 47 0 -7 71 c-9 87 -12 97 -38 105 -20 6 -19 7 8 29 25 20 29
30 29 74 0 39 -5 56 -23 73 -20 20 -34 23 -127 26 l-105 4 0 -191z m158 117
c7 -7 12 -24 12 -38 0 -34 -17 -50 -52 -50 -27 0 -28 2 -28 50 0 48 1 50 28
50 15 0 33 -5 40 -12z"/>
<path d="M7600 870 l0 -190 115 0 115 0 0 30 0 30 -70 0 -70 0 0 50 0 50 60 0
60 0 0 35 0 35 -60 0 -60 0 0 40 0 40 65 0 65 0 0 35 0 35 -110 0 -110 0 0
-190z"/>
<path d="M7890 871 l0 -191 40 0 40 0 1 133 0 132 25 -80 c14 -44 32 -104 40
-132 l15 -53 50 0 49 0 0 190 0 190 -40 0 -39 0 -3 -127 -3 -128 -36 125 -36
125 -52 3 -51 3 0 -190z"/>
<path d="M8230 870 l0 -190 35 0 35 0 0 132 c0 72 3 128 7 124 4 -4 24 -62 44
-129 l36 -122 52 -3 51 -3 0 190 0 191 -40 0 -39 0 -3 -127 -3 -128 -18 60
c-10 33 -28 90 -39 128 l-20 67 -49 0 -49 0 0 -190z"/>
<path d="M8560 870 l0 -190 115 0 115 0 0 30 c0 29 0 29 -67 32 l-68 3 -3 48
-3 47 65 0 66 0 0 35 0 35 -65 0 -65 0 0 40 0 40 65 0 65 0 0 35 0 35 -110 0
-110 0 0 -190z"/>
</g>
</svg>
