<?xml version="1.0" encoding="UTF-8"?>
<!DOCTYPE svg PUBLIC "-//W3C//DTD SVG 1.1//EN" "http://www.w3.org/Graphics/SVG/1.1/DTD/svg11.dtd">
<svg xmlns="http://www.w3.org/2000/svg" version="1.1" width="400px" height="400px" style="shape-rendering:geometricPrecision; text-rendering:geometricPrecision; image-rendering:optimizeQuality; fill-rule:evenodd; clip-rule:evenodd" xmlns:xlink="http://www.w3.org/1999/xlink">
<g><path style="opacity:1" fill="#fefffe" d="M -0.5,-0.5 C 132.833,-0.5 266.167,-0.5 399.5,-0.5C 399.5,132.833 399.5,266.167 399.5,399.5C 266.167,399.5 132.833,399.5 -0.5,399.5C -0.5,266.167 -0.5,132.833 -0.5,-0.5 Z"/></g>
<g><path style="opacity:1" fill="#f15021" d="M 79.5,79.5 C 117.833,79.5 156.167,79.5 194.5,79.5C 194.5,117.833 194.5,156.167 194.5,194.5C 156.167,194.5 117.833,194.5 79.5,194.5C 79.5,156.167 79.5,117.833 79.5,79.5 Z"/></g>
<g><path style="opacity:1" fill="#7eba00" d="M 205.5,79.5 C 243.5,79.5 281.5,79.5 319.5,79.5C 319.5,117.833 319.5,156.167 319.5,194.5C 281.5,194.5 243.5,194.5 205.5,194.5C 205.5,156.167 205.5,117.833 205.5,79.5 Z"/></g>
<g><path style="opacity:1" fill="#00a3ef" d="M 79.5,205.5 C 117.833,205.5 156.167,205.5 194.5,205.5C 194.5,243.5 194.5,281.5 194.5,319.5C 156.167,319.5 117.833,319.5 79.5,319.5C 79.5,281.5 79.5,243.5 79.5,205.5 Z"/></g>
<g><path style="opacity:1" fill="#feb900" d="M 205.5,205.5 C 243.5,205.5 281.5,205.5 319.5,205.5C 319.5,243.5 319.5,281.5 319.5,319.5C 281.5,319.5 243.5,319.5 205.5,319.5C 205.5,281.5 205.5,243.5 205.5,205.5 Z"/></g>
</svg>
