<?xml version="1.0" standalone="no"?>
<!DOCTYPE svg PUBLIC "-//W3C//DTD SVG 20010904//EN"
 "http://www.w3.org/TR/2001/REC-SVG-20010904/DTD/svg10.dtd">
<svg version="1.0" xmlns="http://www.w3.org/2000/svg"
 width="539.000000pt" height="140.000000pt" viewBox="0 0 539.000000 140.000000"
 preserveAspectRatio="xMidYMid meet">

<g transform="translate(0.000000,140.000000) scale(0.100000,-0.100000)"
fill="#000000" stroke="none">
<path d="M87 1023 c-4 -3 -7 -174 -7 -380 l0 -373 85 0 85 0 0 315 0 315 233
-2 232 -3 5 -310 5 -310 83 -3 82 -3 0 343 c0 301 -2 346 -16 367 -34 48 -58
51 -432 51 -192 0 -352 -3 -355 -7z"/>
<path d="M1153 1023 c-12 -2 -36 -17 -53 -33 l-30 -28 0 -319 0 -320 26 -24
26 -24 289 -3 289 -3 0 56 0 55 -214 0 c-118 0 -221 3 -230 6 -13 5 -16 24
-16 105 l0 99 314 0 314 0 7 31 c9 41 -5 349 -16 371 -17 32 -77 38 -384 37
-165 -1 -310 -4 -322 -6z m545 -220 l3 -93 -231 0 -230 0 0 88 c0 49 3 92 7
96 4 3 106 5 227 4 l221 -3 3 -92z"/>
<path d="M2111 1012 c-73 -36 -72 -34 -71 -357 1 -413 -29 -385 410 -385 285
0 307 1 337 20 64 39 64 37 63 366 -1 330 -1 333 -65 360 -27 11 -99 14 -337
14 -269 0 -307 -2 -337 -18z m567 -362 c2 -221 1 -246 -15 -257 -21 -16 -404
-18 -434 -3 -18 10 -19 24 -19 261 l0 249 233 -2 232 -3 3 -245z"/>
<path d="M4170 650 l0 -380 80 0 80 0 0 380 0 380 -80 0 -80 0 0 -380z"/>
<path d="M4680 965 l0 -65 235 0 235 0 0 -50 0 -50 -262 0 c-294 0 -312 -3
-355 -69 -22 -32 -23 -44 -23 -207 0 -95 4 -184 10 -199 20 -52 47 -55 433
-55 262 0 356 3 365 12 9 9 11 90 6 343 -6 273 -10 334 -23 354 -30 47 -60 51
-351 51 l-270 0 0 -65z m470 -429 c0 -141 0 -144 -22 -150 -30 -8 -412 -8
-432 0 -14 5 -16 27 -16 140 0 116 2 134 18 143 10 6 105 11 235 11 l217 0 0
-144z"/>
<path d="M3086 1008 c4 -7 73 -86 152 -176 141 -159 144 -164 126 -182 -10
-10 -98 -88 -194 -175 -96 -87 -186 -168 -200 -181 l-25 -24 115 0 115 0 150
140 c83 77 153 140 156 140 3 0 61 -63 128 -140 l122 -140 95 0 c85 0 112 8
84 25 -5 3 -80 85 -167 182 l-157 175 65 62 c35 34 123 116 194 183 l130 122
-103 1 -103 0 -137 -125 c-75 -69 -140 -125 -144 -125 -3 0 -57 56 -118 125
l-113 125 -89 0 c-69 0 -87 -3 -82 -12z"/>
</g>
</svg>
