<svg id="svg" version="1.1" xmlns="http://www.w3.org/2000/svg" xmlns:xlink="http://www.w3.org/1999/xlink" width="400" height="400" viewBox="0, 0, 400,400"><g id="svgg"><path id="path0" d="M105.890 112.923 L 104.381 114.216 104.383 201.330 C 104.384 252.425,104.534 288.711,104.746 289.090 C 105.203 289.907,106.091 289.951,127.350 290.221 C 142.398 290.412,144.172 290.368,144.814 289.788 C 145.495 289.171,145.517 285.970,145.303 218.871 C 145.052 140.064,144.920 144.636,147.496 142.630 L 149.343 141.191 201.300 141.296 L 253.257 141.400 254.829 143.085 L 256.400 144.769 256.400 216.696 C 256.400 281.441,256.463 288.712,257.029 289.520 L 257.657 290.417 277.429 290.389 L 297.200 290.360 297.816 289.169 C 298.797 287.273,298.513 134.165,297.524 131.800 C 297.156 130.920,296.512 129.300,296.093 128.200 C 294.022 122.762,288.671 116.919,284.554 115.600 C 283.699 115.326,282.640 114.786,282.200 114.400 C 281.760 114.014,280.680 113.575,279.800 113.423 C 278.920 113.272,277.056 112.799,275.658 112.374 C 273.179 111.619,271.062 111.600,190.258 111.615 L 107.400 111.630 105.890 112.923 " stroke="none" fill="#fafafb" fill-rule="evenodd"></path><path id="path1" d="M21.680 15.280 C 21.028 15.932,21.077 16.620,21.829 17.371 C 22.601 18.144,378.585 18.357,380.026 17.586 C 380.898 17.119,381.041 16.001,380.320 15.280 C 379.620 14.580,22.380 14.580,21.680 15.280 M379.985 15.782 C 381.169 17.209,382.321 17.200,201.225 17.200 C 14.673 17.200,20.510 17.250,22.090 15.670 C 22.872 14.888,379.336 15.000,379.985 15.782 M22.667 15.867 C 22.520 16.013,22.400 16.283,22.400 16.467 C 22.400 16.650,102.500 16.800,200.400 16.800 C 358.356 16.800,378.400 16.732,378.400 16.200 C 378.400 15.568,23.298 15.236,22.667 15.867 M18.667 18.667 C 18.523 18.810,18.403 100.259,18.401 199.664 L 18.397 380.400 19.599 380.400 C 20.516 380.400,20.800 380.219,20.800 379.633 C 20.800 378.456,21.229 377.600,21.819 377.600 C 22.405 377.600,103.340 296.834,104.011 295.579 C 104.241 295.150,104.673 294.800,104.971 294.800 C 105.270 294.800,105.612 294.545,105.732 294.234 C 105.851 293.923,106.435 293.428,107.030 293.134 C 108.740 292.289,108.382 291.810,105.945 291.681 C 101.750 291.461,102.216 302.144,102.086 203.258 C 101.960 107.197,101.789 114.768,104.140 112.242 L 105.861 110.395 191.963 110.497 C 273.421 110.594,278.092 110.638,278.576 111.300 C 278.861 111.689,280.036 112.179,281.223 112.404 C 282.397 112.627,283.739 113.167,284.205 113.605 C 285.114 114.459,286.400 114.673,286.400 113.972 C 286.400 113.736,306.920 93.026,332.000 67.949 C 357.080 42.873,377.600 22.115,377.600 21.821 C 377.600 21.229,378.454 20.800,379.633 20.800 C 380.219 20.800,380.400 20.516,380.400 19.599 L 380.400 18.397 199.664 18.401 C 100.259 18.403,18.810 18.523,18.667 18.667 M15.280 21.680 C 14.580 22.380,14.580 379.620,15.280 380.320 C 16.001 381.041,17.119 380.898,17.586 380.026 C 18.357 378.585,18.144 22.601,17.371 21.829 C 16.620 21.077,15.932 21.028,15.280 21.680 M17.200 201.225 C 17.200 382.321,17.209 381.169,15.782 379.985 C 15.000 379.336,14.888 22.872,15.670 22.090 C 17.250 20.510,17.200 14.673,17.200 201.225 M15.867 22.667 C 15.236 23.298,15.568 378.400,16.200 378.400 C 16.732 378.400,16.800 358.356,16.800 200.400 C 16.800 102.500,16.650 22.400,16.467 22.400 C 16.283 22.400,16.013 22.520,15.867 22.667 M149.305 143.643 C 146.652 144.416,146.813 140.877,146.800 198.869 C 146.794 227.761,146.791 251.614,146.794 251.876 C 146.799 252.243,147.007 252.242,147.700 251.871 C 149.324 251.003,254.000 145.985,254.000 145.224 C 254.000 143.334,255.939 143.404,201.639 143.333 C 170.646 143.292,150.091 143.414,149.305 143.643 " stroke="none" fill="#0b2362" fill-rule="evenodd"></path><path id="path2" d="M382.135 18.900 C 381.690 19.612,381.608 20.442,382.007 20.195 C 382.193 20.081,382.475 20.198,382.634 20.455 C 382.804 20.730,382.751 20.817,382.507 20.666 C 382.278 20.525,381.868 20.677,381.596 21.004 C 381.324 21.332,380.684 21.600,380.174 21.600 C 379.662 21.600,378.966 22.004,378.623 22.500 C 378.280 22.995,357.446 43.962,332.325 69.092 C 307.205 94.223,286.789 114.923,286.958 115.092 C 287.127 115.261,287.476 115.118,287.733 114.775 C 287.990 114.431,288.532 114.026,288.938 113.873 C 289.344 113.721,289.764 113.259,289.872 112.847 C 289.980 112.435,290.487 111.907,290.999 111.673 C 291.511 111.440,292.042 110.897,292.179 110.468 C 292.315 110.038,292.794 109.590,293.243 109.473 C 293.692 109.355,294.151 108.908,294.264 108.478 C 294.376 108.049,294.887 107.507,295.399 107.273 C 295.911 107.040,296.442 106.497,296.579 106.068 C 296.715 105.638,297.194 105.190,297.643 105.073 C 298.092 104.955,298.553 104.503,298.667 104.067 C 298.781 103.631,299.215 103.185,299.632 103.076 C 300.049 102.967,300.568 102.410,300.785 101.839 C 301.002 101.267,301.459 100.800,301.799 100.800 C 302.139 100.800,302.615 100.365,302.857 99.834 C 303.099 99.303,303.649 98.776,304.078 98.664 C 304.508 98.551,304.951 98.108,305.064 97.678 C 305.176 97.249,305.687 96.707,306.199 96.473 C 306.711 96.240,307.242 95.697,307.379 95.268 C 307.515 94.838,307.994 94.390,308.443 94.273 C 308.892 94.155,309.351 93.708,309.464 93.278 C 309.576 92.849,310.087 92.307,310.599 92.073 C 311.111 91.840,311.642 91.297,311.779 90.868 C 311.915 90.438,312.394 89.990,312.843 89.873 C 313.292 89.755,313.751 89.308,313.864 88.878 C 313.976 88.449,314.503 87.899,315.034 87.657 C 315.565 87.415,316.000 86.939,316.000 86.599 C 316.000 86.259,316.435 85.815,316.966 85.613 C 317.497 85.411,318.043 84.895,318.179 84.466 C 318.315 84.037,318.778 83.594,319.208 83.482 C 319.638 83.369,320.159 82.835,320.364 82.293 C 320.570 81.752,321.126 81.208,321.599 81.084 C 322.072 80.961,322.553 80.503,322.667 80.067 C 322.781 79.631,323.231 79.181,323.667 79.067 C 324.103 78.953,324.551 78.508,324.664 78.078 C 324.776 77.649,325.287 77.107,325.799 76.873 C 326.311 76.640,326.842 76.097,326.979 75.668 C 327.115 75.238,327.594 74.790,328.043 74.673 C 328.492 74.555,328.951 74.108,329.064 73.678 C 329.176 73.249,329.703 72.699,330.234 72.457 C 330.765 72.215,331.200 71.739,331.200 71.399 C 331.200 71.059,331.667 70.602,332.239 70.385 C 332.810 70.168,333.367 69.649,333.476 69.232 C 333.585 68.815,334.015 68.385,334.432 68.276 C 334.849 68.167,335.359 67.635,335.564 67.093 C 335.770 66.552,336.326 66.008,336.799 65.884 C 337.272 65.761,337.753 65.303,337.867 64.867 C 337.981 64.431,338.431 63.981,338.867 63.867 C 339.303 63.753,339.751 63.308,339.864 62.878 C 339.976 62.449,340.487 61.907,340.999 61.673 C 341.511 61.440,342.042 60.897,342.179 60.468 C 342.315 60.038,342.794 59.590,343.243 59.473 C 343.692 59.355,344.157 58.886,344.276 58.430 C 344.396 57.973,344.751 57.600,345.065 57.600 C 345.380 57.600,345.941 57.070,346.313 56.422 C 346.685 55.774,347.320 55.157,347.724 55.052 C 348.129 54.946,348.553 54.503,348.667 54.067 C 348.781 53.631,349.215 53.185,349.632 53.076 C 350.049 52.967,350.568 52.410,350.785 51.839 C 351.002 51.267,351.459 50.800,351.799 50.800 C 352.139 50.800,352.615 50.365,352.857 49.834 C 353.099 49.303,353.633 48.780,354.044 48.673 C 354.454 48.565,354.968 48.010,355.185 47.439 C 355.402 46.867,355.859 46.400,356.199 46.400 C 356.539 46.400,357.015 45.965,357.257 45.434 C 357.499 44.903,358.049 44.376,358.478 44.264 C 358.908 44.151,359.351 43.708,359.464 43.278 C 359.576 42.849,360.087 42.307,360.599 42.073 C 361.111 41.840,361.642 41.297,361.779 40.868 C 361.915 40.438,362.394 39.990,362.843 39.873 C 363.292 39.755,363.753 39.303,363.867 38.867 C 363.981 38.431,364.415 37.985,364.832 37.876 C 365.249 37.767,365.768 37.210,365.985 36.639 C 366.202 36.067,366.659 35.600,366.999 35.600 C 367.339 35.600,367.815 35.165,368.057 34.634 C 368.299 34.103,368.849 33.576,369.278 33.464 C 369.708 33.351,370.146 32.929,370.252 32.524 C 370.357 32.120,370.974 31.485,371.622 31.113 C 372.270 30.741,372.800 30.180,372.800 29.865 C 372.800 29.551,373.173 29.196,373.630 29.076 C 374.086 28.957,374.551 28.508,374.664 28.078 C 374.776 27.649,375.287 27.107,375.799 26.873 C 376.311 26.640,376.842 26.097,376.979 25.668 C 377.115 25.238,377.594 24.790,378.043 24.673 C 378.492 24.555,378.957 24.086,379.076 23.630 C 379.286 22.826,379.587 22.711,381.500 22.697 C 381.995 22.693,382.403 22.490,382.406 22.245 C 382.410 22.000,382.570 22.050,382.765 22.357 C 382.959 22.663,383.071 23.338,383.014 23.857 C 382.957 24.375,383.073 24.800,383.273 24.800 C 383.473 24.800,383.583 23.585,383.518 22.100 C 383.429 20.064,383.265 19.429,382.851 19.516 C 382.502 19.590,382.388 19.409,382.538 19.016 C 382.823 18.275,382.571 18.202,382.135 18.900 M381.798 199.200 C 381.798 295.230,381.844 334.515,381.900 286.500 C 381.956 238.485,381.956 159.915,381.900 111.900 C 381.844 63.885,381.798 103.170,381.798 199.200 M296.400 123.976 C 296.400 125.190,296.917 125.822,297.576 125.415 C 298.027 125.136,297.299 122.800,296.761 122.800 C 296.562 122.800,296.400 123.329,296.400 123.976 M298.800 128.862 C 298.800 130.798,298.853 130.919,299.441 130.330 C 299.900 129.872,300.005 129.335,299.811 128.449 C 299.357 126.381,298.800 126.609,298.800 128.862 M300.800 211.520 C 300.800 284.867,300.927 294.744,301.795 288.700 C 302.313 285.095,301.831 133.671,301.300 133.140 C 300.900 132.740,300.800 148.416,300.800 211.520 M254.780 146.111 C 254.624 146.726,150.550 251.196,147.450 253.849 C 146.817 254.390,146.404 254.937,146.531 255.064 C 146.944 255.477,148.800 254.801,148.800 254.238 C 148.800 253.938,149.250 253.397,149.800 253.037 C 150.350 252.676,150.800 252.111,150.800 251.781 C 150.800 251.451,151.235 251.015,151.766 250.813 C 152.297 250.611,152.843 250.095,152.979 249.666 C 153.115 249.237,153.594 248.790,154.043 248.673 C 154.492 248.555,154.951 248.108,155.064 247.678 C 155.176 247.249,155.687 246.707,156.199 246.473 C 156.711 246.240,157.242 245.697,157.379 245.268 C 157.515 244.838,157.994 244.390,158.443 244.273 C 158.892 244.155,159.351 243.708,159.464 243.278 C 159.576 242.849,160.087 242.307,160.599 242.073 C 161.111 241.840,161.642 241.297,161.779 240.868 C 161.915 240.438,162.394 239.990,162.843 239.873 C 163.292 239.755,163.751 239.308,163.864 238.878 C 163.976 238.449,164.503 237.899,165.034 237.657 C 165.565 237.415,166.000 236.939,166.000 236.599 C 166.000 236.259,166.435 235.815,166.966 235.613 C 167.497 235.411,168.043 234.895,168.179 234.466 C 168.315 234.037,168.794 233.590,169.243 233.473 C 169.692 233.355,170.146 232.929,170.252 232.524 C 170.357 232.120,170.974 231.485,171.622 231.113 C 172.270 230.741,172.800 230.180,172.800 229.865 C 172.800 229.551,173.173 229.196,173.630 229.076 C 174.086 228.957,174.551 228.508,174.664 228.078 C 174.776 227.649,175.287 227.107,175.799 226.873 C 176.311 226.640,176.842 226.097,176.979 225.668 C 177.115 225.238,177.594 224.790,178.043 224.673 C 178.492 224.555,178.957 224.086,179.076 223.630 C 179.196 223.173,179.551 222.800,179.865 222.800 C 180.180 222.800,180.741 222.270,181.113 221.622 C 181.485 220.974,182.120 220.357,182.524 220.252 C 182.929 220.146,183.353 219.703,183.467 219.267 C 183.581 218.831,184.015 218.385,184.432 218.276 C 184.849 218.167,185.368 217.610,185.585 217.039 C 185.802 216.467,186.259 216.000,186.599 216.000 C 186.939 216.000,187.415 215.565,187.657 215.034 C 187.899 214.503,188.449 213.976,188.878 213.864 C 189.308 213.751,189.751 213.308,189.864 212.878 C 189.976 212.449,190.487 211.907,190.999 211.673 C 191.511 211.440,192.042 210.897,192.179 210.468 C 192.315 210.038,192.794 209.590,193.243 209.473 C 193.692 209.355,194.151 208.908,194.264 208.478 C 194.376 208.049,194.887 207.507,195.399 207.273 C 195.911 207.040,196.442 206.497,196.579 206.068 C 196.715 205.638,197.194 205.190,197.643 205.073 C 198.092 204.955,198.551 204.508,198.664 204.078 C 198.776 203.649,199.303 203.099,199.834 202.857 C 200.365 202.615,200.800 202.139,200.800 201.799 C 200.800 201.459,201.235 201.015,201.766 200.813 C 202.297 200.611,202.843 200.095,202.979 199.666 C 203.115 199.237,203.594 198.790,204.043 198.673 C 204.492 198.555,204.951 198.108,205.064 197.678 C 205.176 197.249,205.687 196.707,206.199 196.473 C 206.711 196.240,207.242 195.697,207.379 195.268 C 207.515 194.838,207.994 194.390,208.443 194.273 C 208.892 194.155,209.351 193.708,209.464 193.278 C 209.576 192.849,210.087 192.307,210.599 192.073 C 211.111 191.840,211.642 191.297,211.779 190.868 C 211.915 190.438,212.394 189.990,212.843 189.873 C 213.292 189.755,213.751 189.308,213.864 188.878 C 213.976 188.449,214.503 187.899,215.034 187.657 C 215.565 187.415,216.000 186.939,216.000 186.599 C 216.000 186.259,216.467 185.802,217.039 185.585 C 217.610 185.368,218.167 184.849,218.276 184.432 C 218.385 184.015,218.831 183.581,219.267 183.467 C 219.703 183.353,220.146 182.929,220.252 182.524 C 220.357 182.120,220.974 181.485,221.622 181.113 C 222.270 180.741,222.800 180.180,222.800 179.865 C 222.800 179.551,223.173 179.196,223.630 179.076 C 224.086 178.957,224.551 178.508,224.664 178.078 C 224.776 177.649,225.287 177.107,225.799 176.873 C 226.311 176.640,226.842 176.097,226.979 175.668 C 227.115 175.238,227.594 174.790,228.043 174.673 C 228.492 174.555,228.957 174.086,229.076 173.630 C 229.196 173.173,229.551 172.800,229.865 172.800 C 230.180 172.800,230.741 172.270,231.113 171.622 C 231.485 170.974,232.120 170.357,232.524 170.252 C 232.929 170.146,233.351 169.708,233.464 169.278 C 233.576 168.849,234.103 168.299,234.634 168.057 C 235.165 167.815,235.600 167.339,235.600 166.999 C 235.600 166.659,236.035 166.215,236.566 166.013 C 237.097 165.811,237.643 165.295,237.779 164.866 C 237.915 164.437,238.394 163.990,238.843 163.873 C 239.292 163.755,239.751 163.308,239.864 162.878 C 239.976 162.449,240.487 161.907,240.999 161.673 C 241.511 161.440,242.042 160.897,242.179 160.468 C 242.315 160.038,242.794 159.590,243.243 159.473 C 243.692 159.355,244.151 158.908,244.264 158.478 C 244.376 158.049,244.887 157.507,245.399 157.273 C 245.911 157.040,246.442 156.497,246.579 156.068 C 246.715 155.638,247.194 155.190,247.643 155.073 C 248.092 154.955,248.555 154.492,248.673 154.043 C 248.790 153.594,249.237 153.115,249.666 152.979 C 250.095 152.843,250.611 152.297,250.813 151.766 C 251.037 151.177,251.501 150.800,252.003 150.800 C 252.455 150.800,252.936 150.485,253.071 150.100 C 253.207 149.715,253.756 148.924,254.292 148.343 C 254.914 147.669,255.211 146.945,255.113 146.343 C 254.991 145.596,254.922 145.548,254.780 146.111 M109.200 291.739 C 109.200 292.259,24.193 377.444,22.500 378.620 C 22.005 378.964,21.600 379.663,21.600 380.174 C 21.600 380.684,21.332 381.324,21.004 381.596 C 20.677 381.868,20.525 382.278,20.666 382.507 C 20.817 382.751,20.730 382.804,20.455 382.634 C 20.198 382.475,20.081 382.193,20.195 382.007 C 20.512 381.495,19.261 381.779,18.696 382.348 C 18.300 382.746,18.345 382.792,18.916 382.575 C 19.409 382.387,19.596 382.474,19.516 382.851 C 19.429 383.265,20.064 383.429,22.100 383.518 C 23.585 383.583,24.800 383.473,24.800 383.273 C 24.800 383.073,24.375 382.957,23.857 383.014 C 23.338 383.071,22.663 382.959,22.357 382.765 C 22.050 382.570,22.000 382.410,22.245 382.406 C 22.490 382.403,22.693 381.995,22.697 381.500 C 22.711 379.587,22.826 379.286,23.630 379.076 C 24.086 378.957,24.551 378.508,24.664 378.078 C 24.776 377.649,25.287 377.107,25.799 376.873 C 26.311 376.640,26.842 376.097,26.979 375.668 C 27.115 375.238,27.594 374.790,28.043 374.673 C 28.492 374.555,28.957 374.086,29.076 373.630 C 29.196 373.173,29.551 372.800,29.865 372.800 C 30.180 372.800,30.741 372.270,31.113 371.622 C 31.485 370.974,32.120 370.357,32.524 370.252 C 32.929 370.146,33.351 369.708,33.464 369.278 C 33.576 368.849,34.103 368.299,34.634 368.057 C 35.165 367.815,35.600 367.339,35.600 366.999 C 35.600 366.659,36.067 366.202,36.639 365.985 C 37.210 365.768,37.767 365.249,37.876 364.832 C 37.985 364.415,38.431 363.981,38.867 363.867 C 39.303 363.753,39.751 363.308,39.864 362.878 C 39.976 362.449,40.487 361.907,40.999 361.673 C 41.511 361.440,42.042 360.897,42.179 360.468 C 42.315 360.038,42.794 359.590,43.243 359.473 C 43.692 359.355,44.151 358.908,44.264 358.478 C 44.376 358.049,44.903 357.499,45.434 357.257 C 45.965 357.015,46.400 356.539,46.400 356.199 C 46.400 355.859,46.867 355.402,47.439 355.185 C 48.010 354.968,48.565 354.454,48.673 354.044 C 48.780 353.633,49.303 353.099,49.834 352.857 C 50.365 352.615,50.800 352.139,50.800 351.799 C 50.800 351.459,51.267 351.002,51.839 350.785 C 52.410 350.568,52.967 350.049,53.076 349.632 C 53.185 349.215,53.631 348.781,54.067 348.667 C 54.503 348.553,54.946 348.129,55.052 347.724 C 55.157 347.320,55.774 346.685,56.422 346.313 C 57.070 345.941,57.600 345.380,57.600 345.065 C 57.600 344.751,57.973 344.396,58.430 344.276 C 58.886 344.157,59.351 343.708,59.464 343.278 C 59.576 342.849,60.087 342.307,60.599 342.073 C 61.111 341.840,61.642 341.297,61.779 340.868 C 61.915 340.438,62.394 339.990,62.843 339.873 C 63.292 339.755,63.753 339.303,63.867 338.867 C 63.981 338.431,64.415 337.985,64.832 337.876 C 65.249 337.767,65.759 337.235,65.964 336.693 C 66.170 336.152,66.726 335.608,67.199 335.484 C 67.672 335.361,68.153 334.903,68.267 334.467 C 68.381 334.031,68.815 333.585,69.232 333.476 C 69.649 333.367,70.168 332.810,70.385 332.239 C 70.602 331.667,71.059 331.200,71.399 331.200 C 71.739 331.200,72.215 330.765,72.457 330.234 C 72.699 329.703,73.249 329.176,73.678 329.064 C 74.108 328.951,74.551 328.508,74.664 328.078 C 74.776 327.649,75.287 327.107,75.799 326.873 C 76.311 326.640,76.842 326.097,76.979 325.668 C 77.115 325.238,77.594 324.790,78.043 324.673 C 78.492 324.555,78.953 324.103,79.067 323.667 C 79.181 323.231,79.615 322.785,80.032 322.676 C 80.449 322.567,80.959 322.035,81.164 321.493 C 81.370 320.952,81.926 320.408,82.399 320.284 C 82.872 320.161,83.351 319.708,83.464 319.278 C 83.576 318.849,84.103 318.299,84.634 318.057 C 85.165 317.815,85.600 317.339,85.600 316.999 C 85.600 316.659,86.035 316.215,86.566 316.013 C 87.097 315.811,87.643 315.295,87.779 314.866 C 87.915 314.437,88.394 313.990,88.843 313.873 C 89.292 313.755,89.751 313.308,89.864 312.878 C 89.976 312.449,90.487 311.907,90.999 311.673 C 91.511 311.440,92.042 310.897,92.179 310.468 C 92.315 310.038,92.794 309.590,93.243 309.473 C 93.692 309.355,94.151 308.908,94.264 308.478 C 94.376 308.049,94.887 307.507,95.399 307.273 C 95.911 307.040,96.442 306.497,96.579 306.068 C 96.715 305.638,97.194 305.190,97.643 305.073 C 98.092 304.955,98.551 304.508,98.664 304.078 C 98.776 303.649,99.303 303.099,99.834 302.857 C 100.365 302.615,100.800 302.139,100.800 301.799 C 100.800 301.459,101.267 301.002,101.839 300.785 C 102.410 300.568,102.967 300.049,103.076 299.632 C 103.185 299.215,103.631 298.781,104.067 298.667 C 104.503 298.553,104.951 298.108,105.064 297.678 C 105.176 297.249,105.703 296.699,106.234 296.457 C 106.765 296.215,107.200 295.746,107.200 295.414 C 107.200 293.687,109.242 293.500,127.279 293.577 C 144.084 293.650,146.475 293.493,145.778 292.365 C 145.623 292.114,139.314 291.987,128.467 292.015 C 117.400 292.044,111.013 291.912,110.300 291.640 C 109.449 291.315,109.200 291.337,109.200 291.739 M256.089 292.337 C 254.437 293.385,258.032 293.600,277.200 293.600 C 296.368 293.600,299.963 293.385,298.311 292.337 C 298.030 292.158,288.530 292.012,277.200 292.012 C 265.870 292.012,256.370 292.158,256.089 292.337 M382.806 376.820 C 382.803 377.381,382.575 378.092,382.300 378.401 C 381.875 378.878,381.904 378.882,382.500 378.432 C 383.113 377.968,383.200 378.007,383.200 378.751 C 383.200 379.218,382.975 379.603,382.700 379.606 C 382.367 379.610,382.400 379.742,382.800 380.000 C 383.200 380.258,383.233 380.390,382.900 380.394 C 382.625 380.397,382.406 380.715,382.413 381.100 C 382.425 381.752,382.460 381.754,382.937 381.128 C 383.567 380.298,383.744 377.214,383.208 376.400 C 382.893 375.923,382.811 376.009,382.806 376.820 M381.002 381.198 C 380.603 381.639,380.462 382.000,380.689 382.000 C 381.192 382.000,382.190 380.857,381.921 380.588 C 381.815 380.482,381.402 380.756,381.002 381.198 M111.900 381.900 C 159.915 381.956,238.485 381.956,286.500 381.900 C 334.515 381.844,295.230 381.798,199.200 381.798 C 103.170 381.798,63.885 381.844,111.900 381.900 M378.200 382.400 C 378.064 382.620,377.468 382.803,376.876 382.806 C 376.028 382.811,375.927 382.896,376.400 383.208 C 377.214 383.744,380.298 383.567,381.128 382.937 C 381.754 382.460,381.752 382.425,381.100 382.413 C 380.715 382.406,380.397 382.625,380.394 382.900 C 380.390 383.233,380.258 383.200,380.000 382.800 C 379.742 382.400,379.610 382.367,379.606 382.700 C 379.603 382.975,379.218 383.200,378.751 383.200 C 378.042 383.200,377.984 383.101,378.400 382.600 C 378.674 382.270,378.797 382.000,378.673 382.000 C 378.549 382.000,378.336 382.180,378.200 382.400 " stroke="none" fill="#04e4a4" fill-rule="evenodd"></path><path id="path3" d="M22.090 15.670 C 20.510 17.250,14.708 17.200,200.475 17.200 C 381.438 17.200,380.766 17.205,379.577 15.772 C 378.935 14.998,22.863 14.897,22.090 15.670 M378.400 16.200 C 378.400 16.732,358.356 16.800,200.400 16.800 C 102.500 16.800,22.400 16.650,22.400 16.467 C 22.400 16.283,22.520 16.013,22.667 15.867 C 23.298 15.236,378.400 15.568,378.400 16.200 M380.400 19.600 C 380.400 20.516,380.219 20.800,379.633 20.800 C 378.454 20.800,377.600 21.229,377.600 21.821 C 377.600 22.115,357.080 42.873,332.000 67.949 C 306.920 93.026,286.400 113.736,286.400 113.972 C 286.400 114.673,285.114 114.459,284.205 113.605 C 283.739 113.167,282.397 112.627,281.223 112.404 C 280.036 112.179,278.861 111.689,278.576 111.300 C 278.092 110.638,273.421 110.594,191.963 110.497 L 105.861 110.395 104.140 112.242 C 101.789 114.768,101.960 107.197,102.086 203.258 C 102.216 302.144,101.750 291.461,105.945 291.681 C 108.411 291.811,108.791 292.306,107.063 293.134 C 106.450 293.428,105.851 293.923,105.732 294.234 C 105.612 294.545,105.270 294.800,104.971 294.800 C 104.673 294.800,104.241 295.150,104.011 295.579 C 103.340 296.834,22.405 377.600,21.819 377.600 C 21.229 377.600,20.800 378.456,20.800 379.633 C 20.800 380.219,20.516 380.400,19.600 380.400 C 18.663 380.400,18.400 380.577,18.400 381.208 C 18.400 381.853,18.603 381.979,19.408 381.833 C 19.963 381.732,20.320 381.806,20.202 381.997 C 20.084 382.188,20.198 382.475,20.455 382.634 C 20.730 382.804,20.817 382.751,20.666 382.507 C 20.525 382.278,20.677 381.868,21.004 381.596 C 21.332 381.324,21.600 380.684,21.600 380.174 C 21.600 379.663,22.005 378.964,22.500 378.620 C 25.673 376.416,109.200 292.172,109.200 291.176 C 109.200 289.955,107.972 289.373,106.762 290.021 C 105.594 290.645,105.009 290.461,104.290 289.244 C 103.592 288.063,103.175 119.606,103.860 115.475 C 104.058 114.281,104.505 113.651,105.922 112.569 L 107.732 111.187 191.166 111.294 L 274.600 111.400 276.963 112.300 C 278.262 112.795,279.723 113.200,280.209 113.200 C 280.695 113.200,281.577 113.581,282.169 114.047 C 282.762 114.513,283.853 115.031,284.593 115.198 L 285.939 115.502 331.969 69.451 C 357.285 44.123,378.279 22.995,378.622 22.500 C 378.965 22.004,379.662 21.600,380.174 21.600 C 380.684 21.600,381.324 21.332,381.596 21.004 C 381.868 20.677,382.278 20.525,382.507 20.666 C 382.751 20.817,382.804 20.730,382.634 20.455 C 382.475 20.198,382.188 20.084,381.997 20.202 C 381.806 20.320,381.732 19.963,381.833 19.408 C 381.979 18.603,381.853 18.400,381.208 18.400 C 380.577 18.400,380.400 18.663,380.400 19.600 M15.670 22.090 C 14.897 22.863,14.998 378.935,15.772 379.577 C 17.205 380.766,17.200 381.438,17.200 200.475 C 17.200 14.708,17.250 20.510,15.670 22.090 M16.800 200.400 C 16.800 358.356,16.732 378.400,16.200 378.400 C 15.568 378.400,15.236 23.298,15.867 22.667 C 16.013 22.520,16.283 22.400,16.467 22.400 C 16.650 22.400,16.800 102.500,16.800 200.400 M147.400 143.045 L 145.800 144.458 145.689 198.529 C 145.577 252.935,145.599 254.400,146.520 254.400 C 147.321 254.400,254.442 147.062,255.026 145.674 C 255.525 144.487,255.486 144.390,253.971 143.021 L 252.398 141.600 200.699 141.617 L 149.000 141.633 147.400 143.045 M253.339 143.949 C 253.702 144.251,254.000 144.825,254.000 145.224 C 254.000 145.985,149.324 251.003,147.700 251.871 C 147.007 252.242,146.799 252.243,146.794 251.876 C 146.791 251.614,146.794 227.761,146.800 198.869 C 146.813 140.877,146.652 144.416,149.305 143.643 C 151.565 142.985,252.535 143.282,253.339 143.949 " stroke="none" fill="#354c7c" fill-rule="evenodd"></path><path id="path4" d="M379.544 15.668 C 379.959 16.221,379.921 16.407,379.322 16.756 C 378.674 17.133,378.669 17.177,379.276 17.188 C 380.316 17.207,380.577 16.398,379.769 15.662 C 379.094 15.045,379.078 15.046,379.544 15.668 M385.285 20.075 C 384.459 20.901,384.590 379.328,385.417 380.014 C 385.811 380.341,386.173 380.387,386.417 380.143 C 386.971 379.589,386.739 19.913,386.185 19.728 C 385.957 19.652,385.552 19.808,385.285 20.075 M382.406 22.245 C 382.403 22.490,381.995 22.693,381.500 22.697 C 379.587 22.711,379.286 22.826,379.076 23.630 C 378.957 24.086,378.492 24.555,378.043 24.673 C 377.594 24.790,377.115 25.238,376.979 25.668 C 376.842 26.097,376.311 26.640,375.799 26.873 C 375.287 27.107,374.776 27.649,374.664 28.078 C 374.551 28.508,374.086 28.957,373.630 29.076 C 373.173 29.196,372.800 29.551,372.800 29.865 C 372.800 30.180,372.270 30.741,371.622 31.113 C 370.974 31.485,370.357 32.120,370.252 32.524 C 370.146 32.929,369.708 33.351,369.278 33.464 C 368.849 33.576,368.299 34.103,368.057 34.634 C 367.815 35.165,367.339 35.600,366.999 35.600 C 366.659 35.600,366.202 36.067,365.985 36.639 C 365.768 37.210,365.249 37.767,364.832 37.876 C 364.415 37.985,363.981 38.431,363.867 38.867 C 363.753 39.303,363.308 39.751,362.878 39.864 C 362.449 39.976,361.907 40.487,361.673 40.999 C 361.440 41.511,360.897 42.042,360.468 42.179 C 360.038 42.315,359.590 42.794,359.473 43.243 C 359.355 43.692,358.908 44.151,358.478 44.264 C 358.049 44.376,357.499 44.903,357.257 45.434 C 357.015 45.965,356.539 46.400,356.199 46.400 C 355.859 46.400,355.402 46.867,355.185 47.439 C 354.968 48.010,354.454 48.565,354.044 48.673 C 353.633 48.780,353.099 49.303,352.857 49.834 C 352.615 50.365,352.139 50.800,351.799 50.800 C 351.459 50.800,351.002 51.267,350.785 51.839 C 350.568 52.410,350.049 52.967,349.632 53.076 C 349.215 53.185,348.781 53.631,348.667 54.067 C 348.553 54.503,348.129 54.946,347.724 55.052 C 347.320 55.157,346.685 55.774,346.313 56.422 C 345.941 57.070,345.380 57.600,345.065 57.600 C 344.751 57.600,344.396 57.973,344.276 58.430 C 344.157 58.886,343.708 59.351,343.278 59.464 C 342.849 59.576,342.307 60.087,342.073 60.599 C 341.840 61.111,341.297 61.642,340.868 61.779 C 340.438 61.915,339.990 62.394,339.873 62.843 C 339.755 63.292,339.303 63.753,338.867 63.867 C 338.431 63.981,337.981 64.431,337.867 64.867 C 337.753 65.303,337.272 65.761,336.799 65.884 C 336.326 66.008,335.770 66.552,335.564 67.093 C 335.359 67.635,334.849 68.167,334.432 68.276 C 334.015 68.385,333.585 68.815,333.476 69.232 C 333.367 69.649,332.810 70.168,332.239 70.385 C 331.667 70.602,331.200 71.059,331.200 71.399 C 331.200 71.739,330.765 72.215,330.234 72.457 C 329.703 72.699,329.176 73.249,329.064 73.678 C 328.951 74.108,328.508 74.551,328.078 74.664 C 327.649 74.776,327.107 75.287,326.873 75.799 C 326.640 76.311,326.097 76.842,325.668 76.979 C 325.238 77.115,324.790 77.594,324.673 78.043 C 324.555 78.492,324.103 78.953,323.667 79.067 C 323.231 79.181,322.785 79.615,322.676 80.032 C 322.567 80.449,322.035 80.959,321.493 81.164 C 320.952 81.370,320.408 81.926,320.284 82.399 C 320.161 82.872,319.708 83.351,319.278 83.464 C 318.849 83.576,318.299 84.103,318.057 84.634 C 317.815 85.165,317.339 85.600,316.999 85.600 C 316.659 85.600,316.215 86.035,316.013 86.566 C 315.811 87.097,315.295 87.643,314.866 87.779 C 314.437 87.915,313.990 88.394,313.873 88.843 C 313.755 89.292,313.308 89.751,312.878 89.864 C 312.449 89.976,311.907 90.487,311.673 90.999 C 311.440 91.511,310.897 92.042,310.468 92.179 C 310.038 92.315,309.590 92.794,309.473 93.243 C 309.355 93.692,308.908 94.151,308.478 94.264 C 308.049 94.376,307.507 94.887,307.273 95.399 C 307.040 95.911,306.497 96.442,306.068 96.579 C 305.638 96.715,305.190 97.194,305.073 97.643 C 304.955 98.092,304.508 98.551,304.078 98.664 C 303.649 98.776,303.099 99.303,302.857 99.834 C 302.615 100.365,302.139 100.800,301.799 100.800 C 301.459 100.800,301.002 101.267,300.785 101.839 C 300.568 102.410,300.049 102.967,299.632 103.076 C 299.215 103.185,298.781 103.631,298.667 104.067 C 298.553 104.503,298.108 104.951,297.678 105.064 C 297.249 105.176,296.707 105.687,296.473 106.199 C 296.240 106.711,295.697 107.242,295.268 107.379 C 294.838 107.515,294.390 107.994,294.273 108.443 C 294.155 108.892,293.708 109.351,293.278 109.464 C 292.849 109.576,292.307 110.087,292.073 110.599 C 291.840 111.111,291.297 111.642,290.868 111.779 C 290.438 111.915,289.994 112.380,289.881 112.811 C 289.768 113.243,289.344 113.721,288.938 113.873 C 288.532 114.026,288.007 114.408,287.770 114.723 C 287.509 115.071,286.645 115.294,285.570 115.291 C 283.811 115.286,283.807 115.289,285.000 115.743 C 288.968 117.254,294.133 123.055,296.093 128.200 C 296.512 129.300,297.156 130.920,297.524 131.800 C 298.513 134.165,298.797 287.273,297.816 289.169 L 297.200 290.360 277.429 290.389 L 257.657 290.417 257.029 289.520 C 256.463 288.712,256.400 281.441,256.400 216.696 L 256.400 144.769 254.829 143.085 L 253.257 141.400 201.129 141.395 L 149.000 141.390 200.878 141.595 L 252.756 141.800 254.097 143.101 C 255.688 144.642,255.734 146.709,254.215 148.400 C 253.721 148.950,253.207 149.715,253.071 150.100 C 252.936 150.485,252.455 150.800,252.003 150.800 C 251.501 150.800,251.037 151.177,250.813 151.766 C 250.611 152.297,250.095 152.843,249.666 152.979 C 249.237 153.115,248.790 153.594,248.673 154.043 C 248.555 154.492,248.108 154.951,247.678 155.064 C 247.249 155.176,246.707 155.687,246.473 156.199 C 246.240 156.711,245.697 157.242,245.268 157.379 C 244.838 157.515,244.390 157.994,244.273 158.443 C 244.155 158.892,243.708 159.351,243.278 159.464 C 242.849 159.576,242.307 160.087,242.073 160.599 C 241.840 161.111,241.297 161.642,240.868 161.779 C 240.438 161.915,239.990 162.394,239.873 162.843 C 239.755 163.292,239.308 163.751,238.878 163.864 C 238.449 163.976,237.899 164.503,237.657 165.034 C 237.415 165.565,236.939 166.000,236.599 166.000 C 236.259 166.000,235.815 166.435,235.613 166.966 C 235.411 167.497,234.895 168.043,234.466 168.179 C 234.037 168.315,233.590 168.794,233.473 169.243 C 233.355 169.692,232.929 170.146,232.524 170.252 C 232.120 170.357,231.485 170.974,231.113 171.622 C 230.741 172.270,230.180 172.800,229.865 172.800 C 229.551 172.800,229.196 173.173,229.076 173.630 C 228.957 174.086,228.508 174.551,228.078 174.664 C 227.649 174.776,227.107 175.287,226.873 175.799 C 226.640 176.311,226.097 176.842,225.668 176.979 C 225.238 177.115,224.790 177.594,224.673 178.043 C 224.555 178.492,224.086 178.957,223.630 179.076 C 223.173 179.196,222.800 179.551,222.800 179.865 C 222.800 180.180,222.270 180.741,221.622 181.113 C 220.974 181.485,220.357 182.120,220.252 182.524 C 220.146 182.929,219.703 183.353,219.267 183.467 C 218.831 183.581,218.385 184.015,218.276 184.432 C 218.167 184.849,217.610 185.368,217.039 185.585 C 216.467 185.802,216.000 186.259,216.000 186.599 C 216.000 186.939,215.565 187.415,215.034 187.657 C 214.503 187.899,213.976 188.449,213.864 188.878 C 213.751 189.308,213.308 189.751,212.878 189.864 C 212.449 189.976,211.907 190.487,211.673 190.999 C 211.440 191.511,210.897 192.042,210.468 192.179 C 210.038 192.315,209.590 192.794,209.473 193.243 C 209.355 193.692,208.908 194.151,208.478 194.264 C 208.049 194.376,207.507 194.887,207.273 195.399 C 207.040 195.911,206.497 196.442,206.068 196.579 C 205.638 196.715,205.190 197.194,205.073 197.643 C 204.955 198.092,204.508 198.551,204.078 198.664 C 203.649 198.776,203.099 199.303,202.857 199.834 C 202.615 200.365,202.139 200.800,201.799 200.800 C 201.459 200.800,201.015 201.235,200.813 201.766 C 200.611 202.297,200.095 202.843,199.666 202.979 C 199.237 203.115,198.790 203.594,198.673 204.043 C 198.555 204.492,198.108 204.951,197.678 205.064 C 197.249 205.176,196.707 205.687,196.473 206.199 C 196.240 206.711,195.697 207.242,195.268 207.379 C 194.838 207.515,194.390 207.994,194.273 208.443 C 194.155 208.892,193.708 209.351,193.278 209.464 C 192.849 209.576,192.307 210.087,192.073 210.599 C 191.840 211.111,191.297 211.642,190.868 211.779 C 190.438 211.915,189.990 212.394,189.873 212.843 C 189.755 213.292,189.308 213.751,188.878 213.864 C 188.449 213.976,187.899 214.503,187.657 215.034 C 187.415 215.565,186.939 216.000,186.599 216.000 C 186.259 216.000,185.802 216.467,185.585 217.039 C 185.368 217.610,184.849 218.167,184.432 218.276 C 184.015 218.385,183.581 218.831,183.467 219.267 C 183.353 219.703,182.929 220.146,182.524 220.252 C 182.120 220.357,181.485 220.974,181.113 221.622 C 180.741 222.270,180.180 222.800,179.865 222.800 C 179.551 222.800,179.196 223.173,179.076 223.630 C 178.957 224.086,178.492 224.555,178.043 224.673 C 177.594 224.790,177.115 225.238,176.979 225.668 C 176.842 226.097,176.311 226.640,175.799 226.873 C 175.287 227.107,174.776 227.649,174.664 228.078 C 174.551 228.508,174.086 228.957,173.630 229.076 C 173.173 229.196,172.800 229.551,172.800 229.865 C 172.800 230.180,172.270 230.741,171.622 231.113 C 170.974 231.485,170.357 232.120,170.252 232.524 C 170.146 232.929,169.708 233.351,169.278 233.464 C 168.849 233.576,168.299 234.103,168.057 234.634 C 167.815 235.165,167.339 235.600,166.999 235.600 C 166.659 235.600,166.215 236.035,166.013 236.566 C 165.811 237.097,165.295 237.643,164.866 237.779 C 164.437 237.915,163.990 238.394,163.873 238.843 C 163.755 239.292,163.308 239.751,162.878 239.864 C 162.449 239.976,161.907 240.487,161.673 240.999 C 161.440 241.511,160.897 242.042,160.468 242.179 C 160.038 242.315,159.590 242.794,159.473 243.243 C 159.355 243.692,158.908 244.151,158.478 244.264 C 158.049 244.376,157.507 244.887,157.273 245.399 C 157.040 245.911,156.497 246.442,156.068 246.579 C 155.638 246.715,155.190 247.194,155.073 247.643 C 154.955 248.092,154.492 248.555,154.043 248.673 C 153.594 248.790,153.115 249.237,152.979 249.666 C 152.843 250.095,152.297 250.611,151.766 250.813 C 151.235 251.015,150.800 251.451,150.800 251.781 C 150.800 252.111,150.350 252.676,149.800 253.037 C 149.250 253.397,148.800 253.922,148.800 254.203 C 148.800 255.290,146.648 255.531,146.143 254.500 C 145.954 254.115,145.695 229.590,145.566 200.000 C 145.351 150.351,145.340 151.714,145.428 217.673 C 145.519 285.755,145.490 289.176,144.812 289.790 C 144.094 290.439,113.829 290.506,109.400 289.868 C 108.520 289.741,108.115 289.732,108.500 289.848 C 108.885 289.964,109.200 290.320,109.200 290.639 C 109.200 291.910,111.305 292.060,128.467 292.015 C 139.314 291.987,145.623 292.114,145.778 292.365 C 146.475 293.493,144.084 293.650,127.279 293.577 C 109.242 293.500,107.200 293.687,107.200 295.414 C 107.200 295.746,106.765 296.215,106.234 296.457 C 105.703 296.699,105.176 297.249,105.064 297.678 C 104.951 298.108,104.503 298.553,104.067 298.667 C 103.631 298.781,103.185 299.215,103.076 299.632 C 102.967 300.049,102.410 300.568,101.839 300.785 C 101.267 301.002,100.800 301.459,100.800 301.799 C 100.800 302.139,100.365 302.615,99.834 302.857 C 99.303 303.099,98.776 303.649,98.664 304.078 C 98.551 304.508,98.108 304.951,97.678 305.064 C 97.249 305.176,96.707 305.687,96.473 306.199 C 96.240 306.711,95.697 307.242,95.268 307.379 C 94.838 307.515,94.390 307.994,94.273 308.443 C 94.155 308.892,93.708 309.351,93.278 309.464 C 92.849 309.576,92.307 310.087,92.073 310.599 C 91.840 311.111,91.297 311.642,90.868 311.779 C 90.438 311.915,89.990 312.394,89.873 312.843 C 89.755 313.292,89.308 313.751,88.878 313.864 C 88.449 313.976,87.899 314.503,87.657 315.034 C 87.415 315.565,86.939 316.000,86.599 316.000 C 86.259 316.000,85.815 316.435,85.613 316.966 C 85.411 317.497,84.895 318.043,84.466 318.179 C 84.037 318.315,83.594 318.778,83.482 319.208 C 83.369 319.638,82.835 320.159,82.293 320.364 C 81.752 320.570,81.208 321.126,81.084 321.599 C 80.961 322.072,80.503 322.553,80.067 322.667 C 79.631 322.781,79.181 323.231,79.067 323.667 C 78.953 324.103,78.508 324.551,78.078 324.664 C 77.649 324.776,77.107 325.287,76.873 325.799 C 76.640 326.311,76.097 326.842,75.668 326.979 C 75.238 327.115,74.790 327.594,74.673 328.043 C 74.555 328.492,74.108 328.951,73.678 329.064 C 73.249 329.176,72.699 329.703,72.457 330.234 C 72.215 330.765,71.739 331.200,71.399 331.200 C 71.059 331.200,70.602 331.667,70.385 332.239 C 70.168 332.810,69.649 333.367,69.232 333.476 C 68.815 333.585,68.385 334.015,68.276 334.432 C 68.167 334.849,67.635 335.359,67.093 335.564 C 66.552 335.770,66.008 336.326,65.884 336.799 C 65.761 337.272,65.303 337.753,64.867 337.867 C 64.431 337.981,63.981 338.431,63.867 338.867 C 63.753 339.303,63.308 339.751,62.878 339.864 C 62.449 339.976,61.907 340.487,61.673 340.999 C 61.440 341.511,60.897 342.042,60.468 342.179 C 60.038 342.315,59.590 342.794,59.473 343.243 C 59.355 343.692,58.886 344.157,58.430 344.276 C 57.973 344.396,57.600 344.751,57.600 345.065 C 57.600 345.380,57.070 345.941,56.422 346.313 C 55.774 346.685,55.157 347.320,55.052 347.724 C 54.946 348.129,54.503 348.553,54.067 348.667 C 53.631 348.781,53.185 349.215,53.076 349.632 C 52.967 350.049,52.410 350.568,51.839 350.785 C 51.267 351.002,50.800 351.459,50.800 351.799 C 50.800 352.139,50.365 352.615,49.834 352.857 C 49.303 353.099,48.780 353.633,48.673 354.044 C 48.565 354.454,48.010 354.968,47.439 355.185 C 46.867 355.402,46.400 355.859,46.400 356.199 C 46.400 356.539,45.965 357.015,45.434 357.257 C 44.903 357.499,44.376 358.049,44.264 358.478 C 44.151 358.908,43.708 359.351,43.278 359.464 C 42.849 359.576,42.307 360.087,42.073 360.599 C 41.840 361.111,41.297 361.642,40.868 361.779 C 40.438 361.915,39.990 362.394,39.873 362.843 C 39.755 363.292,39.303 363.753,38.867 363.867 C 38.431 363.981,37.985 364.415,37.876 364.832 C 37.767 365.249,37.210 365.768,36.639 365.985 C 36.067 366.202,35.600 366.659,35.600 366.999 C 35.600 367.339,35.165 367.815,34.634 368.057 C 34.103 368.299,33.576 368.849,33.464 369.278 C 33.351 369.708,32.929 370.146,32.524 370.252 C 32.120 370.357,31.485 370.974,31.113 371.622 C 30.741 372.270,30.180 372.800,29.865 372.800 C 29.551 372.800,29.196 373.173,29.076 373.630 C 28.957 374.086,28.508 374.551,28.078 374.664 C 27.649 374.776,27.107 375.287,26.873 375.799 C 26.640 376.311,26.097 376.842,25.668 376.979 C 25.238 377.115,24.790 377.594,24.673 378.043 C 24.555 378.492,24.086 378.957,23.630 379.076 C 22.826 379.286,22.711 379.587,22.697 381.500 C 22.693 381.995,22.490 382.403,22.245 382.406 C 22.000 382.410,22.050 382.570,22.357 382.765 C 22.663 382.959,23.338 383.071,23.857 383.014 C 24.375 382.957,24.800 383.065,24.800 383.255 C 24.800 383.448,102.480 383.597,200.900 383.594 C 314.739 383.590,376.788 383.451,376.400 383.200 C 375.926 382.894,376.015 382.811,376.820 382.806 C 377.381 382.803,378.092 382.575,378.401 382.300 C 378.878 381.875,378.882 381.904,378.432 382.500 C 377.974 383.105,378.003 383.204,378.651 383.230 C 379.063 383.246,379.850 383.325,380.400 383.404 C 380.950 383.484,381.175 383.456,380.900 383.341 C 380.289 383.087,380.237 382.400,380.829 382.400 C 381.382 382.400,382.400 381.382,382.400 380.829 C 382.400 380.237,383.087 380.289,383.341 380.900 C 383.456 381.175,383.484 380.950,383.404 380.400 C 383.325 379.850,383.246 379.063,383.230 378.651 C 383.204 378.003,383.105 377.974,382.500 378.432 C 381.904 378.882,381.875 378.878,382.300 378.401 C 382.575 378.092,382.803 377.381,382.806 376.820 C 382.811 376.015,382.894 375.926,383.200 376.400 C 383.451 376.788,383.590 314.739,383.594 200.900 C 383.597 102.480,383.448 24.800,383.255 24.800 C 383.065 24.800,382.957 24.375,383.014 23.857 C 383.071 23.338,382.959 22.663,382.765 22.357 C 382.570 22.050,382.410 22.000,382.406 22.245 M381.900 286.500 C 381.844 334.515,381.798 295.230,381.798 199.200 C 381.798 103.170,381.844 63.885,381.900 111.900 C 381.956 159.915,381.956 238.485,381.900 286.500 M148.700 111.500 C 171.415 111.557,208.585 111.557,231.300 111.500 C 254.015 111.443,235.430 111.396,190.000 111.396 C 144.570 111.396,125.985 111.443,148.700 111.500 M105.400 112.965 L 103.800 114.319 103.703 200.059 C 103.640 256.652,103.741 285.596,104.002 285.200 C 104.260 284.809,104.392 254.894,104.381 199.415 L 104.364 114.230 105.882 112.930 C 106.717 112.215,107.310 111.626,107.200 111.621 C 107.090 111.616,106.280 112.221,105.400 112.965 M275.800 112.416 C 277.120 112.841,278.380 113.177,278.600 113.163 C 279.288 113.120,275.043 111.663,274.200 111.653 C 273.760 111.647,274.480 111.991,275.800 112.416 M297.537 123.991 C 297.957 125.197,297.594 125.891,296.800 125.400 C 296.302 125.092,296.267 122.800,296.761 122.800 C 296.959 122.800,297.309 123.336,297.537 123.991 M299.811 128.449 C 300.005 129.335,299.900 129.872,299.441 130.330 C 298.853 130.919,298.800 130.798,298.800 128.862 C 298.800 126.609,299.357 126.381,299.811 128.449 M301.920 210.320 C 302.035 284.582,301.981 290.400,301.175 290.400 C 300.943 290.400,300.800 260.408,300.800 211.520 C 300.800 148.416,300.900 132.740,301.300 133.140 C 301.696 133.536,301.825 149.638,301.920 210.320 M147.048 142.959 C 146.130 143.745,145.586 144.515,145.716 144.844 C 145.904 145.318,145.942 145.318,145.968 144.842 C 145.986 144.536,146.675 143.688,147.500 142.959 C 148.325 142.230,148.910 141.633,148.800 141.632 C 148.690 141.631,147.902 142.228,147.048 142.959 M103.641 286.938 C 103.555 289.319,105.323 291.011,106.800 289.962 C 107.263 289.632,107.153 289.589,106.316 289.771 C 105.131 290.029,104.531 289.320,103.971 287.000 L 103.682 285.800 103.641 286.938 M298.311 292.337 C 299.963 293.385,296.368 293.600,277.200 293.600 C 258.032 293.600,254.437 293.385,256.089 292.337 C 256.370 292.158,265.870 292.012,277.200 292.012 C 288.530 292.012,298.030 292.158,298.311 292.337 M16.669 379.365 C 16.432 379.982,16.287 380.012,15.695 379.567 C 15.039 379.073,15.039 379.086,15.697 379.805 C 16.447 380.623,17.454 380.162,17.118 379.155 C 17.002 378.807,16.857 378.875,16.669 379.365 M381.608 381.390 C 381.330 381.726,380.916 382.000,380.689 382.000 C 380.462 382.000,380.603 381.639,381.002 381.198 C 381.829 380.283,382.381 380.459,381.608 381.390 M286.500 381.900 C 238.485 381.956,159.915 381.956,111.900 381.900 C 63.885 381.844,103.170 381.798,199.200 381.798 C 295.230 381.798,334.515 381.844,286.500 381.900 M20.015 385.382 C 18.830 386.809,17.662 386.800,200.000 386.800 C 324.572 386.800,380.032 386.672,380.211 386.382 C 381.233 384.728,389.393 384.800,200.000 384.800 C 43.330 384.800,20.436 384.874,20.015 385.382 " stroke="none" fill="#0be4b3" fill-rule="evenodd"></path></g></svg>