<?xml version="1.0" standalone="no"?>
<!DOCTYPE svg PUBLIC "-//W3C//DTD SVG 20010904//EN"
 "http://www.w3.org/TR/2001/REC-SVG-20010904/DTD/svg10.dtd">
<svg version="1.0" xmlns="http://www.w3.org/2000/svg"
 width="200.000000pt" height="200.000000pt" viewBox="0 0 200.000000 200.000000"
 preserveAspectRatio="xMidYMid meet">

<g transform="translate(0.000000,200.000000) scale(0.100000,-0.100000)"
fill="#E06200" stroke="none">
<path d="M310 1149 l0 -70 75 67 c41 37 75 69 75 71 0 2 -34 3 -75 3 l-75 0 0
-71z"/>
<path d="M217 1135 l-68 -75 70 0 71 0 0 75 c0 41 -1 75 -2 75 -2 0 -34 -34
-71 -75z"/>
<path d="M445 1180 c-3 -6 1 -7 9 -4 18 7 21 14 7 14 -6 0 -13 -4 -16 -10z"/>
<path d="M63 1173 c-8 -3 -13 -25 -13 -59 l0 -55 41 3 c66 5 73 29 24 77 -22
21 -46 37 -52 34z"/>
<path d="M610 1060 c0 -32 4 -49 10 -45 6 3 10 12 10 20 0 7 10 15 23 17 16 2
22 10 22 28 0 21 -5 26 -32 28 l-33 3 0 -51z m50 20 c0 -11 -7 -20 -15 -20 -8
0 -15 9 -15 20 0 11 7 20 15 20 8 0 15 -9 15 -20z"/>
<path d="M711 1058 c1 -43 3 -47 8 -23 l7 30 18 -28 c21 -30 34 -30 17 1 -7
13 -7 22 1 30 17 17 1 42 -27 42 -24 0 -25 -3 -24 -52z m39 27 c0 -8 -7 -15
-15 -15 -8 0 -15 7 -15 15 0 8 7 15 15 15 8 0 15 -7 15 -15z"/>
<path d="M812 1098 c-20 -20 -14 -66 9 -79 33 -17 69 3 69 39 0 33 -16 52 -45
52 -12 0 -26 -5 -33 -12z m61 -19 c15 -24 1 -49 -27 -49 -29 0 -44 33 -25 56
15 18 38 15 52 -7z"/>
<path d="M960 1065 c0 -52 16 -65 56 -47 17 8 24 20 24 40 0 36 -16 52 -52 52
-27 0 -28 -2 -28 -45z m58 -3 c3 -27 0 -32 -17 -32 -17 0 -21 6 -21 36 0 28 3
35 18 32 11 -2 18 -14 20 -36z"/>
<path d="M1070 1060 c0 -47 2 -50 25 -50 14 0 25 5 25 10 0 6 -7 10 -15 10
-20 0 -19 17 3 29 16 10 16 10 0 11 -10 0 -18 6 -18 14 0 8 8 17 18 19 10 3 6
5 -10 6 -27 1 -28 -1 -28 -49z"/>
<path d="M1150 1107 c0 -15 34 -97 40 -97 8 0 40 73 40 92 0 18 -14 0 -26 -35
l-12 -32 -16 38 c-14 31 -26 47 -26 34z"/>
<path d="M1307 1103 c-14 -14 -6 -34 18 -43 14 -5 25 -13 25 -18 0 -17 -13
-21 -31 -11 -12 6 -19 6 -19 0 0 -18 42 -24 57 -8 18 18 10 35 -24 48 -29 11
-21 33 9 23 14 -4 18 -2 14 5 -8 12 -39 15 -49 4z"/>
<path d="M1400 1060 c0 -47 2 -50 25 -50 14 0 25 5 25 10 0 6 -9 10 -20 10
-25 0 -26 16 -2 29 16 10 16 10 0 11 -25 0 -22 19 5 30 21 8 21 9 -5 9 -27 1
-28 -1 -28 -49z"/>
<path d="M1480 1060 c0 -32 4 -49 10 -45 6 3 10 16 10 28 1 21 2 20 18 -5 9
-16 20 -28 25 -28 4 0 5 6 0 12 -4 7 -7 29 -8 48 0 31 -3 35 -27 38 -27 3 -28
2 -28 -48z m48 22 c2 -7 -3 -12 -12 -12 -9 0 -16 7 -16 16 0 17 22 14 28 -4z"/>
<path d="M1573 1098 c2 -7 10 -30 18 -51 7 -20 17 -36 22 -34 13 4 49 97 38
97 -5 0 -15 -16 -21 -35 -13 -40 -25 -38 -35 5 -4 17 -11 30 -17 30 -6 0 -8
-6 -5 -12z"/>
<path d="M1680 1066 c0 -25 5 -48 10 -51 6 -4 10 13 10 44 0 28 -4 51 -10 51
-5 0 -10 -20 -10 -44z"/>
<path d="M1742 1098 c-19 -19 -15 -66 7 -78 26 -13 34 -13 57 5 18 14 17 14
-15 8 -33 -6 -50 6 -51 34 0 19 40 37 53 24 17 -17 31 -13 17 4 -15 18 -51 20
-68 3z"/>
<path d="M1850 1060 c0 -47 2 -50 26 -50 14 0 23 4 19 10 -3 6 -13 10 -21 10
-19 0 -18 10 4 26 16 13 16 13 0 14 -25 0 -22 19 5 30 21 8 21 9 -5 9 -27 1
-28 -1 -28 -49z"/>
<path d="M1937 1103 c-14 -14 -6 -34 18 -43 14 -5 25 -14 25 -19 0 -17 -20
-23 -35 -11 -10 8 -15 9 -15 2 0 -17 39 -25 55 -12 22 18 18 28 -15 45 -33 17
-31 40 2 29 14 -4 18 -2 14 5 -8 12 -39 15 -49 4z"/>
<path d="M145 960 l79 -80 28 72 c16 40 28 76 28 80 0 5 -48 8 -107 8 l-108 0
80 -80z"/>
<path d="M255 910 c-16 -46 -31 -87 -32 -90 -3 -6 58 -42 64 -37 2 3 2 51 1
108 l-3 104 -30 -85z"/>
<path d="M742 925 c0 -16 2 -22 5 -12 2 9 2 23 0 30 -3 6 -5 -1 -5 -18z"/>
<path d="M1000 925 c0 -14 2 -25 4 -25 2 0 6 11 8 25 3 14 1 25 -3 25 -5 0 -9
-11 -9 -25z"/>
<path d="M1062 925 c0 -16 2 -22 5 -12 2 9 2 23 0 30 -3 6 -5 -1 -5 -18z"/>
<path d="M1094 935 c-3 -8 -4 -20 -1 -27 3 -7 6 -3 6 9 1 12 7 24 14 26 9 4 9
6 -1 6 -7 1 -15 -6 -18 -14z"/>
<path d="M1494 935 c-3 -8 -4 -20 -2 -27 3 -7 7 -1 10 15 6 29 1 36 -8 12z"/>
<path d="M1650 930 c0 -19 3 -21 12 -12 9 9 9 15 0 24 -9 9 -12 7 -12 -12z"/>
<path d="M1682 930 c-17 -27 -15 -39 3 -16 15 20 15 20 16 0 0 -10 3 -14 5 -7
3 7 2 19 -3 27 -7 13 -10 13 -21 -4z"/>
<path d="M1974 935 c-3 -8 -4 -20 -1 -27 3 -7 6 -3 6 9 1 12 7 24 14 26 9 4 9
6 -1 6 -7 1 -15 -6 -18 -14z"/>
<path d="M711 924 c0 -11 3 -14 6 -6 3 7 2 16 -1 19 -3 4 -6 -2 -5 -13z"/>
<path d="M800 929 c0 -5 -4 -7 -10 -4 -14 9 -12 -1 3 -13 10 -8 13 -6 14 9 1
10 0 19 -3 19 -2 0 -4 -5 -4 -11z"/>
<path d="M892 920 c0 -14 2 -19 5 -12 2 6 2 18 0 25 -3 6 -5 1 -5 -13z"/>
<path d="M947 921 c-4 -17 -3 -21 5 -13 5 5 8 16 6 23 -3 8 -7 3 -11 -10z"/>
<path d="M1140 932 c0 -4 9 -13 20 -20 23 -14 26 -7 6 14 -16 15 -26 18 -26 6z"/>
<path d="M1301 931 c-8 -6 -9 -11 -3 -15 6 -3 14 -1 17 5 9 14 2 20 -14 10z"/>
<path d="M1402 920 c0 -14 2 -19 5 -12 2 6 2 18 0 25 -3 6 -5 1 -5 -13z"/>
<path d="M1444 921 c20 -22 26 -25 26 -13 0 4 -10 13 -22 21 -23 14 -23 14 -4
-8z"/>
<path d="M1531 924 c0 -11 3 -14 6 -6 3 7 2 16 -1 19 -3 4 -6 -2 -5 -13z"/>
<path d="M1620 929 c0 -5 -4 -7 -10 -4 -5 3 -10 2 -10 -3 0 -19 26 -20 27 -1
1 10 0 19 -3 19 -2 0 -4 -5 -4 -11z"/>
<path d="M1730 918 c-10 -21 -10 -22 3 -5 11 14 16 15 20 5 4 -9 6 -9 6 -1 2
23 -18 23 -29 1z"/>
<path d="M1791 924 c0 -11 3 -14 6 -6 3 7 2 16 -1 19 -3 4 -6 -2 -5 -13z"/>
<path d="M1821 924 c0 -11 3 -14 6 -6 3 7 2 16 -1 19 -3 4 -6 -2 -5 -13z"/>
<path d="M1911 924 c0 -11 3 -14 6 -6 3 7 2 16 -1 19 -3 4 -6 -2 -5 -13z"/>
<path d="M624 919 c2 -15 20 -13 24 3 3 10 2 10 -6 -1 -7 -9 -11 -10 -15 -2
-4 7 -5 8 -3 0z"/>
<path d="M831 914 c0 -11 3 -14 6 -6 3 7 2 16 -1 19 -3 4 -6 -2 -5 -13z"/>
<path d="M971 914 c0 -11 3 -14 6 -6 3 7 2 16 -1 19 -3 4 -6 -2 -5 -13z"/>
<path d="M1021 914 c0 -11 3 -14 6 -6 3 7 2 16 -1 19 -3 4 -6 -2 -5 -13z"/>
<path d="M1886 913 c-6 -14 -5 -15 5 -6 7 7 10 15 7 18 -3 3 -9 -2 -12 -12z"/>
<path d="M1200 909 c0 -5 5 -7 10 -4 6 3 10 8 10 11 0 2 -4 4 -10 4 -5 0 -10
-5 -10 -11z"/>
</g>
</svg>
