<?xml version="1.0" standalone="no"?>
<!DOCTYPE svg PUBLIC "-//W3C//DTD SVG 20010904//EN"
 "http://www.w3.org/TR/2001/REC-SVG-20010904/DTD/svg10.dtd">
<svg version="1.0" xmlns="http://www.w3.org/2000/svg"
 width="435.000000pt" height="145.000000pt" viewBox="0 0 435.000000 145.000000"
 preserveAspectRatio="xMidYMid meet">

<g transform="translate(0.000000,145.000000) scale(0.100000,-0.100000)"
fill="#16CBD7" stroke="none">
<path d="M3936 1071 c-4 -6 -4 -107 0 -225 8 -243 16 -273 86 -311 34 -18 39
-19 53 -4 15 15 15 18 0 33 -9 9 -23 16 -30 16 -8 0 -23 12 -32 27 -15 23 -19
59 -23 248 -5 216 -5 220 -27 223 -11 2 -24 -1 -27 -7z"/>
<path d="M3055 1008 c-2 -7 -6 -33 -7 -58 -3 -41 -6 -45 -32 -50 -30 -5 -48
-29 -24 -32 7 0 18 -2 23 -3 6 -2 16 -3 23 -4 9 -1 12 -33 12 -126 0 -135 9
-169 52 -199 28 -20 82 -21 98 -1 17 21 4 35 -34 35 -19 0 -38 6 -43 13 -6 6
-13 69 -17 139 -7 140 -6 143 54 140 19 -1 41 2 49 7 25 16 1 31 -49 31 l-49
0 -3 58 c-3 50 -6 57 -26 60 -12 2 -24 -3 -27 -10z"/>
<path d="M424 911 c-51 -9 -103 -45 -119 -85 -9 -21 -14 -102 -16 -251 l-4
-220 28 -3 27 -3 0 110 c0 61 3 111 6 111 3 0 19 -10 36 -21 32 -23 101 -35
142 -25 46 12 85 54 103 114 9 32 16 62 15 67 -7 91 -28 141 -71 178 -18 15
-43 27 -56 27 -13 0 -29 2 -37 4 -7 2 -31 0 -54 -3z m86 -62 c50 -15 70 -51
70 -127 0 -69 -26 -126 -63 -136 -35 -9 -94 -7 -119 5 -29 13 -58 74 -58 121
0 56 33 124 67 136 38 14 59 14 103 1z"/>
<path d="M727 903 c-4 -3 -7 -64 -7 -135 0 -115 2 -133 22 -167 50 -87 165
-107 234 -40 19 18 34 38 34 45 0 7 6 14 13 16 8 3 13 43 15 141 4 123 2 138
-13 144 -10 3 -25 1 -34 -4 -13 -9 -15 -25 -13 -89 8 -177 -17 -234 -102 -234
-39 0 -48 4 -76 38 l-31 37 1 115 c1 63 2 121 1 128 -1 13 -33 17 -44 5z"/>
<path d="M1187 874 c-44 -45 -59 -96 -64 -230 -4 -84 -2 -103 12 -114 12 -10
21 -11 33 -3 14 9 17 30 17 137 0 78 4 130 11 134 6 4 13 15 17 25 4 9 20 20
36 23 34 7 66 37 56 53 -3 6 -23 11 -44 11 -30 0 -45 -7 -74 -36z"/>
<path d="M1450 903 c-8 -3 -17 -9 -20 -12 -3 -3 -14 -11 -25 -17 -18 -9 -28
-26 -67 -106 -14 -31 -9 -102 12 -142 23 -47 49 -76 66 -76 7 0 14 -6 16 -12
3 -9 34 -14 94 -16 99 -3 137 9 142 46 4 23 3 23 -81 16 -47 -4 -96 -4 -109
-1 -40 10 -77 52 -80 89 l-3 33 140 0 140 0 0 56 c0 46 -5 63 -29 93 -15 21
-39 41 -53 47 -26 10 -118 11 -143 2z m162 -100 c9 -18 13 -35 10 -38 -3 -3
-54 -5 -114 -5 -101 0 -108 1 -108 20 0 11 4 20 9 20 5 0 11 7 13 16 2 9 23
24 48 33 40 15 49 15 86 2 30 -11 46 -24 56 -48z"/>
<path d="M1834 891 c-18 -11 -45 -36 -60 -57 -24 -31 -29 -48 -32 -108 -2 -55
1 -79 16 -106 29 -52 80 -89 134 -96 59 -8 125 23 172 80 44 55 46 60 36 76
-7 12 -21 4 -64 -39 -52 -52 -58 -55 -115 -59 -56 -4 -61 -2 -95 29 -64 59
-66 147 -6 208 61 61 140 49 219 -33 34 -34 48 -43 58 -35 10 9 10 16 -2 38
-17 34 -88 99 -121 111 -41 16 -106 11 -140 -9z"/>
<path d="M2283 894 c-30 -15 -74 -57 -141 -137 l-32 -39 19 -26 c10 -15 49
-57 85 -94 55 -57 72 -68 110 -73 24 -4 59 -4 76 0 46 10 117 84 126 130 11
61 0 140 -26 177 -48 70 -144 98 -217 62z m124 -49 c50 -21 75 -57 81 -116 3
-36 -1 -56 -18 -87 -28 -50 -64 -66 -130 -60 -45 5 -55 11 -110 65 -33 34 -60
65 -60 70 0 14 113 121 140 132 36 14 54 13 97 -4z"/>
<path d="M2683 881 c-22 -16 -45 -42 -50 -57 -13 -32 -26 -256 -17 -279 8 -21
44 -19 45 3 0 9 0 63 -1 119 -1 120 12 159 64 187 44 23 87 14 121 -26 24 -28
25 -35 25 -159 0 -106 3 -131 15 -135 35 -14 45 14 45 125 0 96 -3 111 -28
160 -47 93 -140 119 -219 62z"/>
<path d="M3375 901 c-11 -5 -33 -23 -48 -40 -35 -40 -49 -110 -45 -233 3 -85
5 -93 23 -93 19 0 20 8 25 130 5 119 7 132 29 157 13 15 41 34 63 43 22 9 38
21 35 28 -4 15 -54 19 -82 8z"/>
<path d="M3595 895 c-48 -25 -81 -66 -100 -124 -17 -51 -17 -57 -1 -108 32
-99 114 -153 211 -138 39 5 57 16 95 55 39 38 50 56 55 94 13 85 -15 160 -77
206 -42 31 -138 39 -183 15z m155 -55 c59 -42 77 -133 38 -201 -50 -89 -174
-91 -228 -5 -31 51 -26 140 11 179 56 60 119 70 179 27z"/>
</g>
</svg>
