<?xml version="1.0" standalone="no"?>
<!DOCTYPE svg PUBLIC "-//W3C//DTD SVG 20010904//EN"
 "http://www.w3.org/TR/2001/REC-SVG-20010904/DTD/svg10.dtd">
<svg version="1.0" xmlns="http://www.w3.org/2000/svg"
 width="320.000000pt" height="132.000000pt" viewBox="0 0 320.000000 132.000000"
 preserveAspectRatio="xMidYMid meet">

<g transform="translate(0.000000,132.000000) scale(0.100000,-0.100000)"
fill="#000000" stroke="none">
<path d="M111 802 c-71 -36 -76 -52 -76 -250 0 -160 2 -177 18 -180 15 -3 17
6 17 92 l0 95 38 -25 c101 -70 231 27 207 155 -21 110 -112 161 -204 113z
m113 -22 c33 -12 56 -59 56 -115 0 -52 -12 -82 -44 -107 -43 -35 -131 -13
-155 39 -26 56 -5 158 36 182 23 13 74 14 107 1z"/>
<path d="M802 805 c-50 -22 -72 -79 -72 -192 0 -86 1 -93 20 -93 19 0 20 7 20
106 0 103 1 106 29 135 16 16 39 29 50 29 12 0 21 6 21 15 0 19 -25 19 -68 0z"/>
<path d="M980 801 c-75 -39 -104 -153 -57 -222 12 -19 38 -42 57 -51 57 -29
172 -19 178 15 3 15 0 16 -23 7 -14 -5 -49 -10 -77 -10 -44 0 -54 4 -84 34
-21 21 -34 44 -34 60 l0 26 121 0 121 0 -7 37 c-11 58 -33 93 -70 109 -46 19
-83 18 -125 -5z m131 -40 c16 -16 29 -39 29 -50 0 -20 -5 -21 -100 -21 -115 0
-124 8 -66 66 45 45 95 47 137 5z"/>
<path d="M390 715 c0 -107 14 -154 53 -180 63 -41 139 -24 177 38 26 42 30
237 5 237 -12 0 -15 -17 -15 -90 0 -134 -25 -180 -100 -180 -19 0 -40 9 -55
25 -24 23 -25 31 -25 135 0 103 -1 110 -20 110 -19 0 -20 -7 -20 -95z"/>
</g>
</svg>
