<svg id="svg" version="1.1" xmlns="http://www.w3.org/2000/svg" xmlns:xlink="http://www.w3.org/1999/xlink" width="400" height="357.79816513761466" viewBox="0, 0, 400,357.79816513761466"><g id="svgg"><path id="path0" d="M138.026 86.506 C 137.888 87.427,137.859 95.050,137.963 103.446 L 138.151 118.711 139.106 121.755 C 139.631 123.429,140.282 125.201,140.552 125.694 C 140.823 126.186,141.351 127.234,141.726 128.021 C 142.101 128.809,142.676 129.675,143.004 129.945 C 143.331 130.216,143.599 130.596,143.599 130.790 C 143.599 130.984,143.913 131.488,144.297 131.910 C 146.831 134.693,147.886 135.721,148.208 135.721 C 148.411 135.721,148.706 135.950,148.863 136.231 C 151.116 140.248,167.861 144.539,172.318 142.241 C 172.771 142.007,174.145 141.588,175.370 141.309 C 176.595 141.030,178.027 140.465,178.552 140.052 C 179.076 139.639,179.784 139.302,180.124 139.302 C 180.465 139.302,181.323 138.859,182.031 138.317 C 182.739 137.775,183.901 136.929,184.613 136.437 C 186.064 135.433,185.996 135.497,188.218 133.035 C 189.107 132.050,190.086 130.761,190.393 130.170 C 190.701 129.579,191.234 128.774,191.579 128.380 C 191.925 127.986,192.319 127.193,192.455 126.617 C 192.592 126.042,193.016 125.174,193.397 124.689 C 193.779 124.204,194.092 123.385,194.094 122.870 C 194.095 122.355,194.417 120.594,194.810 118.957 C 195.648 115.463,195.720 112.288,195.024 109.565 C 194.749 108.490,194.421 106.885,194.294 105.998 C 194.101 104.638,193.107 102.124,191.888 99.910 C 191.725 99.615,191.269 98.777,190.874 98.049 C 190.106 96.632,189.474 95.887,186.301 92.659 C 185.188 91.526,184.093 90.600,183.868 90.600 C 183.643 90.600,183.160 90.270,182.795 89.866 C 182.038 89.030,177.247 86.665,176.286 86.653 C 175.936 86.649,174.924 86.288,174.038 85.851 C 172.452 85.069,172.150 85.054,155.352 84.944 L 138.277 84.832 138.026 86.506 M165.450 221.958 C 163.447 222.101,162.936 222.515,162.936 223.996 C 162.936 224.847,162.693 225.323,162.041 225.750 C 161.322 226.222,161.145 226.634,161.141 227.851 C 161.133 230.383,160.846 230.976,159.627 230.976 C 158.591 230.976,158.561 231.021,158.838 232.140 C 159.353 234.223,159.134 236.109,158.312 236.655 C 157.735 237.038,157.564 237.529,157.560 238.808 C 157.553 241.100,157.291 241.870,156.379 242.270 C 155.689 242.573,155.595 242.891,155.595 244.942 C 155.595 247.012,155.506 247.309,154.790 247.623 C 153.141 248.346,154.068 249.955,156.132 249.955 C 157.673 249.955,158.281 249.436,158.281 248.122 C 158.281 246.529,158.585 246.105,159.587 246.297 C 160.475 246.466,160.495 246.427,160.375 244.722 L 160.251 242.972 164.162 242.870 L 168.072 242.768 169.133 243.928 C 170.005 244.884,170.225 245.488,170.373 247.340 C 170.615 250.345,170.777 250.441,175.313 250.239 C 179.944 250.033,180.933 249.471,179.311 247.967 C 178.444 247.163,178.335 246.805,178.335 244.772 C 178.335 242.799,178.236 242.452,177.619 242.256 C 176.668 241.954,176.404 240.721,176.654 237.741 C 176.856 235.324,176.843 235.273,176.010 235.273 C 174.889 235.273,174.618 234.332,174.921 231.498 L 175.163 229.238 174.153 229.122 L 173.142 229.006 173.142 225.872 C 173.142 223.083,173.071 222.738,172.492 222.739 C 172.135 222.739,171.545 222.580,171.181 222.386 C 170.430 221.984,167.823 221.790,165.450 221.958 M243.509 222.444 L 241.898 223.277 241.719 225.948 C 241.552 228.437,241.479 228.634,240.645 228.832 C 239.779 229.038,239.753 229.127,239.874 231.577 C 239.986 233.859,239.921 234.164,239.206 234.664 C 238.628 235.069,238.371 235.685,238.255 236.947 C 237.991 239.809,237.833 240.229,236.973 240.351 C 236.235 240.456,236.178 240.625,236.287 242.384 C 236.466 245.274,236.184 246.016,234.908 246.016 C 234.321 246.016,233.841 246.107,233.841 246.217 C 233.841 246.731,235.023 249.960,235.225 249.996 C 238.261 250.541,238.854 250.125,238.854 247.444 C 238.854 245.594,238.966 245.243,239.712 244.754 C 240.184 244.445,240.654 243.872,240.756 243.481 C 240.930 242.816,241.207 242.776,245.001 242.871 L 249.060 242.972 249.060 244.584 C 249.060 245.975,249.168 246.211,249.854 246.308 C 250.455 246.394,250.705 246.741,250.884 247.740 C 251.288 249.996,251.819 250.313,255.195 250.313 C 258.746 250.313,259.238 249.885,259.213 246.822 C 259.200 245.242,259.092 244.942,258.539 244.942 C 257.497 244.942,257.153 242.789,257.667 239.481 C 257.926 237.812,257.913 237.780,256.978 237.780 C 255.435 237.780,255.001 235.552,255.914 232.319 C 256.054 231.823,255.870 231.692,255.035 231.692 C 253.788 231.692,253.548 231.106,253.541 228.034 C 253.537 226.379,253.404 225.917,252.842 225.616 C 252.386 225.372,252.064 224.690,251.906 223.634 C 251.690 222.194,251.564 222.023,250.720 222.021 C 250.201 222.019,248.729 221.927,247.449 221.815 C 245.465 221.641,244.882 221.734,243.509 222.444 M129.429 235.989 L 129.454 249.954 131.244 250.015 C 138.589 250.261,138.323 250.482,138.185 244.244 C 138.058 238.507,138.226 237.780,139.677 237.780 C 140.705 237.780,140.717 237.803,140.503 239.363 C 140.293 240.896,140.319 240.950,141.302 241.064 C 142.511 241.204,142.795 241.963,142.847 245.186 C 142.877 247.036,142.996 247.436,143.569 247.618 C 143.946 247.738,144.422 248.313,144.625 248.896 C 144.991 249.945,145.019 249.955,147.740 249.955 L 150.486 249.955 151.882 248.433 C 153.211 246.983,153.239 246.906,152.467 246.797 C 150.913 246.576,149.997 242.984,151.191 241.791 C 151.525 241.456,151.408 241.361,150.666 241.361 C 148.871 241.361,148.188 238.060,149.852 237.427 C 150.420 237.211,150.842 236.673,151.038 235.914 C 151.278 234.988,151.530 234.736,152.216 234.736 L 153.089 234.736 153.156 230.081 C 153.193 227.520,153.139 225.627,153.036 225.873 C 152.595 226.932,151.506 226.324,151.112 224.799 C 150.895 223.962,150.636 222.995,150.536 222.650 C 150.369 222.072,149.548 222.023,139.879 222.023 L 129.404 222.023 129.429 235.989 M181.391 222.362 C 181.232 222.619,181.076 233.540,181.148 239.391 C 181.153 239.785,181.080 241.558,180.986 243.330 C 180.688 248.923,181.691 250.591,185.008 250.019 C 186.443 249.772,186.795 239.680,185.497 235.989 C 184.615 233.481,184.608 232.342,185.469 231.284 L 186.157 230.439 186.543 231.447 C 186.756 232.001,186.929 233.507,186.929 234.793 C 186.929 236.781,187.030 237.157,187.604 237.307 C 188.655 237.582,189.216 243.346,188.349 244.965 C 188.029 245.563,188.099 245.658,188.865 245.658 C 189.964 245.658,190.261 246.114,190.501 248.165 L 190.689 249.776 193.644 249.880 C 195.269 249.937,196.612 249.857,196.629 249.701 C 196.647 249.545,196.709 248.264,196.767 246.854 C 196.888 243.964,197.062 243.509,198.052 243.509 C 198.687 243.509,198.747 243.239,198.747 240.342 C 198.747 237.629,198.849 237.082,199.463 236.526 C 199.955 236.081,200.180 235.420,200.183 234.412 C 200.189 232.037,200.588 230.260,201.114 230.260 C 201.908 230.260,202.005 231.662,201.483 235.596 C 200.738 241.209,201.389 249.886,202.578 250.184 C 203.524 250.422,208.982 250.224,209.264 249.942 C 209.596 249.610,209.898 225.859,209.594 223.993 L 209.303 222.202 204.597 222.103 L 199.891 222.003 199.641 223.824 C 199.495 224.885,199.108 225.907,198.713 226.275 C 198.189 226.764,197.982 227.632,197.802 230.105 C 197.611 232.731,197.418 233.485,196.726 234.316 C 196.262 234.872,195.882 235.571,195.882 235.868 C 195.882 236.164,195.680 236.338,195.434 236.254 C 194.983 236.099,194.911 235.068,195.192 232.766 C 195.330 231.632,195.255 231.503,194.401 231.404 C 193.247 231.270,193.017 230.387,193.017 226.097 C 193.017 223.393,192.950 223.098,192.339 223.098 C 191.966 223.098,191.568 222.856,191.455 222.560 C 191.216 221.937,181.769 221.750,181.391 222.362 M214.347 223.605 C 214.181 224.716,213.854 225.354,213.249 225.751 C 212.133 226.482,211.648 238.165,212.743 237.953 C 213.618 237.784,214.049 238.205,214.402 239.571 L 214.726 240.824 219.642 241.003 C 225.070 241.200,225.231 241.273,225.241 243.527 C 225.249 245.527,224.907 245.658,219.692 245.658 C 216.119 245.658,214.832 245.784,214.303 246.184 C 213.921 246.473,213.245 246.715,212.802 246.721 C 212.124 246.731,212.004 246.917,212.045 247.896 C 212.078 248.668,212.145 248.801,212.244 248.293 C 212.429 247.349,213.787 247.549,213.787 248.521 C 213.787 250.012,214.559 250.139,222.883 250.021 C 232.747 249.880,231.730 251.056,231.609 239.941 L 231.513 231.155 226.141 230.976 C 223.187 230.877,220.810 230.676,220.859 230.528 C 220.909 230.380,220.949 229.949,220.949 229.568 C 220.949 229.136,221.251 228.819,221.755 228.722 C 222.556 228.568,222.556 228.566,221.779 228.518 C 220.981 228.468,220.361 227.341,220.768 226.682 C 220.896 226.475,222.644 226.321,224.859 226.321 C 226.987 226.321,229.475 226.218,230.389 226.093 L 232.050 225.865 232.050 223.944 L 232.050 222.023 223.317 222.023 L 214.584 222.023 214.347 223.605 M144.179 226.781 C 144.651 227.253,144.773 231.194,144.342 232.000 C 143.976 232.685,143.627 232.766,141.080 232.766 L 138.227 232.766 138.175 231.603 C 138.090 229.705,138.206 227.251,138.406 226.729 C 138.608 226.203,143.647 226.249,144.179 226.781 M245.372 231.819 C 245.276 233.298,245.346 233.483,246.007 233.483 C 247.253 233.483,248.040 237.045,247.019 238.066 C 245.227 239.858,242.210 238.110,242.613 235.515 C 242.972 233.205,243.124 232.857,243.856 232.666 C 244.344 232.538,244.482 232.274,244.341 231.737 C 244.085 230.756,244.465 229.800,245.032 229.999 C 245.325 230.102,245.442 230.728,245.372 231.819 M165.671 230.894 C 166.324 231.423,166.462 231.997,166.611 234.830 C 166.810 238.603,166.552 238.912,163.749 238.253 C 161.995 237.841,161.412 235.273,163.073 235.273 C 164.232 235.273,164.464 234.853,163.990 233.606 C 163.119 231.317,164.146 229.661,165.671 230.894 " stroke="none" fill="#f1f5f9" fill-rule="evenodd"></path><path id="path1" d="M137.153 172.742 C 137.153 173.554,137.006 173.607,134.109 173.848 L 131.065 174.102 131.065 175.427 C 131.065 176.637,131.151 176.750,132.050 176.737 C 132.988 176.724,133.040 176.813,133.143 178.603 C 133.242 180.315,133.328 180.483,134.104 180.483 C 134.768 180.483,134.982 180.701,135.070 181.468 C 135.151 182.173,135.412 182.485,135.989 182.567 C 136.642 182.660,136.795 182.910,136.795 183.881 C 136.795 185.544,137.114 186.213,137.908 186.213 C 138.392 186.213,138.585 186.469,138.585 187.108 C 138.585 187.818,138.766 188.004,139.456 188.004 C 140.080 188.004,140.359 188.227,140.441 188.795 C 140.512 189.291,140.884 189.663,141.437 189.792 C 141.990 189.922,142.397 190.329,142.526 190.881 C 142.656 191.435,143.028 191.806,143.524 191.878 C 144.092 191.960,144.315 192.238,144.315 192.863 C 144.315 193.553,144.501 193.733,145.210 193.733 C 145.927 193.733,146.106 193.912,146.106 194.628 C 146.106 195.345,146.285 195.524,147.001 195.524 C 147.717 195.524,147.896 195.703,147.896 196.419 C 147.896 197.135,148.075 197.314,148.791 197.314 C 149.501 197.314,149.687 197.495,149.687 198.186 C 149.687 198.870,149.898 199.081,150.671 199.170 C 151.363 199.250,151.689 199.514,151.767 200.059 C 151.827 200.486,152.118 200.927,152.412 201.040 C 152.757 201.172,152.856 201.098,152.690 200.830 C 152.517 200.549,152.636 200.493,153.059 200.655 C 153.403 200.787,154.074 200.895,154.550 200.895 C 155.270 200.895,155.416 201.073,155.416 201.949 C 155.416 202.994,155.430 203.001,157.207 202.852 L 158.997 202.701 158.997 203.801 L 158.997 204.900 160.877 204.778 C 162.722 204.658,162.757 204.674,162.743 205.640 L 162.729 206.625 165.340 206.625 C 167.885 206.625,167.950 206.647,167.950 207.520 C 167.950 208.408,167.976 208.415,171.134 208.415 C 174.232 208.415,174.324 208.440,174.543 209.311 L 174.767 210.206 192.673 210.206 L 210.579 210.206 210.987 209.311 C 211.380 208.449,211.521 208.415,214.715 208.415 C 217.885 208.415,218.040 208.379,218.149 207.610 C 218.246 206.927,218.509 206.790,219.875 206.713 C 222.937 206.540,223.814 206.282,223.814 205.553 C 223.814 204.984,224.122 204.854,225.679 204.764 C 227.333 204.668,227.569 204.554,227.757 203.760 C 227.954 202.931,228.120 202.867,229.990 202.895 C 231.102 202.912,232.001 202.832,231.988 202.716 C 231.887 201.783,232.169 201.286,232.856 201.189 C 233.428 201.107,233.694 200.795,233.773 200.107 C 233.877 199.212,234.022 199.133,235.743 199.033 C 237.414 198.936,237.596 198.845,237.558 198.120 C 237.525 197.499,237.710 197.314,238.364 197.314 C 239.030 197.314,239.212 197.122,239.212 196.419 C 239.212 195.703,239.391 195.524,240.107 195.524 C 240.817 195.524,241.003 195.343,241.003 194.652 C 241.003 193.968,241.214 193.756,241.987 193.667 C 242.693 193.586,243.005 193.325,243.087 192.748 C 243.170 192.165,243.442 191.943,244.071 191.943 C 244.800 191.943,244.942 191.767,244.942 190.868 C 244.942 190.278,245.063 189.813,245.210 189.836 C 246.268 190.004,246.732 189.718,246.732 188.899 C 246.732 188.183,246.911 188.004,247.628 188.004 C 248.344 188.004,248.523 187.825,248.523 187.108 C 248.523 186.392,248.702 186.213,249.418 186.213 C 250.114 186.213,250.313 186.029,250.313 185.387 C 250.313 184.808,250.609 184.457,251.298 184.214 C 252.174 183.906,252.283 183.691,252.283 182.265 C 252.283 180.783,252.357 180.654,253.268 180.549 C 253.952 180.470,254.252 180.231,254.252 179.764 C 254.252 179.394,254.559 178.877,254.934 178.614 C 255.588 178.156,255.809 177.048,255.721 174.664 L 255.685 173.679 248.165 173.679 L 240.645 173.679 240.645 174.575 C 240.645 175.425,240.542 175.470,238.585 175.475 C 236.375 175.481,235.810 175.699,235.810 176.544 C 235.810 176.840,235.448 177.133,235.004 177.196 C 234.421 177.279,234.199 177.551,234.199 178.181 C 234.199 178.995,234.075 179.051,232.258 179.051 C 230.159 179.051,228.893 179.365,229.494 179.737 C 231.070 180.711,223.962 181.321,216.229 180.876 C 215.892 180.857,215.577 180.488,215.513 180.036 C 215.413 179.331,215.179 179.226,213.648 179.198 C 212.126 179.171,211.832 179.040,211.392 178.200 C 210.961 177.379,210.687 177.249,209.561 177.337 C 208.352 177.431,208.226 177.353,208.123 176.455 C 208.015 175.517,207.918 175.470,206.089 175.470 C 204.369 175.470,204.156 175.385,204.054 174.664 L 203.939 173.859 194.270 173.859 L 184.602 173.859 184.687 174.664 C 184.767 175.422,184.640 175.470,182.538 175.475 C 180.146 175.481,179.555 175.695,179.580 176.544 C 179.590 176.869,179.169 177.152,178.518 177.261 C 177.741 177.390,177.408 177.665,177.325 178.245 C 177.225 178.949,176.987 179.057,175.445 179.096 C 174.474 179.120,173.518 179.181,173.321 179.230 C 173.124 179.279,172.817 179.340,172.639 179.364 C 172.460 179.389,172.394 179.716,172.492 180.091 C 172.743 181.049,172.200 181.132,165.622 181.149 C 159.206 181.165,158.639 181.081,158.639 180.108 C 158.639 179.371,157.764 179.062,155.975 179.168 C 155.124 179.218,154.879 179.058,154.702 178.335 C 154.508 177.547,154.291 177.440,152.890 177.440 C 151.420 177.440,151.289 177.364,151.185 176.455 C 151.079 175.531,150.964 175.470,149.330 175.470 C 147.796 175.470,147.574 175.374,147.473 174.664 C 147.365 173.902,147.156 173.848,143.599 173.660 C 141.531 173.551,139.965 173.430,140.120 173.391 C 140.275 173.353,140.229 172.999,140.018 172.605 C 139.417 171.482,137.153 171.590,137.153 172.742 M219.606 252.351 C 219.951 252.441,220.515 252.441,220.859 252.351 C 221.204 252.261,220.922 252.187,220.233 252.187 C 219.543 252.187,219.261 252.261,219.606 252.351 " stroke="none" fill="#67ba5e" fill-rule="evenodd"></path><path id="path2" d="M137.243 70.783 C 136.996 70.883,136.795 71.353,136.795 71.829 C 136.795 72.629,136.659 72.695,135.004 72.695 C 133.333 72.695,133.214 72.754,133.214 73.590 C 133.214 74.346,133.047 74.485,132.140 74.485 C 131.232 74.485,131.065 74.624,131.065 75.380 C 131.065 76.256,131.006 76.276,128.380 76.276 L 125.694 76.276 125.694 78.066 C 125.694 79.737,125.634 79.857,124.799 79.857 C 124.082 79.857,123.903 80.036,123.903 80.752 C 123.903 81.489,123.729 81.648,122.919 81.652 C 121.096 81.661,120.322 82.038,120.322 82.917 C 120.322 83.504,120.087 83.779,119.517 83.861 C 118.712 83.975,118.711 83.989,118.711 90.958 C 118.711 97.927,118.712 97.941,119.517 98.055 L 120.322 98.170 120.328 124.197 C 120.333 150.422,120.350 150.804,121.486 151.223 C 122.026 151.423,122.113 151.951,122.113 155.022 C 122.113 158.449,122.145 158.594,122.919 158.704 C 123.653 158.808,123.740 159.055,123.903 161.504 C 124.067 163.953,124.153 164.200,124.888 164.304 C 125.471 164.387,125.694 164.659,125.694 165.289 C 125.694 166.133,125.774 166.159,128.380 166.159 C 131.006 166.159,131.065 166.139,131.065 165.264 L 131.065 164.369 135.900 164.369 C 139.993 164.369,140.734 164.453,140.734 164.915 C 140.734 165.653,142.199 166.159,144.338 166.159 C 145.652 166.159,146.106 166.294,146.106 166.684 C 146.106 167.362,147.219 167.950,148.504 167.950 C 149.211 167.950,149.624 168.193,149.870 168.756 C 150.180 169.462,150.529 169.575,152.706 169.669 C 154.802 169.759,155.315 169.912,156.001 170.653 L 156.815 171.531 165.963 171.531 L 175.112 171.531 175.112 170.651 C 175.112 169.808,175.218 169.767,177.708 169.667 C 180.091 169.570,180.314 169.495,180.419 168.756 C 180.508 168.125,180.766 167.950,181.606 167.950 C 182.945 167.950,184.064 167.373,184.064 166.684 C 184.064 166.278,184.584 166.159,186.367 166.159 C 188.586 166.159,189.794 165.645,189.794 164.701 C 189.794 164.518,191.479 164.369,193.554 164.369 C 195.629 164.369,197.314 164.518,197.314 164.701 C 197.314 165.645,198.523 166.159,200.742 166.159 C 202.566 166.159,203.044 166.273,203.044 166.705 C 203.044 167.311,204.421 167.950,205.728 167.950 C 206.334 167.950,206.608 168.179,206.690 168.756 C 206.795 169.495,207.018 169.570,209.400 169.667 C 211.890 169.767,211.996 169.808,211.996 170.651 L 211.996 171.531 221.128 171.531 L 230.260 171.531 230.260 170.636 C 230.260 169.760,230.319 169.740,232.945 169.740 C 235.556 169.740,235.631 169.716,235.631 168.864 C 235.631 168.059,235.785 167.978,237.511 167.879 C 239.138 167.785,239.406 167.664,239.504 166.980 C 239.606 166.260,239.846 166.180,242.189 166.085 C 244.548 165.989,244.772 165.913,244.877 165.175 C 245.057 163.906,255.927 163.906,256.108 165.175 C 256.298 166.514,261.415 166.615,261.415 165.280 C 261.415 164.547,261.589 164.369,262.310 164.369 C 263.143 164.369,263.205 164.247,263.205 162.617 C 263.205 161.047,263.298 160.842,264.100 160.641 C 264.980 160.420,264.996 160.356,264.996 156.842 C 264.996 153.318,265.008 153.268,265.846 153.268 C 267.067 153.268,267.144 152.521,267.144 140.692 L 267.144 130.355 266.083 129.409 C 265.083 128.518,265.016 128.288,264.919 125.378 C 264.823 122.486,264.766 122.285,264.011 122.177 C 263.316 122.079,263.205 121.848,263.205 120.500 C 263.205 118.547,262.675 117.099,261.961 117.099 C 261.538 117.099,261.415 116.659,261.415 115.155 C 261.415 113.411,261.331 113.198,260.609 113.096 C 259.937 113.000,259.785 112.725,259.692 111.442 C 259.604 110.215,259.404 109.822,258.707 109.504 C 258.143 109.247,257.833 108.809,257.833 108.268 C 257.833 107.619,257.637 107.431,256.958 107.431 C 256.167 107.431,256.072 107.265,255.973 105.730 C 255.880 104.278,255.746 104.012,255.058 103.914 C 254.470 103.831,254.252 103.560,254.252 102.913 C 254.252 102.426,253.850 101.624,253.357 101.131 C 252.865 100.639,252.462 99.907,252.462 99.505 C 252.462 99.022,252.098 98.637,251.388 98.368 C 250.627 98.081,250.313 97.725,250.313 97.146 C 250.313 96.514,250.111 96.329,249.418 96.329 C 248.702 96.329,248.523 96.150,248.523 95.434 C 248.523 94.718,248.344 94.539,247.628 94.539 C 246.911 94.539,246.732 94.360,246.732 93.644 C 246.732 92.927,246.553 92.748,245.837 92.748 C 245.121 92.748,244.942 92.569,244.942 91.853 C 244.942 91.137,244.763 90.958,244.047 90.958 C 243.330 90.958,243.151 90.779,243.151 90.063 C 243.151 89.346,242.972 89.167,242.256 89.167 C 241.540 89.167,241.361 88.988,241.361 88.272 C 241.361 87.567,241.179 87.377,240.504 87.377 C 239.889 87.377,239.585 87.124,239.423 86.482 C 239.256 85.817,238.961 85.586,238.277 85.586 C 237.676 85.586,237.293 85.352,237.179 84.914 C 236.988 84.183,235.655 83.438,234.540 83.438 C 234.033 83.438,233.841 83.192,233.841 82.543 C 233.841 81.707,233.721 81.647,232.050 81.647 C 230.379 81.647,230.260 81.588,230.260 80.752 C 230.260 80.052,230.077 79.857,229.422 79.857 C 228.876 79.857,228.442 79.545,228.176 78.962 C 227.830 78.202,227.527 78.066,226.174 78.066 C 224.793 78.066,224.564 77.958,224.465 77.261 C 224.360 76.521,224.137 76.446,221.755 76.350 C 219.265 76.249,219.158 76.208,219.158 75.365 C 219.158 74.510,219.084 74.485,216.498 74.485 C 214.011 74.485,213.829 74.433,213.722 73.679 C 213.611 72.898,213.469 72.871,209.042 72.774 C 204.534 72.675,204.476 72.663,204.476 71.842 C 204.476 71.051,204.322 71.000,201.198 70.779 C 197.400 70.509,137.912 70.513,137.243 70.783 M167.234 83.114 C 167.923 83.331,170.165 83.642,172.215 83.806 C 174.982 84.028,176.182 84.281,176.870 84.789 C 177.380 85.166,178.401 85.587,179.139 85.725 C 179.877 85.863,180.908 86.372,181.430 86.856 C 181.952 87.339,182.573 87.735,182.811 87.735 C 183.205 87.735,184.106 88.411,186.020 90.143 C 186.407 90.493,186.904 90.859,187.125 90.958 C 187.718 91.222,189.794 93.677,189.794 94.114 C 189.794 94.321,190.123 94.595,190.525 94.723 C 190.952 94.858,191.340 95.377,191.459 95.968 C 191.571 96.531,191.951 97.058,192.311 97.152 C 192.690 97.251,193.114 97.876,193.328 98.652 C 193.530 99.384,193.949 100.168,194.259 100.395 C 194.569 100.622,194.951 101.620,195.108 102.613 C 195.265 103.606,195.754 104.907,196.195 105.503 C 197.419 107.158,197.238 121.010,195.971 122.619 C 195.513 123.200,195.166 124.141,195.166 124.799 C 195.166 125.435,194.830 126.382,194.419 126.905 C 194.008 127.427,193.512 128.434,193.317 129.142 C 193.107 129.902,192.687 130.503,192.293 130.605 C 191.917 130.704,191.526 131.234,191.398 131.818 C 191.272 132.389,190.937 132.856,190.652 132.856 C 190.367 132.856,189.975 133.274,189.781 133.786 C 189.586 134.297,189.122 134.796,188.749 134.893 C 188.375 134.991,187.986 135.390,187.884 135.780 C 187.782 136.171,187.370 136.576,186.968 136.681 C 186.566 136.786,186.143 137.169,186.028 137.532 C 185.912 137.894,185.499 138.292,185.109 138.416 C 184.719 138.540,184.009 139.031,183.532 139.509 C 183.055 139.986,182.386 140.376,182.045 140.376 C 181.704 140.376,181.075 140.705,180.647 141.106 C 180.220 141.508,179.243 141.934,178.476 142.052 C 177.709 142.171,176.800 142.560,176.456 142.917 C 174.847 144.588,159.176 144.659,156.939 143.007 C 156.397 142.606,155.340 142.164,154.591 142.024 C 153.841 141.883,152.953 141.495,152.616 141.162 C 152.280 140.828,151.559 140.355,151.015 140.111 C 150.470 139.866,149.931 139.423,149.817 139.126 C 149.703 138.829,149.345 138.582,149.022 138.578 C 148.502 138.571,146.643 136.921,143.509 133.686 C 142.968 133.127,142.525 132.468,142.525 132.223 C 142.525 131.978,142.122 131.427,141.629 130.998 C 141.137 130.570,140.734 130.071,140.734 129.889 C 140.734 129.706,140.351 129.102,139.884 128.546 C 139.416 127.990,138.919 126.920,138.779 126.167 C 138.639 125.414,138.259 124.502,137.933 124.139 C 136.772 122.846,136.342 117.057,136.196 100.758 L 136.057 85.312 137.305 84.027 L 138.553 82.742 152.266 82.731 C 161.285 82.723,166.409 82.854,167.234 83.114 M137.073 171.794 C 137.915 171.869,139.204 171.868,139.938 171.791 C 140.671 171.714,139.982 171.652,138.406 171.654 C 136.831 171.655,136.231 171.718,137.073 171.794 M248.791 171.784 C 249.235 171.869,249.960 171.869,250.403 171.784 C 250.846 171.698,250.483 171.628,249.597 171.628 C 248.711 171.628,248.348 171.698,248.791 171.784 M131.266 172.826 C 130.975 173.983,130.842 173.922,133.270 173.756 C 135.184 173.625,136.200 172.845,135.443 172.089 C 134.712 171.358,131.492 171.926,131.266 172.826 M141.992 172.516 C 142.058 172.860,142.124 173.263,142.139 173.411 C 142.227 174.269,145.748 173.658,145.748 172.784 C 145.748 171.940,145.638 171.889,143.810 171.889 C 142.157 171.889,141.889 171.981,141.992 172.516 M186.571 172.218 C 186.571 172.399,186.473 172.802,186.354 173.113 C 186.159 173.620,187.013 173.679,194.411 173.679 C 202.890 173.679,203.509 173.572,202.256 172.319 C 201.732 171.795,186.571 171.697,186.571 172.218 M243.151 172.784 C 243.151 173.891,246.462 174.183,246.873 173.113 C 247.287 172.033,247.081 171.889,245.121 171.889 C 243.259 171.889,243.151 171.938,243.151 172.784 M252.359 172.609 C 252.542 173.306,253.090 173.548,254.969 173.758 C 256.029 173.877,256.301 178.083,255.290 178.723 C 254.889 178.977,254.914 179.041,255.416 179.046 C 255.843 179.049,256.043 178.773,256.043 178.181 C 256.043 177.551,256.266 177.279,256.849 177.196 C 257.548 177.097,257.654 176.869,257.654 175.470 C 257.654 174.072,257.548 173.843,256.849 173.744 C 256.266 173.661,256.043 173.389,256.043 172.759 C 256.043 171.945,255.919 171.889,254.107 171.889 C 252.344 171.889,252.188 171.953,252.359 172.609 M148.165 173.916 C 148.893 174.071,149.134 174.436,149.013 175.201 C 148.990 175.349,149.143 175.470,149.353 175.470 C 150.362 175.470,149.472 173.857,148.433 173.802 C 147.712 173.764,147.624 173.801,148.165 173.916 M180.842 174.575 C 180.842 175.331,181.009 175.470,181.916 175.470 C 182.616 175.470,182.990 175.289,182.990 174.951 C 182.990 174.665,183.272 174.267,183.617 174.066 C 184.107 173.781,183.872 173.699,182.543 173.690 C 180.964 173.680,180.842 173.744,180.842 174.575 M204.389 174.575 C 204.514 175.231,204.787 175.470,205.413 175.470 C 206.085 175.470,206.267 175.279,206.267 174.575 C 206.267 173.828,206.096 173.679,205.242 173.679 C 204.342 173.679,204.238 173.789,204.389 174.575 M237.780 174.575 C 237.780 175.818,239.228 175.816,239.805 174.572 C 240.203 173.714,240.171 173.679,238.999 173.679 C 237.937 173.679,237.780 173.795,237.780 174.575 M151.390 176.365 C 151.515 177.022,151.788 177.261,152.414 177.261 C 153.086 177.261,153.268 177.070,153.268 176.365 C 153.268 175.619,153.097 175.470,152.243 175.470 C 151.343 175.470,151.239 175.579,151.390 176.365 M177.690 175.900 C 177.454 176.136,177.261 176.530,177.261 176.775 C 177.261 177.051,176.628 177.263,175.599 177.330 C 173.245 177.485,172.487 179.051,174.765 179.051 C 175.945 179.051,176.186 178.930,176.186 178.339 C 176.186 177.793,176.500 177.577,177.536 177.411 C 179.162 177.151,180.352 175.470,178.910 175.470 C 178.475 175.470,177.927 175.663,177.690 175.900 M208.137 176.342 C 208.200 177.095,208.397 177.261,209.235 177.261 C 210.681 177.261,210.509 175.705,209.044 175.536 C 208.183 175.437,208.071 175.537,208.137 176.342 M131.071 177.529 C 131.079 178.420,131.481 178.904,132.408 179.138 C 133.100 179.313,133.214 179.201,133.214 178.343 C 133.214 177.610,133.000 177.287,132.408 177.128 C 131.202 176.805,131.065 176.846,131.071 177.529 M154.802 178.108 C 155.170 178.900,155.470 179.046,156.736 179.048 C 158.632 179.052,160.072 179.590,160.072 180.296 C 160.072 180.762,160.895 180.841,165.712 180.839 L 171.352 180.836 171.766 179.943 L 172.180 179.051 165.453 179.051 C 159.020 179.051,158.705 179.018,158.228 178.300 C 157.881 177.778,157.218 177.491,156.048 177.360 L 154.367 177.170 154.802 178.108 M211.638 178.132 C 211.638 178.919,211.796 179.051,212.738 179.051 C 213.673 179.051,213.820 178.931,213.722 178.245 C 213.542 176.979,211.638 176.875,211.638 178.132 M232.092 178.245 C 232.115 178.787,232.203 178.969,232.288 178.650 C 232.373 178.332,232.797 177.899,233.231 177.690 C 233.995 177.321,233.989 177.308,233.035 177.285 C 232.184 177.264,232.056 177.394,232.092 178.245 M216.425 179.475 C 216.747 179.655,217.010 180.037,217.010 180.322 C 217.010 180.754,217.972 180.842,222.739 180.842 C 227.507 180.842,228.469 180.754,228.469 180.322 C 228.469 180.037,228.726 179.659,229.040 179.483 C 229.391 179.287,226.954 179.161,222.725 179.156 C 218.381 179.151,216.056 179.269,216.425 179.475 M133.284 181.514 C 133.361 182.173,133.633 182.487,134.199 182.567 C 134.782 182.650,135.004 182.922,135.004 183.552 C 135.004 184.220,135.195 184.423,135.824 184.423 C 136.663 184.423,137.103 183.223,136.418 182.800 C 136.236 182.687,136.183 182.845,136.300 183.151 C 136.573 183.862,136.283 183.859,135.567 183.144 C 135.258 182.834,135.004 182.208,135.004 181.753 C 135.004 181.150,134.756 180.878,134.090 180.750 C 133.279 180.595,133.188 180.681,133.284 181.514 M252.462 181.762 C 252.462 182.511,252.611 182.661,253.268 182.567 C 254.504 182.392,254.607 180.842,253.382 180.842 C 252.633 180.842,252.462 181.012,252.462 181.762 M136.865 186.886 C 136.942 187.545,137.214 187.859,137.780 187.939 C 138.351 188.020,138.585 188.295,138.585 188.885 C 138.585 189.467,138.847 189.782,139.456 189.935 C 139.999 190.071,140.369 190.456,140.441 190.959 C 140.514 191.476,140.843 191.805,141.361 191.878 C 141.944 191.961,142.167 192.233,142.167 192.863 C 142.167 193.553,142.352 193.733,143.062 193.733 C 143.778 193.733,143.957 193.912,143.957 194.628 C 143.957 195.334,144.139 195.524,144.813 195.524 C 145.428 195.524,145.733 195.776,145.895 196.419 C 146.057 197.064,146.360 197.314,146.983 197.314 C 147.606 197.314,147.878 197.539,147.961 198.120 C 148.136 199.356,149.687 199.459,149.687 198.234 C 149.687 197.492,149.514 197.314,148.791 197.314 C 148.075 197.314,147.896 197.135,147.896 196.419 C 147.896 195.705,147.717 195.524,147.008 195.524 C 146.359 195.524,146.059 195.282,145.895 194.628 C 145.753 194.063,145.417 193.733,144.984 193.733 C 144.581 193.733,144.157 193.363,143.957 192.838 C 143.749 192.290,143.335 191.943,142.892 191.943 C 142.357 191.943,142.167 191.708,142.167 191.047 C 142.167 190.387,141.976 190.152,141.441 190.152 C 140.922 190.152,140.655 189.847,140.501 189.078 C 140.335 188.246,140.094 188.004,139.436 188.004 C 138.779 188.004,138.585 187.810,138.585 187.150 C 138.585 186.519,138.347 186.251,137.671 186.122 C 136.860 185.967,136.769 186.053,136.865 186.886 M248.457 187.198 C 248.376 187.903,248.115 188.215,247.538 188.297 C 246.951 188.380,246.732 188.651,246.732 189.294 C 246.732 189.825,246.233 190.675,245.479 191.429 C 244.790 192.119,244.226 192.848,244.226 193.050 C 244.226 193.252,244.089 193.333,243.921 193.229 C 243.754 193.126,243.301 193.405,242.914 193.850 C 241.704 195.242,241.620 195.524,242.414 195.524 C 242.962 195.524,243.151 195.294,243.151 194.628 C 243.151 193.912,243.330 193.733,244.047 193.733 C 244.763 193.733,244.942 193.554,244.942 192.838 C 244.942 192.122,245.121 191.943,245.837 191.943 C 246.553 191.943,246.732 191.764,246.732 191.047 C 246.732 190.331,246.911 190.152,247.628 190.152 C 248.333 190.152,248.523 189.971,248.523 189.296 C 248.523 188.681,248.775 188.376,249.418 188.215 C 250.690 187.895,250.710 186.213,249.442 186.213 C 248.757 186.213,248.546 186.424,248.457 187.198 M239.359 196.419 C 239.205 197.033,238.888 197.314,238.350 197.314 C 237.751 197.314,237.565 197.527,237.565 198.209 C 237.565 198.702,237.624 199.105,237.696 199.105 C 238.198 199.105,239.212 198.274,239.212 197.863 C 239.212 197.582,239.646 197.312,240.197 197.248 C 240.902 197.167,241.214 196.906,241.296 196.329 C 241.471 195.097,239.670 195.180,239.359 196.419 M235.273 199.871 C 235.273 200.095,234.991 200.493,234.646 200.755 C 234.066 201.195,234.079 201.231,234.825 201.242 C 235.449 201.251,235.631 201.051,235.631 200.358 C 235.631 199.866,235.551 199.463,235.452 199.463 C 235.354 199.463,235.273 199.647,235.273 199.871 M153.268 201.833 C 153.268 202.635,154.768 203.453,155.287 202.935 C 155.727 202.495,154.974 201.321,154.151 201.163 C 153.415 201.023,153.268 201.135,153.268 201.833 M232.945 201.164 C 232.551 201.228,232.051 201.661,231.832 202.126 C 231.451 202.938,231.474 202.958,232.430 202.624 C 233.891 202.115,234.305 200.940,232.945 201.164 M156.913 203.850 C 156.999 204.453,157.298 204.680,158.102 204.753 C 159.074 204.841,159.117 204.803,158.550 204.355 C 158.205 204.083,157.923 203.676,157.923 203.452 C 157.923 203.228,157.670 203.044,157.361 203.044 C 156.983 203.044,156.836 203.308,156.913 203.850 M228.111 203.730 C 228.111 204.108,227.910 204.504,227.663 204.611 C 227.417 204.718,227.860 204.772,228.648 204.731 C 230.551 204.631,231.080 203.044,229.210 203.044 C 228.366 203.044,228.111 203.203,228.111 203.730 M160.494 205.640 C 160.673 206.896,162.489 206.996,162.489 205.749 C 162.489 204.975,162.326 204.834,161.434 204.834 C 160.546 204.834,160.398 204.961,160.494 205.640 M224.530 205.521 C 224.530 205.898,224.329 206.288,224.082 206.388 C 223.836 206.487,224.153 206.581,224.786 206.597 C 225.577 206.616,226.053 206.408,226.308 205.932 C 226.848 204.924,226.790 204.834,225.604 204.834 C 224.784 204.834,224.530 204.997,224.530 205.521 M164.369 207.303 C 164.369 208.072,165.036 208.415,166.530 208.415 L 167.558 208.415 166.728 207.520 C 165.726 206.439,164.369 206.314,164.369 207.303 M218.924 207.523 C 218.526 208.380,218.557 208.415,219.729 208.415 C 220.792 208.415,220.949 208.300,220.949 207.520 C 220.949 206.277,219.500 206.279,218.924 207.523 M171.531 209.311 C 171.531 210.088,171.689 210.206,172.735 210.206 C 173.825 210.206,173.922 210.122,173.767 209.311 C 173.632 208.602,173.380 208.415,172.563 208.415 C 171.701 208.415,171.531 208.563,171.531 209.311 M212.142 209.311 L 211.176 210.206 212.947 210.206 C 213.921 210.206,214.911 210.013,215.148 209.776 C 216.657 208.267,213.753 207.817,212.142 209.311 M181.200 210.544 C 181.200 211.619,182.832 211.996,187.278 211.946 C 191.205 211.901,191.462 211.864,189.341 211.648 C 187.593 211.470,186.762 211.210,186.360 210.714 C 186.053 210.336,185.918 210.269,186.060 210.564 C 186.269 211.000,186.227 211.017,185.836 210.654 C 185.276 210.134,181.200 210.037,181.200 210.544 M198.657 210.903 C 198.280 211.442,197.643 211.631,195.861 211.735 C 194.592 211.808,195.971 211.857,198.926 211.843 C 204.215 211.818,204.299 211.805,204.412 211.012 C 204.575 209.861,199.455 209.764,198.657 210.903 M149.340 219.761 C 149.362 220.320,150.306 221.307,150.818 221.307 C 151.102 221.307,151.527 221.500,151.764 221.737 C 152.000 221.973,152.199 222.013,152.206 221.826 C 152.213 221.639,152.458 221.889,152.751 222.381 L 153.283 223.277 153.186 222.381 C 153.120 221.772,152.839 221.451,152.305 221.375 C 151.817 221.305,151.479 220.968,151.410 220.479 C 151.302 219.726,149.312 219.035,149.340 219.761 M160.647 220.083 C 160.269 221.067,160.402 221.653,160.956 221.441 C 161.245 221.330,161.446 221.105,161.403 220.940 C 161.360 220.776,161.647 220.393,162.041 220.090 C 162.740 219.553,162.735 219.539,161.811 219.528 C 161.270 219.521,160.771 219.759,160.647 220.083 M172.315 219.759 C 172.647 219.847,172.991 220.191,173.079 220.523 C 173.192 220.952,173.250 220.893,173.280 220.322 C 173.312 219.702,173.136 219.526,172.516 219.558 C 171.945 219.588,171.886 219.646,172.315 219.759 M179.481 219.946 C 178.963 220.464,178.867 230.260,179.380 230.260 C 179.561 230.260,179.973 230.361,180.295 230.485 C 180.809 230.682,180.873 230.392,180.808 228.157 C 180.767 226.753,180.607 225.604,180.453 225.604 C 180.155 225.604,179.823 224.743,179.558 223.280 C 179.443 222.646,179.554 222.381,179.934 222.381 C 180.354 222.381,181.558 220.358,181.558 219.652 C 181.558 219.320,179.867 219.560,179.481 219.946 M191.490 220.376 C 191.610 221.005,191.941 221.278,192.720 221.392 C 193.658 221.530,193.762 221.459,193.586 220.801 C 193.475 220.390,193.383 219.933,193.380 219.785 C 193.377 219.637,192.914 219.517,192.350 219.517 C 191.462 219.517,191.348 219.631,191.490 220.376 M198.747 219.976 C 198.451 220.216,197.980 220.704,197.699 221.061 C 196.911 222.064,198.918 221.461,200.014 220.365 L 200.863 219.517 200.073 219.528 C 199.639 219.534,199.042 219.736,198.747 219.976 M208.973 219.791 C 209.181 219.935,209.561 220.572,209.817 221.205 C 210.073 221.838,210.386 222.343,210.513 222.326 C 211.710 222.172,211.946 223.994,210.836 224.819 C 210.062 225.394,209.854 239.035,210.615 239.289 C 210.905 239.386,210.918 239.629,210.660 240.125 C 209.909 241.561,210.087 247.198,210.905 247.893 C 211.769 248.627,211.858 249.239,211.100 249.239 C 210.804 249.239,210.283 249.884,209.941 250.671 C 209.420 251.875,209.148 252.108,208.241 252.130 C 205.577 252.196,204.795 252.576,205.622 253.403 C 206.276 254.057,208.099 253.812,208.793 252.976 C 209.027 252.693,209.562 252.459,209.981 252.456 C 211.518 252.445,211.725 251.982,211.980 247.996 C 212.154 245.275,212.372 244.076,212.737 243.845 C 213.157 243.579,213.137 243.519,212.623 243.515 C 211.811 243.508,211.633 221.670,212.444 221.660 C 212.754 221.656,212.770 221.573,212.498 221.391 C 212.281 221.246,211.913 220.765,211.679 220.322 C 211.355 219.705,210.943 219.518,209.925 219.522 C 209.193 219.525,208.765 219.646,208.973 219.791 M213.812 220.501 C 213.833 221.324,213.882 221.373,214.107 220.797 C 214.256 220.417,214.688 219.986,215.067 219.837 C 215.643 219.611,215.595 219.563,214.772 219.542 C 213.924 219.520,213.790 219.654,213.812 220.501 M240.018 221.544 C 239.030 221.943,239.453 225.527,240.466 225.334 C 241.288 225.177,241.361 225.007,241.361 223.235 C 241.361 221.324,241.167 221.081,240.018 221.544 M173.521 223.372 C 173.730 223.516,174.173 224.033,174.506 224.520 L 175.112 225.406 175.112 224.252 C 175.112 223.230,174.999 223.098,174.127 223.103 C 173.585 223.106,173.313 223.227,173.521 223.372 M193.733 224.121 C 193.733 224.864,193.944 225.265,194.412 225.413 C 194.827 225.545,195.178 226.097,195.316 226.832 C 195.528 227.963,195.595 228.011,196.425 227.625 C 197.651 227.057,197.720 225.139,196.509 225.311 C 195.890 225.399,195.612 225.176,195.313 224.351 C 194.769 222.851,193.733 222.700,193.733 224.121 M159.069 225.318 C 158.184 226.203,158.529 227.429,159.534 226.972 C 160.118 226.706,160.430 226.272,160.430 225.726 C 160.430 224.823,159.763 224.623,159.069 225.318 M254.252 225.962 C 254.252 226.785,254.414 227.037,254.944 227.037 C 255.376 227.037,255.693 227.339,255.790 227.842 C 255.888 228.352,255.963 228.164,255.994 227.331 C 256.041 226.079,255.354 224.888,254.585 224.888 C 254.402 224.888,254.252 225.372,254.252 225.962 M224.094 228.734 C 225.135 228.806,226.746 228.805,227.675 228.732 C 228.604 228.658,227.753 228.599,225.783 228.600 C 223.814 228.601,223.054 228.661,224.094 228.734 M230.260 229.698 C 230.260 230.440,230.432 230.618,231.155 230.618 C 231.871 230.618,232.050 230.797,232.050 231.513 C 232.050 232.229,232.229 232.408,232.945 232.408 C 233.662 232.408,233.841 232.229,233.841 231.513 C 233.841 230.804,233.660 230.618,232.970 230.618 C 232.340 230.618,232.068 230.395,231.986 229.812 C 231.810 228.576,230.260 228.473,230.260 229.698 M238.019 229.066 C 237.341 229.743,237.794 230.874,238.675 230.705 C 239.784 230.493,239.996 228.827,238.914 228.827 C 238.553 228.827,238.150 228.935,238.019 229.066 M140.376 231.193 C 140.376 231.571,140.571 231.694,140.942 231.551 C 141.254 231.432,141.657 231.334,141.838 231.334 C 142.019 231.334,142.167 231.173,142.167 230.976 C 142.167 230.779,141.764 230.618,141.271 230.618 C 140.688 230.618,140.376 230.818,140.376 231.193 M175.470 230.717 C 175.470 230.772,175.792 231.093,176.186 231.430 C 176.868 232.014,176.902 232.009,176.902 231.330 C 176.902 230.856,176.663 230.618,176.186 230.618 C 175.792 230.618,175.470 230.662,175.470 230.717 M256.046 233.189 C 256.048 233.709,256.362 234.165,256.887 234.408 C 257.672 234.772,257.724 234.726,257.690 233.692 C 257.644 232.272,256.041 231.781,256.046 233.189 M236.537 233.595 C 236.238 234.051,235.912 235.220,235.812 236.192 C 235.665 237.629,235.694 237.767,235.969 236.932 C 236.156 236.367,236.639 235.673,237.044 235.390 C 237.503 235.068,237.780 234.478,237.780 233.820 C 237.780 232.555,237.278 232.464,236.537 233.595 M164.369 235.408 C 164.369 235.810,164.672 235.981,165.354 235.961 C 165.915 235.945,166.107 235.847,165.801 235.734 C 165.506 235.624,165.063 235.376,164.816 235.181 C 164.497 234.928,164.369 234.993,164.369 235.408 M179.450 236.258 C 178.881 237.020,178.713 237.101,178.704 236.616 C 178.696 236.185,178.406 235.989,177.773 235.989 C 176.622 235.989,176.644 237.511,177.798 237.728 C 178.691 237.896,179.038 238.415,179.046 239.588 C 179.052 240.580,179.638 241.361,180.376 241.361 C 180.721 241.361,180.842 240.576,180.842 238.317 C 180.842 235.057,180.606 234.709,179.450 236.258 M155.297 236.228 C 155.166 236.359,155.063 237.044,155.069 237.750 C 155.078 238.795,155.148 238.917,155.445 238.406 C 155.646 238.062,156.044 237.780,156.329 237.780 C 156.645 237.780,156.849 237.428,156.849 236.885 C 156.849 236.017,155.906 235.619,155.297 236.228 M200.423 240.555 C 200.263 240.998,199.900 241.361,199.618 241.361 C 199.208 241.361,199.105 242.050,199.105 244.770 C 199.105 248.060,199.073 248.194,198.209 248.588 C 197.608 248.862,197.314 249.285,197.314 249.875 C 197.314 250.620,197.451 250.729,198.209 250.584 C 198.874 250.457,199.105 250.566,199.105 251.008 C 199.105 252.139,199.894 252.464,202.489 252.399 C 204.251 252.356,204.548 252.295,203.472 252.199 C 202.442 252.107,201.855 251.860,201.703 251.456 C 201.579 251.123,201.011 250.412,200.442 249.876 C 199.448 248.938,199.301 247.449,200.203 247.449 C 200.387 247.449,200.511 247.328,200.478 247.180 C 200.446 247.032,200.535 246.507,200.675 246.012 C 201.042 244.717,200.802 239.512,200.423 240.555 M234.054 241.409 C 233.923 242.223,233.903 242.975,234.008 243.080 C 234.113 243.185,234.199 243.002,234.199 242.674 C 234.199 242.316,234.485 242.077,234.915 242.077 C 235.472 242.077,235.631 241.838,235.631 241.003 C 235.631 239.212,234.352 239.542,234.054 241.409 M151.477 242.232 C 151.477 242.738,151.598 243.126,151.746 243.094 C 152.343 242.968,153.268 243.622,153.273 244.174 C 153.277 244.536,153.380 244.614,153.542 244.379 C 153.686 244.167,154.087 243.890,154.432 243.763 C 155.548 243.351,155.249 241.694,154.073 241.775 C 153.532 241.811,152.726 241.723,152.283 241.577 C 151.588 241.349,151.477 241.439,151.477 242.232 M212.355 241.699 C 212.355 242.172,213.834 243.157,214.493 243.123 C 214.861 243.104,214.894 243.036,214.593 242.914 C 214.346 242.815,214.145 242.425,214.145 242.047 C 214.145 241.554,213.893 241.361,213.250 241.361 C 212.757 241.361,212.355 241.513,212.355 241.699 M179.051 242.419 C 179.051 242.804,179.454 243.522,179.946 244.014 C 180.889 244.956,181.002 244.758,180.618 242.838 C 180.360 241.551,179.051 241.200,179.051 242.419 M186.241 243.599 C 186.226 244.338,186.361 244.942,186.542 244.942 C 186.723 244.942,187.126 245.040,187.437 245.159 C 187.879 245.329,188.004 245.131,188.004 244.264 C 188.004 243.406,187.846 243.151,187.317 243.151 C 186.940 243.151,186.550 242.950,186.450 242.704 C 186.351 242.457,186.257 242.860,186.241 243.599 M218.711 243.772 C 219.548 243.847,220.918 243.847,221.755 243.772 C 222.592 243.696,221.907 243.635,220.233 243.635 C 218.559 243.635,217.874 243.696,218.711 243.772 M259.624 244.763 C 259.624 245.255,259.745 245.639,259.893 245.616 C 260.614 245.502,261.019 245.714,261.168 246.285 C 261.321 246.871,261.334 246.870,261.373 246.272 C 261.420 245.546,260.420 243.868,259.941 243.868 C 259.767 243.868,259.624 244.270,259.624 244.763 M140.399 247.538 C 140.377 250.246,140.397 250.313,141.247 250.313 C 141.932 250.313,142.143 250.525,142.232 251.298 C 142.321 252.072,142.557 252.307,143.330 252.396 C 143.903 252.462,144.315 252.728,144.315 253.032 C 144.315 254.687,150.478 254.587,151.027 252.923 C 151.130 252.609,150.249 252.461,147.832 252.386 C 144.708 252.290,144.487 252.233,144.383 251.499 C 144.304 250.950,143.982 250.681,143.308 250.604 C 142.403 250.499,142.339 250.370,142.238 248.433 C 142.158 246.901,141.995 246.374,141.600 246.374 C 141.308 246.374,140.923 246.012,140.745 245.568 C 140.509 244.980,140.415 245.511,140.399 247.538 M247.717 245.699 C 247.194 245.993,247.090 246.576,247.090 249.217 C 247.090 253.108,247.552 253.895,249.887 253.987 C 250.905 254.028,251.542 253.870,251.761 253.524 C 252.292 252.684,252.185 252.566,250.671 252.324 C 249.884 252.198,249.227 251.976,249.212 251.831 C 249.197 251.686,249.104 251.244,249.005 250.850 C 248.906 250.457,248.717 249.057,248.585 247.740 C 248.369 245.596,248.278 245.383,247.717 245.699 M186.213 248.674 C 186.213 251.018,185.160 252.157,183.094 252.050 C 181.852 251.985,181.558 251.840,181.558 251.291 C 181.558 250.368,180.692 250.705,180.548 251.684 C 180.303 253.352,187.332 252.588,187.792 250.896 C 187.989 250.175,188.049 250.197,188.923 251.298 C 189.999 252.655,190.525 252.797,190.246 251.656 C 189.997 250.639,189.438 249.911,189.078 250.134 C 188.640 250.405,188.078 249.516,187.946 248.344 C 187.721 246.351,186.213 246.639,186.213 248.674 M241.063 248.054 C 241.030 248.683,240.839 249.298,240.639 249.422 C 240.439 249.545,240.368 249.797,240.481 249.980 C 240.594 250.163,240.436 250.313,240.129 250.313 C 239.816 250.313,239.570 250.617,239.570 251.004 C 239.570 251.384,239.333 251.932,239.043 252.222 C 238.632 252.632,238.613 252.829,238.954 253.110 C 239.753 253.771,242.453 251.018,241.789 250.219 C 241.583 249.971,241.349 249.125,241.269 248.339 C 241.142 247.099,241.115 247.061,241.063 248.054 M167.991 250.403 C 167.952 252.372,167.989 252.462,168.845 252.462 C 169.402 252.462,169.740 252.259,169.740 251.925 C 169.740 251.629,169.499 251.388,169.203 251.388 C 168.908 251.388,168.692 251.267,168.723 251.119 C 168.754 250.971,168.683 250.609,168.565 250.313 C 168.447 250.018,168.279 249.454,168.191 249.060 C 168.104 248.666,168.014 249.270,167.991 250.403 M160.430 250.501 C 160.430 251.924,159.588 252.462,157.363 252.462 C 155.987 252.462,155.836 252.695,156.759 253.396 C 157.871 254.239,159.683 254.022,160.072 252.999 C 160.259 252.507,160.652 252.104,160.945 252.104 C 161.771 252.104,162.321 250.813,161.862 249.955 C 161.225 248.765,160.430 249.069,160.430 250.501 M232.107 249.866 C 232.064 250.471,231.828 250.671,231.155 250.671 C 230.511 250.671,230.260 250.864,230.260 251.358 C 230.260 251.735,230.058 252.123,229.812 252.220 C 229.566 252.317,230.283 252.382,231.406 252.366 C 232.937 252.344,233.323 252.240,232.948 251.952 C 232.673 251.740,232.385 251.003,232.307 250.313 C 232.229 249.624,232.139 249.423,232.107 249.866 M139.612 251.516 C 139.096 252.192,138.573 252.304,135.208 252.462 C 131.515 252.635,131.405 252.664,131.895 253.331 C 132.924 254.732,138.227 254.444,138.227 252.987 C 138.227 252.664,138.577 252.462,139.134 252.462 C 139.632 252.462,140.131 252.226,140.242 251.937 C 140.604 250.993,140.211 250.731,139.612 251.516 M212.022 251.477 C 212.000 252.325,212.134 252.458,212.981 252.437 C 213.804 252.416,213.853 252.367,213.276 252.141 C 212.897 251.993,212.465 251.561,212.317 251.182 C 212.091 250.606,212.043 250.654,212.022 251.477 M129.275 251.754 C 129.275 251.959,129.524 252.222,129.827 252.338 C 130.667 252.661,130.766 252.313,129.975 251.819 C 129.532 251.542,129.275 251.518,129.275 251.754 M170.815 252.820 C 170.815 253.017,171.137 253.178,171.531 253.178 C 171.925 253.178,172.247 253.017,172.247 252.820 C 172.247 252.623,171.925 252.462,171.531 252.462 C 171.137 252.462,170.815 252.623,170.815 252.820 M192.659 252.597 C 192.659 253.189,193.691 253.482,194.088 253.004 C 194.469 252.544,194.396 252.462,193.598 252.462 C 193.082 252.462,192.659 252.523,192.659 252.597 " stroke="none" fill="#04aced" fill-rule="evenodd"></path><path id="path3" d="M137.305 84.027 L 136.057 85.312 136.196 100.758 C 136.342 117.057,136.772 122.846,137.933 124.139 C 138.259 124.502,138.639 125.414,138.779 126.167 C 138.919 126.920,139.416 127.990,139.884 128.546 C 140.351 129.102,140.734 129.706,140.734 129.889 C 140.734 130.071,141.137 130.570,141.629 130.998 C 142.122 131.427,142.525 131.978,142.525 132.223 C 142.525 132.468,142.968 133.127,143.509 133.686 C 146.643 136.921,148.502 138.571,149.022 138.578 C 149.345 138.582,149.703 138.829,149.817 139.126 C 149.931 139.423,150.470 139.866,151.015 140.111 C 151.559 140.355,152.280 140.828,152.616 141.162 C 152.953 141.495,153.841 141.883,154.591 142.024 C 155.340 142.164,156.397 142.606,156.939 143.007 C 159.176 144.659,174.847 144.588,176.456 142.917 C 176.800 142.560,177.709 142.171,178.476 142.052 C 179.243 141.934,180.220 141.508,180.647 141.106 C 181.075 140.705,181.704 140.376,182.045 140.376 C 182.386 140.376,183.055 139.986,183.532 139.509 C 184.009 139.031,184.719 138.540,185.109 138.416 C 185.499 138.292,185.912 137.894,186.028 137.532 C 186.143 137.169,186.566 136.786,186.968 136.681 C 187.370 136.576,187.782 136.171,187.884 135.780 C 187.986 135.390,188.375 134.991,188.749 134.893 C 189.122 134.796,189.586 134.297,189.781 133.786 C 189.975 133.274,190.367 132.856,190.652 132.856 C 190.937 132.856,191.272 132.389,191.398 131.818 C 191.526 131.234,191.917 130.704,192.293 130.605 C 192.687 130.503,193.107 129.902,193.317 129.142 C 193.512 128.434,194.008 127.427,194.419 126.905 C 194.830 126.382,195.166 125.435,195.166 124.799 C 195.166 124.141,195.513 123.200,195.971 122.619 C 197.238 121.010,197.419 107.158,196.195 105.503 C 195.754 104.907,195.265 103.606,195.108 102.613 C 194.951 101.620,194.569 100.622,194.259 100.395 C 193.949 100.168,193.530 99.384,193.328 98.652 C 193.114 97.876,192.690 97.251,192.311 97.152 C 191.951 97.058,191.571 96.531,191.459 95.968 C 191.340 95.377,190.952 94.858,190.525 94.723 C 190.123 94.595,189.794 94.321,189.794 94.114 C 189.794 93.677,187.718 91.222,187.125 90.958 C 186.904 90.859,186.407 90.493,186.020 90.143 C 184.106 88.411,183.205 87.735,182.811 87.735 C 182.573 87.735,181.952 87.339,181.430 86.856 C 180.908 86.372,179.877 85.863,179.139 85.725 C 178.401 85.587,177.380 85.166,176.870 84.789 C 176.182 84.281,174.982 84.028,172.215 83.806 C 170.165 83.642,167.923 83.331,167.234 83.114 C 166.409 82.854,161.285 82.723,152.266 82.731 L 138.553 82.742 137.305 84.027 M172.398 84.526 C 173.762 84.723,175.051 85.023,175.263 85.192 C 175.475 85.362,176.567 85.763,177.690 86.085 C 178.812 86.407,179.831 86.832,179.953 87.029 C 180.075 87.226,180.753 87.630,181.461 87.925 C 183.926 88.955,189.778 94.436,191.335 97.174 C 193.651 101.244,194.206 102.411,194.682 104.208 C 194.969 105.291,195.424 106.661,195.692 107.252 C 196.761 109.608,196.674 119.405,195.571 120.828 C 195.405 121.042,195.076 122.008,194.840 122.975 C 194.355 124.961,192.499 129.110,191.941 129.455 C 191.739 129.580,191.350 130.195,191.076 130.821 C 190.802 131.448,189.587 132.927,188.376 134.109 C 187.164 135.291,185.878 136.550,185.518 136.908 C 184.708 137.712,181.159 140.018,180.731 140.018 C 180.559 140.018,180.013 140.336,179.519 140.725 C 179.025 141.113,178.032 141.537,177.314 141.665 C 176.595 141.794,175.282 142.239,174.396 142.654 C 171.986 143.784,161.425 143.792,158.985 142.666 C 158.092 142.254,156.779 141.808,156.067 141.674 C 155.355 141.541,154.394 141.136,153.931 140.774 C 153.468 140.412,152.718 140.000,152.266 139.859 C 150.511 139.309,143.173 132.510,142.678 130.976 C 142.567 130.631,142.328 130.349,142.147 130.349 C 141.966 130.349,141.568 129.751,141.262 129.019 C 140.957 128.288,140.485 127.442,140.213 127.139 C 139.942 126.837,139.192 125.058,138.546 123.187 L 137.372 119.785 137.235 102.655 C 137.108 86.797,137.144 85.474,137.718 84.839 C 138.429 84.054,167.328 83.794,172.398 84.526 M135.445 172.784 C 135.384 173.519,135.530 173.679,136.262 173.679 C 136.974 173.679,137.153 173.499,137.153 172.784 C 137.153 172.091,136.969 171.889,136.336 171.889 C 135.723 171.889,135.500 172.113,135.445 172.784 M139.980 172.533 C 140.184 172.915,140.249 173.329,140.125 173.453 C 140.000 173.578,140.408 173.679,141.030 173.679 C 142.701 173.679,142.461 172.121,140.764 171.954 C 139.719 171.851,139.644 171.906,139.980 172.533 M247.090 172.218 C 247.090 172.399,246.993 172.802,246.873 173.113 C 246.684 173.605,247.097 173.679,250.006 173.674 C 251.849 173.671,253.184 173.550,252.973 173.405 C 252.762 173.261,252.485 172.860,252.358 172.516 C 252.105 171.830,247.090 171.547,247.090 172.218 M132.229 173.926 C 132.574 174.016,133.138 174.016,133.483 173.926 C 133.827 173.836,133.545 173.763,132.856 173.763 C 132.167 173.763,131.885 173.836,132.229 173.926 M147.460 174.624 C 147.559 175.145,147.872 175.470,148.275 175.470 C 149.594 175.470,149.416 174.311,148.045 173.966 C 147.417 173.808,147.324 173.913,147.460 174.624 M183.617 174.066 C 182.694 174.604,182.837 175.470,183.848 175.470 C 184.537 175.470,184.695 175.295,184.653 174.575 C 184.596 173.581,184.517 173.542,183.617 174.066 M240.000 174.109 C 239.402 174.707,239.463 175.470,240.107 175.470 C 240.442 175.470,240.645 175.132,240.645 174.575 C 240.645 173.554,240.593 173.516,240.000 174.109 M151.232 176.516 C 151.268 176.993,151.540 177.449,151.835 177.528 C 152.190 177.624,152.235 177.573,151.966 177.377 C 151.743 177.215,151.471 176.759,151.363 176.365 C 151.208 175.801,151.180 175.832,151.232 176.516 M131.782 176.902 C 132.487 177.358,133.317 177.358,133.035 176.902 C 132.913 176.705,132.461 176.547,132.029 176.550 C 131.391 176.554,131.345 176.620,131.782 176.902 M176.813 177.507 C 176.074 177.700,175.959 179.051,176.682 179.051 C 176.954 179.051,177.254 178.648,177.348 178.156 C 177.442 177.663,177.501 177.279,177.479 177.302 C 177.458 177.325,177.158 177.417,176.813 177.507 M233.214 177.698 C 232.128 178.221,232.183 179.051,233.303 179.051 C 234.020 179.051,234.199 178.872,234.199 178.156 C 234.199 177.663,234.158 177.271,234.109 177.285 C 234.060 177.298,233.657 177.484,233.214 177.698 M154.814 178.514 C 154.863 179.000,155.173 179.249,155.778 179.289 C 156.525 179.338,156.543 179.320,155.886 179.177 C 155.455 179.084,155.021 178.735,154.922 178.402 C 154.792 177.967,154.762 177.998,154.814 178.514 M158.192 179.288 C 158.438 179.388,158.639 179.775,158.639 180.148 C 158.639 181.024,159.660 181.272,162.589 181.109 L 164.906 180.980 162.489 180.911 C 160.592 180.856,160.072 180.724,160.072 180.296 C 160.072 179.995,159.658 179.592,159.153 179.400 C 158.234 179.051,157.347 178.947,158.192 179.288 M171.961 179.481 C 171.724 179.717,171.531 180.120,171.531 180.376 C 171.531 180.684,170.956 180.862,169.830 180.902 C 168.188 180.960,168.177 180.967,169.527 181.106 C 171.609 181.320,172.718 180.955,172.502 180.126 C 172.403 179.751,172.507 179.368,172.733 179.276 C 172.978 179.175,172.992 179.096,172.766 179.079 C 172.560 179.064,172.197 179.244,171.961 179.481 M215.488 179.938 C 215.661 180.842,217.437 181.516,218.513 181.085 C 218.769 180.982,218.536 180.885,217.995 180.870 C 217.381 180.852,217.010 180.644,217.010 180.317 C 217.010 179.878,216.004 179.051,215.472 179.051 C 215.387 179.051,215.395 179.450,215.488 179.938 M228.573 180.124 C 228.463 180.545,228.070 180.853,227.622 180.870 C 227.201 180.885,227.066 180.982,227.321 181.084 C 228.023 181.365,229.439 180.913,229.660 180.337 C 229.768 180.056,229.610 179.732,229.309 179.616 C 228.954 179.480,228.695 179.659,228.573 180.124 M252.241 181.000 C 252.132 181.284,252.119 181.807,252.211 182.164 C 252.324 182.597,252.393 182.494,252.420 181.850 C 252.453 181.090,252.668 180.858,253.447 180.740 L 254.432 180.591 253.435 180.537 C 252.858 180.506,252.356 180.700,252.241 181.000 M135.199 182.721 C 135.535 183.599,136.642 184.059,136.642 183.320 C 136.642 182.961,136.574 182.733,136.492 182.816 C 136.410 182.898,136.045 182.806,135.682 182.611 C 135.185 182.345,135.065 182.372,135.199 182.721 M141.361 190.029 C 141.928 190.151,142.167 190.460,142.167 191.072 C 142.167 191.551,142.314 191.943,142.494 191.943 C 143.306 191.943,142.268 189.971,141.426 189.914 C 140.626 189.861,140.621 189.870,141.361 190.029 M244.942 190.797 C 244.942 191.797,245.555 191.699,246.297 190.581 C 246.792 189.836,246.770 189.799,245.880 189.873 C 245.154 189.933,244.942 190.142,244.942 190.797 M243.087 192.748 C 243.005 193.325,242.693 193.586,241.987 193.667 C 241.214 193.756,241.003 193.968,241.003 194.652 C 241.003 195.845,241.412 195.747,242.588 194.273 C 243.136 193.585,243.712 193.100,243.868 193.196 C 244.105 193.343,244.584 192.604,244.584 192.092 C 244.584 191.472,243.181 192.087,243.087 192.748 M233.841 200.182 C 233.841 201.158,233.906 201.219,234.534 200.827 C 235.636 200.138,235.737 199.105,234.702 199.105 C 233.983 199.105,233.841 199.283,233.841 200.182 M154.163 201.157 C 154.557 201.256,154.998 201.519,155.142 201.742 C 155.309 202.000,155.407 201.920,155.411 201.522 C 155.415 201.066,155.148 200.907,154.432 200.937 C 153.677 200.969,153.614 201.020,154.163 201.157 M157.813 203.377 C 158.099 204.470,158.997 204.616,158.997 203.570 C 158.997 202.939,158.802 202.686,158.315 202.686 C 157.816 202.686,157.681 202.873,157.813 203.377 M227.887 203.211 C 227.776 203.500,227.768 203.943,227.870 204.196 C 227.971 204.449,228.067 204.303,228.083 203.873 C 228.103 203.305,228.380 203.051,229.096 202.942 L 230.081 202.793 229.085 202.739 C 228.500 202.708,228.005 202.903,227.887 203.211 M161.978 204.707 C 162.350 204.815,162.549 205.110,162.441 205.391 C 162.337 205.663,162.419 205.989,162.624 206.116 C 162.852 206.257,162.950 206.020,162.877 205.504 C 162.802 204.974,162.492 204.636,162.041 204.590 C 161.435 204.529,161.425 204.546,161.978 204.707 M223.814 205.551 C 223.814 205.980,223.575 206.267,223.217 206.267 C 222.889 206.267,222.715 206.362,222.832 206.479 C 223.262 206.909,224.530 206.198,224.530 205.526 C 224.530 205.146,224.369 204.834,224.172 204.834 C 223.975 204.834,223.814 205.157,223.814 205.551 M166.392 207.172 C 166.816 208.279,167.950 208.541,167.950 207.533 C 167.950 206.806,167.773 206.625,167.066 206.625 C 166.420 206.625,166.238 206.772,166.392 207.172 M218.323 206.864 C 217.779 207.407,218.059 208.524,218.621 208.057 C 218.917 207.812,219.158 207.390,219.158 207.118 C 219.158 206.596,218.723 206.464,218.323 206.864 M173.679 209.110 C 173.679 209.766,174.277 210.444,174.584 210.137 C 174.830 209.891,174.326 208.415,173.996 208.415 C 173.822 208.415,173.679 208.728,173.679 209.110 M210.987 209.311 C 210.763 209.803,210.714 210.206,210.877 210.206 C 211.041 210.206,211.610 209.803,212.142 209.311 L 213.108 208.415 212.251 208.415 C 211.686 208.415,211.257 208.719,210.987 209.311 M185.697 210.598 C 185.811 210.783,186.041 210.850,186.207 210.747 C 186.374 210.644,186.570 210.740,186.643 210.960 C 187.034 212.130,197.964 212.042,198.701 210.862 C 199.114 210.200,198.928 210.182,192.308 210.221 C 188.169 210.246,185.571 210.394,185.697 210.598 M130.063 219.946 C 129.298 220.711,129.581 221.307,130.707 221.307 C 131.614 221.307,131.782 221.168,131.782 220.412 C 131.782 219.432,130.834 219.175,130.063 219.946 M148.525 220.412 C 148.635 220.989,148.935 221.307,149.370 221.307 C 150.159 221.307,150.204 221.009,149.546 220.143 C 148.857 219.235,148.326 219.375,148.525 220.412 M162.041 220.090 C 161.647 220.393,161.365 220.791,161.415 220.974 C 161.464 221.157,161.343 221.307,161.146 221.307 C 160.949 221.307,160.788 221.448,160.788 221.620 C 160.788 221.972,162.564 222.060,162.603 221.710 C 162.617 221.587,162.686 221.043,162.758 220.501 C 162.829 219.960,162.858 219.522,162.822 219.528 C 162.787 219.534,162.435 219.787,162.041 220.090 M171.173 220.374 C 171.173 221.165,171.331 221.307,172.214 221.307 C 173.078 221.307,173.223 221.186,173.067 220.591 C 172.964 220.197,172.751 219.875,172.593 219.875 C 172.435 219.875,172.051 219.777,171.739 219.657 C 171.312 219.493,171.173 219.669,171.173 220.374 M181.257 220.429 C 181.029 220.930,180.842 221.386,180.842 221.441 C 180.842 221.496,181.325 221.470,181.916 221.383 C 182.889 221.241,183.055 221.078,182.960 220.362 C 182.943 220.237,183.144 219.997,183.407 219.831 C 183.728 219.627,183.522 219.526,182.779 219.522 C 181.938 219.518,181.573 219.735,181.257 220.429 M190.421 219.732 C 190.667 219.843,190.868 220.243,190.868 220.621 C 190.868 220.998,191.041 221.307,191.251 221.307 C 191.965 221.307,191.433 219.706,190.689 219.616 C 190.295 219.568,190.175 219.620,190.421 219.732 M200.259 220.074 C 198.764 221.121,199.400 221.307,204.464 221.307 C 210.063 221.307,210.206 221.373,210.206 223.972 C 210.206 225.124,210.272 225.211,210.862 224.842 C 211.251 224.600,211.519 224.013,211.519 223.407 C 211.519 222.495,211.271 222.229,210.513 222.326 C 210.386 222.343,210.073 221.838,209.817 221.205 C 209.158 219.576,209.017 219.528,204.825 219.522 C 201.985 219.518,200.858 219.654,200.259 220.074 M214.951 219.886 C 213.564 220.443,213.931 221.368,215.488 221.239 C 216.226 221.178,216.804 220.967,216.772 220.770 C 216.739 220.573,216.880 220.210,217.084 219.964 C 217.533 219.424,216.220 219.376,214.951 219.886 M229.819 219.764 C 230.463 219.850,230.903 220.061,230.798 220.231 C 230.692 220.402,230.795 220.658,231.025 220.801 C 231.287 220.962,231.349 220.904,231.189 220.646 C 231.049 220.419,231.092 220.233,231.287 220.233 C 231.481 220.233,231.721 220.515,231.821 220.859 C 231.926 221.221,231.975 221.108,231.937 220.591 C 231.878 219.786,231.709 219.691,230.260 219.651 C 229.169 219.621,229.026 219.657,229.819 219.764 M151.231 221.784 C 151.366 222.145,151.477 222.668,151.477 222.948 C 151.477 223.250,151.837 223.456,152.365 223.456 C 153.182 223.456,153.220 223.385,152.844 222.559 C 152.619 222.066,152.355 221.742,152.258 221.840 C 152.160 221.937,151.834 221.817,151.533 221.573 C 151.071 221.198,151.024 221.231,151.231 221.784 M197.762 221.544 C 197.516 221.644,197.319 221.993,197.326 222.322 C 197.336 222.863,197.377 222.866,197.773 222.350 C 198.013 222.037,198.451 221.687,198.747 221.572 C 199.224 221.387,199.224 221.364,198.747 221.364 C 198.451 221.364,198.008 221.445,197.762 221.544 M180.034 222.271 C 179.589 222.387,179.451 222.690,179.563 223.306 C 180.071 226.111,180.842 226.417,180.842 223.814 C 180.842 222.829,180.801 222.042,180.752 222.065 C 180.703 222.088,180.380 222.180,180.034 222.271 M173.321 224.709 C 173.321 225.807,173.432 225.962,174.217 225.962 C 175.279 225.962,175.299 225.853,174.498 224.496 C 173.683 223.117,173.321 223.183,173.321 224.709 M193.670 226.184 C 193.748 226.850,193.944 227.395,194.105 227.395 C 194.751 227.395,195.524 228.580,195.524 229.569 C 195.524 230.638,195.742 230.786,196.748 230.400 C 197.130 230.254,197.314 229.730,197.314 228.789 C 197.314 227.365,196.796 226.982,195.978 227.800 C 195.677 228.100,195.513 227.882,195.338 226.947 C 194.995 225.122,193.464 224.421,193.670 226.184 M160.430 225.938 C 160.430 226.319,160.107 226.733,159.714 226.858 C 159.320 226.983,158.997 227.222,158.997 227.390 C 158.997 227.557,158.900 227.949,158.780 228.261 C 158.610 228.702,158.808 228.827,159.675 228.827 C 160.772 228.827,160.788 228.801,160.788 227.037 C 160.788 226.052,160.707 225.246,160.609 225.246 C 160.510 225.246,160.430 225.558,160.430 225.938 M239.809 225.485 C 239.299 225.995,239.560 227.117,240.137 226.896 C 240.448 226.776,240.851 226.679,241.032 226.679 C 241.213 226.679,241.361 226.356,241.361 225.962 C 241.361 225.264,240.343 224.951,239.809 225.485 M140.159 227.245 C 140.278 227.557,140.376 227.959,140.376 228.140 C 140.376 228.321,140.779 228.469,141.271 228.469 C 141.987 228.469,142.167 228.290,142.167 227.574 C 142.167 226.811,142.002 226.679,141.054 226.679 C 140.186 226.679,139.989 226.803,140.159 227.245 M221.665 227.574 L 221.665 228.469 226.291 228.469 C 231.411 228.469,232.050 228.346,232.050 227.356 C 232.050 226.723,231.714 226.679,226.858 226.679 L 221.665 226.679 221.665 227.574 M254.252 227.890 C 254.252 228.521,254.491 228.789,255.168 228.919 C 255.865 229.052,256.037 228.969,255.885 228.573 C 255.775 228.287,255.685 227.824,255.685 227.545 C 255.685 227.265,255.363 227.037,254.969 227.037 C 254.453 227.037,254.252 227.275,254.252 227.890 M175.112 231.648 C 175.112 232.602,175.243 232.766,176.007 232.766 C 177.247 232.766,177.148 232.127,175.739 231.022 C 175.171 230.576,175.112 230.635,175.112 231.648 M238.019 230.856 C 237.409 231.466,237.808 232.408,238.675 232.408 C 239.391 232.408,239.570 232.229,239.570 231.513 C 239.570 230.646,238.628 230.247,238.019 230.856 M140.046 231.603 C 140.022 232.289,140.202 232.408,141.260 232.408 C 142.243 232.408,142.457 232.291,142.286 231.844 C 142.140 231.464,141.804 231.347,141.252 231.486 C 140.764 231.608,140.363 231.511,140.255 231.244 C 140.156 230.998,140.062 231.159,140.046 231.603 M157.231 233.219 C 156.607 234.218,156.913 234.280,157.819 233.339 C 158.309 232.830,158.425 232.528,158.131 232.528 C 157.873 232.528,157.468 232.839,157.231 233.219 M164.369 233.607 C 164.369 234.822,164.899 235.631,165.694 235.631 C 166.480 235.631,166.210 234.149,165.264 233.272 L 164.369 232.442 164.369 233.607 M256.046 234.650 C 256.047 234.894,256.418 235.265,256.869 235.474 C 257.586 235.806,257.690 235.758,257.690 235.099 C 257.690 234.569,257.444 234.323,256.867 234.275 C 256.413 234.237,256.044 234.406,256.046 234.650 M236.795 235.620 C 235.456 236.875,236.340 238.077,237.717 236.873 C 237.781 236.817,237.781 236.342,237.717 235.818 L 237.601 234.865 236.795 235.620 M244.763 235.989 C 244.884 236.186,245.377 236.347,245.858 236.347 C 246.339 236.347,246.732 236.186,246.732 235.989 C 246.732 235.792,246.239 235.631,245.637 235.631 C 244.998 235.631,244.634 235.780,244.763 235.989 M176.902 238.008 C 176.902 238.290,177.281 238.496,177.798 238.496 C 178.290 238.496,178.693 238.354,178.693 238.180 C 178.693 238.006,178.290 237.786,177.798 237.692 C 177.197 237.577,176.902 237.682,176.902 238.008 M155.400 238.527 C 154.910 239.443,155.039 239.602,156.059 239.335 C 156.521 239.214,156.849 238.849,156.849 238.454 C 156.849 237.548,155.898 237.596,155.400 238.527 M200.586 238.406 C 200.542 239.127,200.179 239.382,199.373 239.255 C 199.226 239.231,199.105 239.696,199.105 240.286 C 199.105 240.961,199.289 241.361,199.598 241.361 C 200.242 241.361,200.998 239.514,200.794 238.440 C 200.636 237.607,200.634 237.607,200.586 238.406 M210.211 240.018 C 210.216 240.669,210.283 240.721,210.564 240.286 C 211.013 239.592,211.013 239.212,210.564 239.212 C 210.367 239.212,210.208 239.575,210.211 240.018 M257.833 239.940 C 257.833 240.131,257.995 240.286,258.192 240.286 C 258.389 240.286,258.550 240.511,258.550 240.785 C 258.550 241.060,258.803 241.381,259.112 241.500 C 259.531 241.661,259.644 241.521,259.559 240.950 C 259.446 240.195,257.833 239.251,257.833 239.940 M235.631 241.003 C 235.631 241.838,235.472 242.077,234.915 242.077 C 234.437 242.077,234.199 242.316,234.199 242.793 C 234.199 243.318,234.437 243.509,235.094 243.509 C 235.930 243.509,235.989 243.390,235.989 241.719 C 235.989 240.734,235.909 239.928,235.810 239.928 C 235.712 239.928,235.631 240.412,235.631 241.003 M186.213 241.768 C 186.213 242.510,186.729 243.151,187.326 243.151 C 187.720 243.151,188.004 243.401,188.004 243.748 C 188.004 244.076,188.103 244.245,188.226 244.123 C 188.857 243.491,187.961 241.372,187.093 241.444 C 186.609 241.484,186.213 241.630,186.213 241.768 M214.145 242.053 C 214.145 243.002,214.803 243.130,219.248 243.045 C 222.980 242.975,223.098 242.948,223.098 242.167 C 223.098 241.246,222.326 241.101,221.665 241.898 C 221.196 242.464,219.331 242.666,219.672 242.115 C 219.920 241.714,218.756 241.233,218.471 241.617 C 218.151 242.049,217.368 242.121,217.368 241.719 C 217.368 241.522,216.643 241.361,215.756 241.361 C 214.402 241.361,214.145 241.471,214.145 242.053 M151.695 243.053 C 151.262 243.486,151.492 243.868,152.187 243.868 C 152.627 243.868,152.974 244.178,153.101 244.686 C 153.439 246.032,155.058 245.953,155.058 244.591 C 155.058 243.516,154.213 243.398,153.542 244.379 C 153.376 244.621,153.277 244.563,153.273 244.222 C 153.267 243.622,152.037 242.711,151.695 243.053 M179.051 244.584 C 179.051 245.491,179.190 245.658,179.946 245.658 C 180.987 245.658,181.051 245.400,180.284 244.305 C 179.514 243.206,179.051 243.310,179.051 244.584 M212.866 243.756 C 211.140 245.061,211.868 245.300,217.558 245.300 C 222.859 245.300,223.098 245.269,223.098 244.584 C 223.098 243.966,222.859 243.868,221.362 243.868 C 220.408 243.868,218.192 243.777,216.438 243.667 C 214.685 243.556,213.077 243.596,212.866 243.756 M140.376 244.431 C 140.376 245.092,141.197 246.374,141.621 246.374 C 142.606 246.374,142.294 244.691,141.271 244.496 C 140.779 244.402,140.376 244.373,140.376 244.431 M163.563 245.204 C 164.400 245.279,165.770 245.279,166.607 245.204 C 167.444 245.129,166.759 245.067,165.085 245.067 C 163.411 245.067,162.726 245.129,163.563 245.204 M242.525 245.203 C 243.263 245.280,244.472 245.280,245.210 245.203 C 245.949 245.125,245.345 245.062,243.868 245.062 C 242.390 245.062,241.786 245.125,242.525 245.203 M259.838 245.563 C 259.189 246.213,259.660 247.449,260.558 247.449 C 261.262 247.449,261.438 247.309,261.274 246.882 C 261.154 246.571,261.056 246.185,261.056 246.025 C 261.056 245.645,260.114 245.288,259.838 245.563 M200.523 246.374 C 200.484 246.670,200.471 247.032,200.495 247.180 C 200.518 247.328,200.387 247.449,200.203 247.449 C 199.399 247.449,199.442 248.893,200.272 249.722 L 201.125 250.576 200.983 248.565 C 200.831 246.416,200.638 245.498,200.523 246.374 M240.424 246.621 C 239.813 246.741,239.625 247.110,239.458 248.522 C 239.344 249.486,238.996 250.767,238.685 251.368 C 238.176 252.352,238.175 252.462,238.675 252.462 C 239.005 252.462,239.317 252.027,239.445 251.388 C 239.572 250.751,239.885 250.313,240.212 250.313 C 240.516 250.313,240.658 250.207,240.528 250.078 C 240.399 249.948,240.430 249.666,240.598 249.451 C 240.850 249.129,241.465 246.266,241.249 246.423 C 241.212 246.450,240.841 246.539,240.424 246.621 M248.625 247.986 C 248.628 248.970,248.697 249.331,248.780 248.786 C 248.862 248.242,248.860 247.436,248.775 246.996 C 248.690 246.556,248.623 247.001,248.625 247.986 M168.164 248.430 C 168.274 249.364,168.511 250.306,168.691 250.522 C 168.871 250.739,168.912 251.022,168.782 251.152 C 168.653 251.282,168.815 251.388,169.144 251.388 C 169.472 251.388,169.740 251.629,169.740 251.925 C 169.740 252.220,169.880 252.462,170.050 252.462 C 170.223 252.462,170.230 251.785,170.066 250.940 C 169.904 250.103,169.765 248.814,169.756 248.075 C 169.742 246.889,169.637 246.732,168.852 246.732 C 168.004 246.732,167.973 246.808,168.164 248.430 M198.120 247.026 C 197.537 247.109,197.314 247.381,197.314 248.011 C 197.314 248.995,197.607 249.090,198.538 248.410 C 199.408 247.773,199.139 246.881,198.120 247.026 M210.201 248.254 C 210.186 250.648,210.142 250.671,205.662 250.671 C 201.949 250.671,201.570 250.731,201.679 251.297 C 201.803 251.938,204.905 252.581,206.466 252.289 C 206.849 252.217,207.648 252.146,208.241 252.131 C 209.148 252.108,209.420 251.875,209.941 250.671 C 210.283 249.884,210.804 249.239,211.100 249.239 C 211.796 249.239,211.786 248.722,211.076 248.011 C 210.329 247.265,210.207 247.299,210.201 248.254 M188.316 249.305 C 188.485 249.761,188.765 250.137,188.940 250.140 C 189.114 250.143,189.471 250.281,189.732 250.446 C 190.094 250.676,190.179 250.504,190.090 249.725 C 189.997 248.912,189.772 248.679,188.991 248.589 C 188.100 248.486,188.038 248.553,188.316 249.305 M232.305 250.045 C 232.485 251.506,233.165 252.462,234.026 252.462 C 234.727 252.462,234.184 250.243,233.435 250.047 C 233.067 249.950,232.766 249.568,232.766 249.197 C 232.766 248.826,232.621 248.523,232.442 248.523 C 232.264 248.523,232.202 249.208,232.305 250.045 M180.483 249.976 C 180.483 250.579,180.623 250.986,180.794 250.880 C 181.082 250.702,180.925 248.881,180.621 248.881 C 180.545 248.881,180.483 249.374,180.483 249.976 M152.924 249.696 C 152.914 250.110,152.536 250.406,151.835 250.546 C 151.119 250.689,150.761 250.976,150.761 251.406 C 150.761 251.761,150.479 252.125,150.134 252.215 C 149.790 252.305,150.042 252.398,150.695 252.420 C 151.348 252.443,152.194 252.295,152.575 252.091 C 153.052 251.836,153.268 251.836,153.268 252.091 C 153.268 252.295,153.550 252.449,153.894 252.434 C 154.272 252.417,154.343 252.333,154.071 252.224 C 153.824 252.124,153.702 251.912,153.801 251.752 C 153.900 251.592,153.746 250.921,153.459 250.261 C 153.157 249.566,152.932 249.328,152.924 249.696 M142.256 249.955 C 142.336 250.251,142.822 250.542,143.336 250.604 C 143.981 250.680,144.306 250.958,144.383 251.499 C 144.483 252.202,144.717 252.286,146.643 252.316 C 148.535 252.346,148.576 252.333,146.989 252.211 C 145.550 252.100,145.118 251.913,144.841 251.282 C 144.648 250.842,144.098 250.437,143.599 250.367 C 143.107 250.298,142.571 250.056,142.408 249.830 C 142.210 249.555,142.160 249.596,142.256 249.955 M249.043 250.928 C 249.244 252.034,249.201 251.991,250.394 252.290 L 251.369 252.535 250.835 251.464 C 250.119 250.029,248.809 249.636,249.043 250.928 M138.317 250.551 C 138.071 250.650,137.869 251.033,137.869 251.401 C 137.869 251.977,137.530 252.089,135.452 252.196 L 133.035 252.322 135.429 252.392 C 138.166 252.472,139.447 252.096,140.009 251.047 C 140.410 250.297,139.562 250.048,138.317 250.551 M158.156 251.388 C 157.553 252.595,157.840 252.748,159.511 252.113 C 160.747 251.643,160.784 250.313,159.561 250.313 C 158.953 250.313,158.531 250.636,158.156 251.388 M196.609 250.956 C 195.922 251.700,195.822 252.462,196.412 252.462 C 196.668 252.462,196.984 252.040,197.114 251.524 C 197.406 250.361,197.284 250.224,196.609 250.956 M212.278 251.135 C 212.420 251.675,213.647 252.462,214.347 252.462 C 215.291 252.462,214.313 250.728,213.304 250.610 C 212.278 250.490,212.130 250.566,212.278 251.135 M129.633 251.196 C 129.633 251.889,130.772 252.472,132.027 252.420 C 132.632 252.395,132.784 252.313,132.408 252.215 C 132.064 252.125,131.782 251.741,131.782 251.361 C 131.782 250.834,131.529 250.671,130.707 250.671 C 130.003 250.671,129.633 250.852,129.633 251.196 M181.558 251.318 C 181.558 252.096,184.170 252.401,184.993 251.718 C 185.913 250.954,185.517 250.671,183.527 250.671 C 181.868 250.671,181.558 250.773,181.558 251.318 M228.111 251.358 C 228.111 251.735,227.910 252.125,227.663 252.225 C 227.417 252.324,227.646 252.418,228.171 252.434 C 229.570 252.475,230.260 252.117,230.260 251.349 C 230.260 250.835,230.001 250.671,229.185 250.671 C 228.365 250.671,228.111 250.834,228.111 251.358 " stroke="none" fill="#2cbcf4" fill-rule="evenodd"></path><path id="path4" d="M137.718 84.839 C 137.144 85.474,137.108 86.797,137.235 102.655 L 137.372 119.785 138.546 123.187 C 139.192 125.058,139.942 126.837,140.213 127.139 C 140.485 127.442,140.957 128.288,141.262 129.019 C 141.568 129.751,141.966 130.349,142.147 130.349 C 142.328 130.349,142.567 130.631,142.678 130.976 C 143.173 132.510,150.511 139.309,152.266 139.859 C 152.718 140.000,153.468 140.412,153.931 140.774 C 154.394 141.136,155.355 141.541,156.067 141.674 C 156.779 141.808,158.092 142.254,158.985 142.666 C 161.425 143.792,171.986 143.784,174.396 142.654 C 175.282 142.239,176.595 141.794,177.314 141.665 C 178.032 141.537,179.025 141.113,179.519 140.725 C 180.013 140.336,180.559 140.018,180.731 140.018 C 181.159 140.018,184.708 137.712,185.518 136.908 C 185.878 136.550,187.164 135.291,188.376 134.109 C 189.587 132.927,190.802 131.448,191.076 130.821 C 191.350 130.195,191.739 129.580,191.941 129.455 C 192.499 129.110,194.355 124.961,194.840 122.975 C 195.076 122.008,195.405 121.042,195.571 120.828 C 196.674 119.405,196.761 109.608,195.692 107.252 C 195.424 106.661,194.969 105.291,194.682 104.208 C 194.206 102.411,193.651 101.244,191.335 97.174 C 189.778 94.436,183.926 88.955,181.461 87.925 C 180.753 87.630,180.075 87.226,179.953 87.029 C 179.831 86.832,178.812 86.407,177.690 86.085 C 176.567 85.763,175.475 85.362,175.263 85.192 C 173.673 83.925,138.842 83.598,137.718 84.839 M174.038 85.851 C 174.924 86.288,175.936 86.649,176.286 86.653 C 177.247 86.665,182.038 89.030,182.795 89.866 C 183.160 90.270,183.643 90.600,183.868 90.600 C 184.093 90.600,185.188 91.526,186.301 92.659 C 189.474 95.887,190.106 96.632,190.874 98.049 C 191.269 98.777,191.725 99.615,191.888 99.910 C 193.107 102.124,194.101 104.638,194.294 105.998 C 194.421 106.885,194.749 108.490,195.024 109.565 C 195.720 112.288,195.648 115.463,194.810 118.957 C 194.417 120.594,194.095 122.355,194.094 122.870 C 194.092 123.385,193.779 124.204,193.397 124.689 C 193.016 125.174,192.592 126.042,192.455 126.617 C 192.319 127.193,191.925 127.986,191.579 128.380 C 191.234 128.774,190.701 129.579,190.393 130.170 C 190.086 130.761,189.107 132.050,188.218 133.035 C 185.996 135.497,186.064 135.433,184.613 136.437 C 183.901 136.929,182.739 137.775,182.031 138.317 C 181.323 138.859,180.465 139.302,180.124 139.302 C 179.784 139.302,179.076 139.639,178.552 140.052 C 178.027 140.465,176.595 141.030,175.370 141.309 C 174.145 141.588,172.771 142.007,172.318 142.241 C 167.861 144.539,151.116 140.248,148.863 136.231 C 148.706 135.950,148.411 135.721,148.208 135.721 C 147.886 135.721,146.831 134.693,144.297 131.910 C 143.913 131.488,143.599 130.984,143.599 130.790 C 143.599 130.596,143.331 130.216,143.004 129.945 C 142.676 129.675,142.101 128.809,141.726 128.021 C 141.351 127.234,140.823 126.186,140.552 125.694 C 140.282 125.201,139.631 123.429,139.106 121.755 L 138.151 118.711 137.963 103.446 C 137.859 95.050,137.888 87.427,138.026 86.506 L 138.277 84.832 155.352 84.944 C 172.150 85.054,172.452 85.069,174.038 85.851 M131.782 220.444 C 131.782 221.309,131.680 221.374,130.528 221.239 C 129.664 221.138,129.275 221.237,129.275 221.558 C 129.275 221.929,131.409 222.023,139.815 222.023 C 149.545 222.023,150.369 222.071,150.536 222.650 C 150.636 222.995,150.895 223.962,151.112 224.799 C 151.718 227.145,153.268 226.802,153.268 224.322 C 153.268 223.649,153.078 223.456,152.417 223.456 C 151.759 223.456,151.518 223.213,151.352 222.381 C 151.163 221.436,150.988 221.307,149.900 221.307 C 148.889 221.307,148.641 221.159,148.548 220.501 L 148.433 219.696 140.107 219.599 L 131.782 219.503 131.782 220.444 M162.882 219.964 C 162.852 220.210,162.790 220.573,162.744 220.770 C 162.698 220.967,162.642 221.326,162.620 221.569 C 162.594 221.839,162.173 221.962,161.528 221.887 L 160.478 221.765 160.651 225.296 L 160.825 228.827 159.732 228.827 C 158.757 228.827,158.639 228.943,158.639 229.902 C 158.639 230.847,158.763 230.976,159.672 230.976 C 160.841 230.976,161.133 230.355,161.141 227.851 C 161.145 226.634,161.322 226.222,162.041 225.750 C 162.693 225.323,162.936 224.847,162.936 223.996 C 162.936 223.353,163.161 222.641,163.436 222.413 C 164.092 221.868,170.098 221.806,171.084 222.334 C 172.300 222.985,173.321 222.843,173.321 222.023 C 173.321 221.466,173.083 221.307,172.247 221.307 C 171.340 221.307,171.173 221.168,171.173 220.412 L 171.173 219.517 167.055 219.517 C 164.028 219.517,162.922 219.635,162.882 219.964 M183.407 219.831 C 183.144 219.997,182.943 220.237,182.960 220.362 C 183.058 221.097,182.893 221.271,182.005 221.373 L 181.021 221.486 180.996 225.783 L 180.971 230.081 181.175 226.141 L 181.379 222.202 186.310 222.103 C 190.466 222.019,191.274 222.089,191.451 222.550 C 191.567 222.851,191.966 223.098,192.339 223.098 C 192.950 223.098,193.017 223.393,193.017 226.097 C 193.017 230.387,193.247 231.270,194.401 231.404 C 195.255 231.503,195.330 231.632,195.192 232.766 C 194.911 235.068,194.983 236.099,195.434 236.254 C 195.680 236.338,195.882 236.164,195.882 235.868 C 195.882 235.571,196.262 234.872,196.726 234.316 C 197.418 233.485,197.611 232.731,197.802 230.105 C 197.982 227.632,198.189 226.764,198.713 226.275 C 199.108 225.907,199.495 224.885,199.641 223.824 L 199.891 222.003 204.597 222.103 L 209.303 222.202 209.594 223.993 C 209.898 225.859,209.596 249.610,209.264 249.942 C 208.978 250.229,203.517 250.420,202.550 250.177 C 201.735 249.973,201.692 249.791,201.389 245.215 L 201.074 240.466 200.971 244.763 C 200.817 251.132,200.463 250.671,205.516 250.671 C 210.746 250.671,210.195 252.421,210.201 235.789 C 210.207 219.580,210.928 221.218,203.849 221.370 C 197.135 221.514,197.342 221.349,197.326 226.551 C 197.316 229.525,197.212 230.222,196.748 230.400 C 195.742 230.786,195.524 230.638,195.524 229.569 C 195.524 228.571,194.903 227.606,194.086 227.333 C 193.875 227.263,193.676 225.956,193.632 224.347 L 193.554 221.486 192.211 221.375 C 191.188 221.290,190.868 221.107,190.868 220.608 C 190.868 219.557,184.830 218.929,183.407 219.831 M217.116 219.980 C 216.965 220.218,216.839 220.573,216.836 220.770 C 216.831 221.115,213.493 221.697,213.016 221.436 C 212.288 221.037,211.984 224.213,212.010 231.970 C 212.044 242.015,211.811 241.230,214.781 241.326 C 216.097 241.369,217.275 241.569,217.400 241.771 C 217.697 242.251,218.122 242.237,218.431 241.737 C 218.567 241.517,218.947 241.439,219.275 241.565 C 219.602 241.691,219.781 241.938,219.672 242.115 C 219.331 242.666,221.196 242.464,221.665 241.898 C 222.598 240.774,223.098 241.274,223.098 243.330 L 223.098 245.300 217.547 245.300 C 212.235 245.300,211.996 245.331,211.996 246.016 C 211.996 246.885,213.255 246.976,214.303 246.184 C 214.832 245.784,216.119 245.658,219.692 245.658 C 224.907 245.658,225.249 245.527,225.241 243.527 C 225.231 241.273,225.070 241.200,219.633 241.003 L 214.707 240.824 214.391 239.481 C 214.216 238.742,213.929 238.118,213.751 238.093 C 213.574 238.068,213.227 238.028,212.981 238.004 C 212.648 237.970,212.508 236.477,212.435 232.154 L 212.337 226.349 213.223 225.768 C 213.856 225.354,214.178 224.733,214.347 223.605 L 214.584 222.023 223.356 222.023 C 231.207 222.023,232.104 221.964,231.909 221.457 C 231.790 221.145,231.692 220.760,231.692 220.600 C 231.692 219.712,217.665 219.116,217.116 219.980 M241.791 219.946 C 241.522 220.215,241.361 221.545,241.361 223.488 C 241.361 226.510,241.335 226.608,240.466 226.826 C 239.769 227.001,239.570 227.280,239.570 228.087 C 239.570 229.042,239.647 229.103,240.555 228.862 C 241.495 228.612,241.548 228.478,241.719 225.938 L 241.898 223.277 243.579 222.442 C 245.112 221.682,245.544 221.630,248.469 221.859 L 251.677 222.110 251.912 223.677 C 252.065 224.695,252.391 225.375,252.842 225.616 C 253.404 225.917,253.537 226.379,253.541 228.034 C 253.548 231.094,253.790 231.692,255.017 231.692 C 256.376 231.692,256.449 229.092,255.095 228.897 C 254.403 228.798,254.325 228.515,254.187 225.617 C 254.045 222.653,253.518 221.055,252.823 221.484 C 252.672 221.577,252.453 221.173,252.335 220.585 L 252.122 219.517 247.171 219.517 C 243.798 219.517,242.083 219.654,241.791 219.946 M173.107 225.962 L 173.142 229.006 174.145 229.121 C 175.124 229.234,175.146 229.198,175.063 227.599 C 174.989 226.164,174.878 225.962,174.170 225.962 C 173.482 225.962,173.341 225.738,173.218 224.440 C 173.138 223.603,173.088 224.288,173.107 225.962 M225.611 226.231 C 220.893 226.350,220.375 226.509,220.758 227.717 C 221.088 228.754,221.665 228.663,221.665 227.574 L 221.665 226.679 226.858 226.679 C 230.081 226.679,232.050 226.543,232.050 226.321 C 232.050 226.124,231.607 225.997,231.065 226.040 C 230.524 226.082,228.069 226.168,225.611 226.231 M138.406 226.729 C 138.206 227.251,138.090 229.705,138.175 231.603 L 138.227 232.766 141.080 232.766 C 143.627 232.766,143.976 232.685,144.342 232.000 C 144.773 231.194,144.651 227.253,144.179 226.781 C 143.647 226.249,138.608 226.203,138.406 226.729 M142.229 229.544 L 142.346 232.410 141.254 232.409 L 140.162 232.408 140.180 229.544 C 140.197 226.683,140.198 226.681,141.154 226.680 C 142.103 226.679,142.113 226.705,142.229 229.544 M220.949 229.543 C 220.949 229.937,220.909 230.380,220.859 230.528 C 220.810 230.676,223.187 230.877,226.141 230.976 L 231.513 231.155 231.609 239.941 C 231.730 251.056,232.747 249.880,222.883 250.021 C 214.559 250.139,213.787 250.012,213.787 248.521 C 213.787 247.236,212.438 247.430,212.190 248.750 C 211.901 250.293,212.143 250.671,213.425 250.671 C 214.219 250.671,214.479 250.855,214.568 251.477 C 214.681 252.276,214.738 252.283,220.949 252.326 C 227.828 252.374,228.111 252.335,228.111 251.349 C 228.111 250.766,228.387 250.671,230.081 250.671 C 232.030 250.671,232.050 250.661,232.050 249.597 C 232.050 249.006,232.211 248.523,232.408 248.523 C 232.605 248.523,232.766 248.826,232.766 249.197 C 232.766 249.568,233.076 249.953,233.455 250.052 C 233.890 250.166,234.186 250.609,234.261 251.257 C 234.371 252.223,234.487 252.289,236.239 252.390 C 238.415 252.516,239.080 251.717,239.458 248.522 C 239.628 247.091,239.805 246.750,240.424 246.661 C 240.907 246.592,241.225 246.246,241.302 245.706 C 241.420 244.870,241.466 244.861,244.796 245.023 C 248.784 245.216,248.616 245.098,248.814 247.842 C 248.939 249.572,249.111 250.063,249.662 250.267 C 250.041 250.408,250.549 250.919,250.790 251.403 C 251.260 252.347,259.407 252.948,260.673 252.133 C 261.748 251.440,261.654 247.449,260.562 247.449 C 259.628 247.449,259.624 247.437,259.624 244.572 C 259.624 242.346,259.503 241.650,259.087 241.490 C 258.791 241.377,258.550 241.077,258.550 240.824 C 258.550 239.962,257.478 239.887,257.437 240.745 C 257.305 243.524,257.677 244.942,258.539 244.942 C 259.092 244.942,259.200 245.242,259.213 246.822 C 259.238 249.885,258.746 250.313,255.195 250.313 C 251.819 250.313,251.288 249.996,250.884 247.740 C 250.705 246.741,250.455 246.394,249.854 246.308 C 249.168 246.211,249.060 245.975,249.060 244.584 L 249.060 242.972 245.001 242.871 C 241.207 242.776,240.930 242.816,240.756 243.481 C 240.654 243.872,240.184 244.445,239.712 244.754 C 238.966 245.243,238.854 245.594,238.854 247.444 C 238.854 250.125,238.261 250.541,235.225 249.996 C 235.023 249.960,233.841 246.731,233.841 246.217 C 233.841 246.107,234.307 246.016,234.877 246.016 C 236.083 246.016,236.367 245.492,236.299 243.391 C 236.272 242.570,236.180 242.261,236.095 242.704 C 235.986 243.266,235.686 243.509,235.099 243.509 C 234.637 243.509,234.169 243.711,234.060 243.957 C 233.927 244.257,233.872 244.228,233.893 243.868 C 233.911 243.572,233.906 240.953,233.883 238.048 L 233.841 232.766 232.945 232.766 C 232.189 232.766,232.050 232.599,232.050 231.692 C 232.050 230.737,231.931 230.618,230.976 230.618 C 230.069 230.618,229.902 230.478,229.902 229.722 L 229.902 228.827 225.425 228.827 C 221.188 228.827,220.949 228.865,220.949 229.543 M129.427 237.422 C 129.427 241.656,129.479 243.389,129.542 241.271 C 129.605 239.154,129.605 235.689,129.542 233.572 C 129.479 231.455,129.427 233.187,129.427 237.422 M244.364 230.414 C 244.244 230.729,244.233 231.324,244.341 231.737 C 244.482 232.274,244.344 232.538,243.856 232.666 C 243.124 232.857,242.972 233.205,242.613 235.515 C 242.210 238.110,245.227 239.858,247.019 238.066 C 248.040 237.045,247.253 233.483,246.007 233.483 C 245.346 233.483,245.276 233.298,245.372 231.819 C 245.480 230.139,244.822 229.221,244.364 230.414 M163.826 231.423 C 163.706 232.064,163.769 232.990,163.966 233.483 L 164.323 234.378 164.346 233.410 L 164.369 232.442 165.264 233.272 C 165.852 233.817,166.159 234.487,166.159 235.225 C 166.159 236.183,166.029 236.347,165.264 236.347 C 164.636 236.347,164.369 236.152,164.369 235.693 C 164.369 235.167,164.154 235.071,163.276 235.199 C 161.479 235.463,161.842 237.805,163.749 238.253 C 166.552 238.912,166.810 238.603,166.611 234.830 C 166.394 230.713,164.412 228.289,163.826 231.423 M200.409 231.603 C 200.287 232.341,200.185 233.605,200.183 234.412 C 200.180 235.420,199.955 236.081,199.463 236.526 C 198.849 237.082,198.747 237.629,198.747 240.342 C 198.747 243.239,198.687 243.509,198.052 243.509 C 197.062 243.509,196.888 243.964,196.767 246.854 C 196.709 248.264,196.647 249.545,196.629 249.701 C 196.612 249.857,195.269 249.937,193.644 249.880 L 190.689 249.776 190.501 248.165 C 190.262 246.119,189.963 245.658,188.878 245.658 C 187.464 245.658,187.568 248.425,188.988 248.589 C 189.869 248.690,189.985 248.862,190.083 250.222 C 190.234 252.301,193.255 253.375,195.076 251.997 C 195.378 251.768,195.524 251.808,195.524 252.120 C 195.524 252.374,195.645 252.460,195.792 252.313 C 195.940 252.165,196.061 251.925,196.061 251.780 C 196.061 251.634,196.343 251.234,196.688 250.889 C 197.093 250.484,197.314 249.710,197.314 248.701 C 197.314 247.355,197.425 247.124,198.120 247.026 C 198.887 246.917,198.934 246.722,199.105 242.972 C 199.203 240.806,199.405 239.073,199.552 239.123 C 200.247 239.354,200.539 239.147,200.562 238.406 C 200.584 237.718,200.624 237.694,200.841 238.243 C 200.993 238.627,201.272 237.387,201.538 235.153 C 201.781 233.101,201.880 231.160,201.758 230.841 C 201.363 229.811,200.637 230.221,200.409 231.603 M185.359 231.383 C 184.607 232.458,184.630 233.412,185.466 235.911 C 185.843 237.037,186.211 238.765,186.282 239.749 C 186.398 241.339,186.498 241.528,187.176 241.433 C 188.070 241.308,188.546 242.747,188.172 244.448 C 187.999 245.235,188.036 245.352,188.327 244.942 C 189.208 243.702,188.659 237.583,187.644 237.317 C 187.117 237.180,186.987 236.659,186.878 234.259 C 186.729 230.981,186.261 230.096,185.359 231.383 M239.635 231.423 C 239.583 232.218,239.397 232.408,238.675 232.408 C 237.813 232.408,237.780 232.494,237.780 234.697 C 237.780 236.812,237.715 237.002,236.924 237.201 C 235.272 237.615,235.245 240.687,236.896 240.372 C 237.844 240.191,237.990 239.824,238.251 236.978 C 238.360 235.791,238.643 235.090,239.191 234.646 C 239.850 234.112,239.953 233.728,239.837 232.225 C 239.761 231.243,239.670 230.882,239.635 231.423 M174.803 232.648 C 174.737 234.659,175.027 235.273,176.045 235.273 C 176.786 235.273,176.902 235.103,176.902 234.020 C 176.902 232.931,176.788 232.766,176.032 232.766 C 175.414 232.766,175.117 232.533,175.007 231.961 C 174.921 231.517,174.829 231.827,174.803 232.648 M157.817 233.328 C 156.956 234.189,156.849 234.564,156.849 236.715 C 156.849 238.997,156.798 239.147,155.953 239.359 C 155.087 239.577,155.058 239.680,155.058 242.617 C 155.058 245.615,155.048 245.649,154.183 245.578 C 153.602 245.530,153.238 245.229,153.101 244.686 C 152.974 244.178,152.627 243.868,152.187 243.868 C 151.634 243.868,151.477 243.625,151.477 242.772 C 151.477 242.133,151.328 241.769,151.119 241.898 C 149.908 242.646,150.992 246.588,152.467 246.797 C 153.239 246.906,153.211 246.983,151.882 248.433 L 150.486 249.955 147.740 249.955 C 145.019 249.955,144.991 249.945,144.625 248.896 C 144.422 248.313,143.946 247.738,143.569 247.618 C 142.996 247.436,142.877 247.036,142.847 245.186 C 142.796 242.026,142.502 241.203,141.377 241.071 C 140.286 240.943,139.867 240.163,140.377 239.210 C 140.960 238.121,140.794 237.780,139.684 237.780 C 138.225 237.780,138.058 238.500,138.185 244.244 C 138.320 250.362,138.491 250.165,133.159 250.053 C 130.815 250.004,129.275 250.111,129.275 250.322 C 129.275 250.514,129.839 250.671,130.528 250.671 C 131.527 250.671,131.782 250.812,131.782 251.361 C 131.782 252.208,132.264 252.315,135.402 252.164 C 137.501 252.063,137.869 251.948,137.869 251.397 C 137.869 250.714,138.542 250.313,139.689 250.313 C 140.311 250.313,140.376 250.032,140.376 247.319 L 140.376 244.325 141.271 244.496 C 142.118 244.658,142.167 244.795,142.172 247.043 C 142.178 249.768,142.361 250.193,143.599 250.367 C 144.091 250.436,144.646 250.838,144.831 251.260 C 145.414 252.588,150.761 252.705,150.761 251.391 C 150.761 250.977,151.130 250.687,151.835 250.546 C 152.536 250.406,152.914 250.110,152.924 249.696 C 152.932 249.328,153.157 249.566,153.459 250.261 C 153.746 250.921,153.894 251.601,153.788 251.772 C 153.528 252.194,155.045 252.541,156.528 252.399 C 157.436 252.312,157.856 252.037,158.209 251.298 C 158.532 250.620,158.951 250.313,159.554 250.313 C 160.903 250.313,160.902 246.548,159.552 246.290 C 158.588 246.106,158.281 246.547,158.281 248.122 C 158.281 249.436,157.673 249.955,156.132 249.955 C 154.068 249.955,153.141 248.346,154.790 247.623 C 155.506 247.309,155.595 247.012,155.595 244.942 C 155.595 242.891,155.689 242.573,156.379 242.270 C 157.294 241.869,157.553 241.101,157.560 238.777 C 157.564 237.493,157.727 237.002,158.239 236.728 C 159.026 236.307,159.498 234.290,159.077 233.150 L 158.785 232.360 157.817 233.328 M255.588 234.068 C 255.227 236.478,255.706 237.780,256.953 237.780 C 258.166 237.780,258.099 236.005,256.865 235.464 C 256.272 235.204,256.050 234.759,255.970 233.673 L 255.864 232.229 255.588 234.068 M151.325 234.897 C 151.266 235.005,151.111 235.543,150.980 236.091 C 150.836 236.692,150.389 237.223,149.856 237.425 C 148.219 238.048,148.863 241.361,150.620 241.361 C 151.343 241.361,151.515 241.196,151.463 240.555 C 151.293 238.456,151.474 237.830,152.283 237.715 C 153.605 237.527,153.683 234.700,152.366 234.700 C 151.852 234.700,151.383 234.789,151.325 234.897 M246.732 235.989 C 246.732 236.186,246.339 236.347,245.858 236.347 C 245.377 236.347,244.884 236.186,244.763 235.989 C 244.634 235.780,244.998 235.631,245.637 235.631 C 246.239 235.631,246.732 235.792,246.732 235.989 M176.598 238.918 C 176.546 241.242,177.022 242.435,178.002 242.435 C 178.185 242.435,178.335 243.476,178.335 244.748 C 178.335 246.807,178.442 247.161,179.311 247.967 C 180.933 249.471,179.944 250.033,175.313 250.239 C 170.781 250.441,170.615 250.343,170.374 247.356 C 170.229 245.559,169.993 244.893,169.171 243.957 L 168.148 242.793 164.310 242.793 C 160.305 242.793,159.915 242.939,160.258 244.307 C 160.462 245.120,160.543 245.134,164.208 245.002 L 167.950 244.867 167.950 245.800 C 167.950 246.541,168.123 246.732,168.794 246.732 C 169.579 246.732,169.654 246.910,169.875 249.284 C 170.189 252.666,169.828 252.462,175.491 252.462 L 180.483 252.462 180.519 250.582 C 180.545 249.214,180.623 248.946,180.804 249.597 C 181.039 250.442,181.192 250.492,183.543 250.492 L 186.034 250.492 186.084 249.239 C 186.119 248.382,186.084 248.285,185.975 248.933 C 185.676 250.697,182.016 250.510,181.468 248.702 C 181.289 248.111,181.049 247.386,180.934 247.090 C 180.819 246.795,180.710 246.392,180.693 246.195 C 180.676 245.998,180.300 245.786,179.857 245.723 C 179.107 245.616,179.047 245.418,178.996 242.858 C 178.966 241.345,178.905 239.946,178.859 239.749 C 178.813 239.552,178.757 239.190,178.734 238.944 C 178.712 238.697,178.301 238.496,177.821 238.496 C 177.146 238.496,176.916 238.275,176.801 237.511 C 176.719 236.970,176.627 237.603,176.598 238.918 M180.897 238.675 C 180.876 240.015,180.977 240.622,181.166 240.286 C 181.333 239.991,181.348 239.024,181.200 238.138 L 180.931 236.526 180.897 238.675 M220.412 242.793 C 219.421 243.045,219.407 243.069,220.233 243.103 C 220.725 243.124,221.370 242.984,221.665 242.793 C 222.275 242.399,221.960 242.399,220.412 242.793 " stroke="none" fill="#84acd4" fill-rule="evenodd"></path></g></svg>