<?xml version="1.0" standalone="no"?>
<!DOCTYPE svg PUBLIC "-//W3C//DTD SVG 20010904//EN"
 "http://www.w3.org/TR/2001/REC-SVG-20010904/DTD/svg10.dtd">
<svg version="1.0" xmlns="http://www.w3.org/2000/svg"
 width="707.000000pt" height="353.000000pt" viewBox="0 0 707.000000 353.000000"
 preserveAspectRatio="xMidYMid meet">

<g transform="translate(0.000000,353.000000) scale(0.100000,-0.100000)"
fill="#000000" stroke="none">
<path d="M2700 1755 l0 -845 850 0 851 0 -3 843 -3 842 -847 3 -848 2 0 -845z
m1073 666 c102 -33 222 -101 288 -163 47 -43 139 -159 139 -174 0 -7 4 -14 8
-16 17 -7 67 -143 66 -182 0 -23 6 -47 13 -54 18 -19 17 -155 -3 -250 -20 -96
-30 -118 -49 -102 -8 7 -45 12 -82 12 -53 0 -86 -6 -148 -31 -44 -17 -88 -31
-97 -31 -9 0 -20 -5 -23 -10 -8 -13 -40 -13 -79 0 -202 63 -240 71 -320 59
-59 -8 -184 -43 -218 -60 -27 -14 -48 -11 -123 17 -152 57 -202 65 -273 45
-30 -9 -34 -8 -44 17 -16 42 -23 126 -9 118 12 -8 44 18 34 28 -10 10 -43 7
-43 -4 0 -5 -4 -10 -8 -10 -5 0 -10 185 -11 411 l-2 410 458 -4 c443 -3 460
-4 526 -26z m-676 -1092 c106 -50 145 -50 278 -3 134 48 187 47 320 -1 89 -33
108 -36 171 -33 57 4 86 12 144 41 70 36 140 48 184 31 43 -16 -156 -215 -280
-281 -127 -66 -216 -87 -369 -87 -155 0 -218 15 -352 80 -64 32 -114 66 -164
112 -69 64 -149 161 -149 181 0 14 48 18 95 8 21 -4 77 -26 122 -48z"/>
<path d="M2837 2428 c-7 -4 156 -8 361 -8 253 0 380 -4 394 -11 15 -8 22 -8
28 1 8 12 33 11 110 -5 l25 -6 -25 13 c-19 10 -134 14 -453 18 -236 3 -434 2
-440 -2z"/>
<path d="M2833 2403 c9 -2 23 -2 30 0 6 3 -1 5 -18 5 -16 0 -22 -2 -12 -5z"/>
<path d="M2908 2393 c12 -3 20 -8 17 -13 -10 -17 38 -21 195 -18 l155 4 -167
2 c-212 3 -226 20 -20 25 146 3 145 3 -28 3 -96 0 -165 -1 -152 -3z"/>
<path d="M3270 2389 c0 -5 11 -9 25 -9 14 0 25 2 25 4 0 2 -11 6 -25 8 -14 3
-25 1 -25 -3z"/>
<path d="M2860 2379 c0 -5 5 -7 10 -4 6 3 10 8 10 11 0 2 -4 4 -10 4 -5 0 -10
-5 -10 -11z"/>
<path d="M2865 2350 c4 -6 6 -89 5 -185 -1 -154 1 -174 15 -169 11 5 15 -1 15
-22 0 -27 -1 -27 -15 -8 -15 18 -16 17 -10 -13 4 -18 2 -34 -4 -38 -14 -8 -14
-45 -1 -45 6 0 10 8 10 18 0 10 7 27 15 38 14 18 14 18 15 -8 0 -15 6 -33 13
-40 24 -23 37 -56 31 -75 -5 -15 -4 -15 5 -3 8 12 15 10 41 -15 19 -18 26 -31
19 -36 -8 -5 -8 -8 0 -13 6 -4 9 -12 6 -17 -3 -5 1 -6 10 -3 12 5 13 9 4 20
-7 8 -7 14 -1 14 5 0 15 -7 22 -15 7 -8 19 -15 27 -15 8 0 21 -7 29 -15 9 -8
30 -16 47 -17 75 -4 177 -3 177 2 0 3 15 11 33 19 40 18 97 60 97 73 0 5 -15
-3 -34 -17 -40 -30 -144 -65 -197 -65 -97 0 -215 60 -267 138 -56 83 -61 109
-62 307 0 168 -1 182 -20 198 -23 19 -34 22 -25 7z m22 -252 c-1 -46 -3 -11
-3 77 0 88 2 125 3 83 2 -42 2 -114 0 -160z"/>
<path d="M2914 2348 c-2 -4 89 -8 203 -10 201 -3 210 -4 263 -29 109 -52 177
-149 190 -269 l7 -65 2 53 c1 37 4 51 13 46 8 -5 9 5 5 34 -3 23 -1 45 4 48 5
3 9 11 9 17 0 7 -4 6 -11 -3 -8 -11 -12 -12 -16 -2 -2 6 -11 12 -19 12 -7 0
-12 6 -10 13 1 6 1 9 -1 5 -3 -5 -9 -8 -14 -8 -14 0 -11 28 4 33 6 2 8 8 4 13
-4 5 -12 2 -16 -5 -8 -12 -12 -12 -25 0 -43 36 -56 53 -45 60 8 4 7 8 -2 12
-12 5 -12 7 0 15 10 8 7 10 -15 9 -16 -1 -32 -6 -36 -11 -4 -6 -11 -6 -20 0
-32 25 -104 34 -281 37 -104 1 -191 -1 -193 -5z m526 -48 c8 -5 11 -10 5 -10
-5 0 -17 5 -25 10 -8 5 -10 10 -5 10 6 0 17 -5 25 -10z m144 -177 c5 -14 3
-23 -3 -23 -6 0 -11 9 -11 19 0 11 -5 23 -10 26 -6 4 -7 11 -4 17 7 12 17 -2
28 -39z"/>
<path d="M3874 2335 c-18 -14 -17 -15 16 -13 19 1 44 -2 55 -7 14 -6 12 -2 -7
13 -31 26 -38 27 -64 7z"/>
<path d="M3993 2265 c0 -8 6 -15 13 -15 20 0 26 17 8 24 -21 8 -21 8 -21 -9z"/>
<path d="M3611 2134 c0 -11 3 -14 6 -6 3 7 2 16 -1 19 -3 4 -6 -2 -5 -13z"/>
<path d="M4155 2110 c10 -11 20 -20 22 -20 2 0 -2 9 -9 20 -7 11 -17 20 -22
20 -5 0 -1 -9 9 -20z"/>
<path d="M4140 2068 c0 -7 8 -22 17 -33 14 -18 15 -18 9 -2 -3 10 -6 25 -6 33
0 8 -4 14 -10 14 -5 0 -10 -6 -10 -12z"/>
<path d="M4174 2064 c3 -9 6 -18 6 -20 0 -3 4 -3 10 1 11 7 2 35 -12 35 -6 0
-7 -7 -4 -16z"/>
<path d="M3596 2018 c-3 -18 -8 -51 -11 -73 -4 -25 -3 -36 3 -30 5 6 12 38 16
73 6 65 1 86 -8 30z"/>
<path d="M3564 1954 c-22 -69 -39 -102 -62 -126 -14 -15 -23 -31 -19 -34 4 -4
16 5 28 20 17 22 24 25 31 14 8 -10 9 -10 5 3 -3 8 4 42 14 73 11 32 18 61 15
64 -3 2 -8 -4 -12 -14z"/>
<path d="M4227 1953 c-4 -3 -3 -11 2 -17 4 -6 13 -24 19 -41 8 -24 11 -26 11
-9 1 26 -23 76 -32 67z"/>
<path d="M3606 1913 c-3 -10 -8 -23 -11 -29 -3 -6 0 -14 7 -16 9 -4 14 6 15
28 3 37 -1 44 -11 17z"/>
<path d="M2891 1884 c0 -11 3 -14 6 -6 3 7 2 16 -1 19 -3 4 -6 -2 -5 -13z"/>
<path d="M4220 1866 c0 -22 3 -27 11 -19 8 8 8 16 0 30 -9 16 -10 14 -11 -11z"/>
<path d="M4240 1815 c0 -8 7 -15 15 -15 8 0 15 7 15 15 0 8 -7 15 -15 15 -8 0
-15 -7 -15 -15z"/>
<path d="M3440 1730 c-24 -19 -24 -19 -2 -13 12 3 25 10 28 15 11 18 -1 17
-26 -2z"/>
<path d="M4230 1685 c0 -28 4 -35 19 -35 11 0 21 -3 24 -7 2 -5 2 -2 0 5 -1 8
-3 27 -3 43 0 22 -5 29 -20 29 -16 0 -20 -7 -20 -35z"/>
<path d="M3090 1690 c0 -5 5 -10 11 -10 5 0 7 5 4 10 -3 6 -8 10 -11 10 -2 0
-4 -4 -4 -10z"/>
<path d="M3365 1680 c-18 -19 -17 -20 3 -20 12 0 22 2 22 4 0 2 3 11 6 20 9
22 -9 20 -31 -4z"/>
<path d="M3106 1664 c-11 -7 -16 -17 -12 -21 4 -4 11 -2 15 5 9 15 175 15 203
1 10 -5 19 -5 23 0 8 14 -21 19 -113 20 -46 1 -87 3 -91 5 -3 2 -15 -2 -25
-10z"/>
<path d="M2861 1588 c-1 -25 -6 -38 -15 -38 -9 0 -12 -8 -8 -25 2 -14 8 -25
13 -25 10 0 23 81 16 106 -3 11 -5 2 -6 -18z"/>
<path d="M4250 1587 c0 -45 -20 -50 -21 -4 0 17 -3 26 -6 19 -7 -17 6 -102 15
-102 13 0 33 103 22 114 -7 7 -10 -2 -10 -27z"/>
<path d="M4068 1503 c6 -2 18 -2 25 0 6 3 1 5 -13 5 -14 0 -19 -2 -12 -5z"/>
<path d="M3060 1486 c25 -6 47 -9 50 -5 3 3 12 8 19 11 8 2 -14 5 -50 5 l-64
1 45 -12z"/>
<path d="M3391 1493 c-19 -3 -44 -11 -55 -20 -20 -14 -20 -15 -1 -9 11 3 37 8
58 12 20 3 40 10 43 15 3 5 2 8 -3 7 -4 0 -23 -3 -42 -5z"/>
<path d="M3655 1490 c28 -12 45 -12 45 0 0 6 -15 10 -32 9 -28 0 -30 -2 -13
-9z"/>
<path d="M3938 1493 c-10 -2 -18 -9 -18 -14 0 -6 7 -6 18 -1 9 5 24 12 32 15
13 5 13 5 0 5 -8 0 -23 -2 -32 -5z"/>
<path d="M3994 1485 c-25 -19 -14 -19 22 0 16 8 22 15 13 15 -8 0 -24 -7 -35
-15z"/>
<path d="M3140 1475 c-24 -14 -24 -14 -3 -15 12 0 25 5 28 11 11 17 2 18 -25
4z"/>
<path d="M3735 1470 c-3 -5 3 -10 14 -10 12 0 21 5 21 10 0 6 -6 10 -14 10 -8
0 -18 -4 -21 -10z"/>
<path d="M3948 1463 c7 -3 16 -2 19 1 4 3 -2 6 -13 5 -11 0 -14 -3 -6 -6z"/>
<path d="M2710 627 l0 -183 40 4 39 4 3 82 c3 72 5 81 22 81 15 0 25 -18 48
-85 l28 -85 40 0 c22 0 40 4 40 8 0 5 -12 42 -26 84 -14 41 -24 75 -22 76 40
21 43 26 46 78 2 37 -2 64 -14 87 l-17 32 -114 0 -113 0 0 -183z m164 127 c20
-8 21 -67 2 -83 -8 -7 -27 -11 -43 -9 -24 3 -28 8 -31 36 -2 19 -1 40 2 48 6
14 42 19 70 8z"/>
<path d="M3097 638 c-32 -95 -58 -177 -57 -183 0 -5 7 -10 17 -10 11 0 22 17
33 50 l17 50 53 3 c61 4 71 -3 79 -55 6 -37 7 -38 59 -43 32 -4 52 -2 52 5 0
5 -24 87 -53 180 l-53 170 -44 3 -45 3 -58 -173z m95 27 c8 -30 13 -57 10 -60
-9 -8 -72 -6 -72 3 0 21 32 112 39 112 4 0 15 -25 23 -55z"/>
<path d="M3406 631 c0 -99 3 -183 6 -187 21 -21 29 16 27 137 0 72 2 133 5
136 6 7 5 11 41 -127 15 -58 29 -112 31 -121 5 -17 51 -32 59 -20 2 4 18 61
35 126 37 138 50 161 51 89 0 -27 1 -87 2 -133 l2 -84 40 0 40 0 3 182 2 182
-57 -3 -58 -3 -25 -93 c-14 -52 -29 -94 -34 -95 -5 -1 -19 41 -30 93 l-21 95
-60 3 -60 3 1 -180z"/>
<path d="M3818 799 c-15 -8 -18 -25 -18 -107 0 -63 4 -102 12 -110 7 -7 35
-12 63 -12 61 0 78 -10 73 -41 -3 -22 -8 -24 -76 -27 -72 -3 -73 -3 -70 -29
l3 -26 100 2 c55 1 105 7 112 13 9 7 13 41 13 109 0 113 -4 119 -88 119 -58 0
-80 17 -63 49 9 17 23 21 79 23 61 3 67 5 70 26 3 22 1 22 -95 22 -54 0 -106
-5 -115 -11z"/>
<path d="M4185 798 c-19 -51 -115 -344 -115 -350 0 -4 10 -4 22 1 14 5 26 23
35 55 l14 47 62 -3 62 -3 9 -47 8 -48 53 0 53 0 -33 108 c-18 59 -43 140 -55
180 l-21 72 -45 0 c-27 0 -46 -5 -49 -12z m42 -134 c17 -66 18 -64 -28 -64
-34 0 -40 3 -35 16 4 9 11 36 17 61 7 24 16 42 22 40 6 -2 17 -26 24 -53z"/>
</g>
</svg>
