<?xml version="1.0" standalone="no"?>
<!DOCTYPE svg PUBLIC "-//W3C//DTD SVG 20010904//EN"
 "http://www.w3.org/TR/2001/REC-SVG-20010904/DTD/svg10.dtd">
<svg version="1.0" xmlns="http://www.w3.org/2000/svg"
 width="288.000000pt" height="109.000000pt" viewBox="0 0 288.000000 109.000000"
 preserveAspectRatio="xMidYMid meet">

<g transform="translate(0.000000,109.000000) scale(0.100000,-0.100000)"
fill="#1EB90E" stroke="none">
<path d="M88 969 c-9 -6 -13 -878 -4 -887 5 -4 -28 -4 390 1 192 2 368 1 392
-3 79 -12 74 -42 74 445 0 250 -4 436 -9 439 -13 8 -831 12 -843 5z m592 -118
c101 -41 155 -113 185 -244 12 -55 16 -97 11 -139 -7 -75 -18 -90 -52 -77 -42
15 -79 10 -118 -16 -46 -31 -64 -31 -105 -1 -55 41 -84 42 -141 7 -61 -37 -72
-38 -114 -6 -37 28 -87 32 -126 10 -40 -23 -48 -18 -59 37 -15 69 -4 203 15
187 8 -6 14 -16 14 -22 0 -14 30 -47 43 -47 5 0 2 11 -6 24 -18 27 -47 132
-47 170 0 14 -4 26 -10 26 -11 0 -14 103 -3 114 5 4 109 6 233 4 207 -3 229
-6 280 -27z m-365 -526 c50 -30 108 -32 153 -5 41 25 63 25 104 0 42 -26 104
-26 146 0 38 23 85 26 101 6 22 -26 -28 -94 -99 -138 -81 -50 -311 -49 -409 2
-38 19 -111 92 -111 110 0 9 57 50 70 50 3 0 23 -11 45 -25z"/>
<path d="M275 860 c-4 -6 14 -10 47 -9 45 1 49 3 23 9 -44 11 -63 11 -70 0z"/>
<path d="M410 835 c33 -19 46 -19 30 0 -7 8 -22 15 -34 15 -20 -1 -20 -2 4
-15z"/>
<path d="M490 778 c0 -9 5 -20 10 -23 6 -3 10 -34 10 -69 0 -85 -32 -135 -109
-170 l-56 -26 47 0 c37 0 50 4 58 20 6 11 20 20 30 20 11 0 20 4 20 10 0 5 9
18 20 28 29 27 41 158 16 168 -9 3 -23 18 -31 33 -10 18 -14 21 -15 9z"/>
<path d="M1789 928 c-1 -7 -1 -36 1 -63 l2 -50 -146 -2 c-89 -2 -146 1 -146 7
0 6 5 10 10 10 6 0 10 7 10 15 0 17 -4 18 -38 9 -17 -5 -21 -11 -16 -26 5 -16
2 -19 -13 -16 -10 2 -17 10 -15 16 1 7 -2 22 -8 32 -8 14 -8 20 0 20 6 0 10 8
8 18 -2 9 -9 17 -16 16 -6 -1 -23 -2 -37 -2 -21 -2 -24 -6 -19 -29 4 -21 -2
-35 -21 -55 -14 -16 -30 -28 -35 -28 -19 0 -31 42 -25 82 6 35 5 39 -11 36
-15 -2 -20 -15 -24 -53 -5 -45 -7 -50 -32 -53 -26 -3 -27 -1 -30 50 l-3 53
-34 -3 c-19 -1 -36 -4 -38 -6 -9 -8 11 -36 26 -36 11 0 6 -9 -17 -28 -31 -26
-43 -61 -22 -63 6 -1 24 -3 40 -5 27 -4 71 -6 118 -5 9 0 145 -1 302 -2 157
-2 291 -1 298 1 18 6 15 27 -9 48 -17 15 -20 27 -16 58 4 30 1 43 -11 53 -22
16 -32 16 -33 1z"/>
<path d="M2175 930 c-4 -6 -5 -34 -3 -63 3 -50 2 -52 -24 -55 -24 -3 -28 0
-30 25 0 15 0 40 1 56 2 24 -1 27 -26 27 -15 0 -35 -5 -43 -11 -13 -8 -12 -12
8 -26 29 -20 28 -31 -3 -43 -18 -7 -25 -17 -25 -36 0 -23 3 -26 27 -21 15 3
37 -1 50 -10 29 -19 77 -9 91 20 16 34 22 123 9 136 -14 14 -24 14 -32 1z"/>
<path d="M2447 934 c-3 -3 -25 -10 -49 -15 -73 -17 -101 -59 -53 -81 37 -17
31 -28 -15 -28 l-40 0 0 50 c0 43 -3 50 -20 50 -18 0 -20 -7 -20 -60 0 -53 3
-61 25 -76 28 -18 106 -14 131 7 18 15 18 44 -1 59 -21 17 -19 40 4 40 32 0
91 29 91 45 0 15 -40 22 -53 9z"/>
<path d="M2663 924 c-3 -8 -3 -35 0 -59 8 -54 -6 -65 -40 -34 l-25 24 -19 -24
c-12 -15 -19 -36 -17 -55 3 -28 0 -32 -35 -40 -44 -11 -44 -30 0 -34 23 -2 38
4 60 26 16 16 44 33 61 37 18 4 39 16 46 28 17 26 18 129 2 139 -17 12 -26 9
-33 -8z"/>
<path d="M1901 892 c-14 -27 0 -107 19 -107 12 0 15 14 15 59 0 62 -15 83 -34
48z"/>
<path d="M2744 896 c-8 -20 4 -104 15 -111 18 -10 32 25 29 72 -2 36 -7 49
-21 51 -9 2 -20 -4 -23 -12z"/>
<path d="M1475 690 c-3 -6 -26 -15 -50 -21 -27 -7 -50 -20 -59 -35 -16 -23
-12 -54 5 -54 5 0 9 -4 9 -10 0 -5 -11 -10 -25 -10 -24 0 -26 3 -23 37 2 29
-1 38 -14 41 -15 3 -18 -4 -18 -47 0 -71 36 -100 91 -71 21 12 26 59 8 77 -15
15 -3 33 22 33 10 0 19 5 19 10 0 6 7 10 16 10 13 0 15 -10 14 -47 -4 -72 -2
-77 29 -94 28 -16 28 -16 39 16 16 43 15 65 -3 65 -8 0 -15 -7 -15 -15 0 -8
-6 -15 -14 -15 -19 0 -27 100 -8 107 6 3 12 11 12 19 0 16 -26 19 -35 4z"/>
<path d="M2070 656 c0 -8 -6 -16 -12 -18 -7 -3 -13 -11 -14 -19 0 -8 -2 -24
-2 -36 -3 -36 -30 -28 -34 10 -4 40 -21 41 -28 1 -6 -37 -43 -45 -62 -15 -16
26 -34 27 -50 1 -22 -35 -38 -24 -38 26 0 32 -4 44 -12 42 -7 -3 -14 -14 -16
-26 -2 -15 -10 -22 -27 -22 -14 0 -25 -7 -28 -20 -4 -17 -14 -20 -61 -20 -31
0 -56 5 -56 10 0 6 -7 10 -15 10 -20 0 -19 -35 2 -55 27 -27 121 -14 149 20
21 27 34 24 34 -6 0 -22 23 -27 79 -17 24 4 47 6 51 3 4 -3 35 -5 69 -6 44 -1
67 3 80 15 9 9 25 16 33 16 52 0 64 32 18 48 -26 10 -29 14 -24 41 6 27 4 31
-15 31 -11 0 -21 -6 -21 -14z"/>
<path d="M2285 657 c-4 -8 -5 -18 -3 -23 1 -5 -4 -26 -11 -47 -7 -21 -10 -44
-7 -52 6 -17 42 -20 51 -4 5 7 14 4 27 -8 19 -17 21 -17 50 0 17 10 34 14 37
9 8 -13 303 -10 307 3 2 6 -3 19 -11 29 -13 17 -18 18 -40 6 -26 -14 -50 -5
-26 9 25 16 3 27 -48 25 -58 -3 -71 -9 -71 -32 -1 -15 -2 -15 -15 2 -8 11 -15
28 -15 38 0 10 -4 18 -10 18 -5 0 -10 -13 -10 -30 0 -23 -5 -31 -24 -36 -30
-7 -46 1 -46 25 0 26 -28 47 -42 33 -9 -9 -9 -18 0 -37 11 -24 10 -25 -18 -25
-25 0 -30 4 -30 23 0 13 -3 27 -7 31 -4 4 -8 17 -8 28 0 25 -23 36 -30 15z"/>
<path d="M2680 640 c0 -32 23 -42 34 -14 11 29 6 44 -14 44 -16 0 -20 -7 -20
-30z"/>
<path d="M2751 642 c-14 -25 -2 -92 15 -92 10 0 14 14 14 49 0 54 -13 73 -29
43z"/>
<path d="M2187 643 c-10 -9 -8 -66 2 -82 7 -11 11 -10 20 7 6 11 11 29 11 40
0 22 -23 46 -33 35z"/>
<path d="M1683 633 c-17 -6 -16 -30 1 -36 13 -5 36 10 36 24 0 10 -23 17 -37
12z"/>
<path d="M1230 607 c0 -7 5 -18 12 -25 14 -14 11 -17 -19 -26 -17 -5 -23 -3
-23 8 0 23 -22 31 -35 13 -7 -10 -22 -17 -34 -17 -11 0 -21 -3 -22 -7 0 -5 -2
-19 -3 -32 -2 -14 -13 -31 -24 -39 -12 -8 -22 -18 -22 -23 0 -17 37 -9 55 11
13 14 25 18 43 13 22 -5 24 -3 20 15 -4 12 0 26 8 33 9 7 14 8 14 1 0 -17 37
-24 60 -12 25 13 35 52 20 79 -12 23 -50 29 -50 8z"/>
<path d="M1068 383 c-2 -5 -3 -64 -3 -133 l0 -125 50 0 50 0 0 55 c0 48 3 55
21 58 20 3 44 -31 44 -63 0 -26 38 -55 73 -55 56 0 61 11 31 65 -26 45 -26 49
-9 61 23 17 27 120 5 134 -18 11 -257 13 -262 3z m177 -52 c9 -30 -5 -51 -35
-51 -37 0 -55 22 -40 49 14 27 66 29 75 2z"/>
<path d="M1480 354 c-7 -19 -34 -78 -60 -129 -26 -52 -45 -97 -42 -100 3 -3
15 -5 28 -5 16 0 28 11 41 38 17 34 22 37 66 40 54 4 77 -9 77 -43 0 -13 7
-26 16 -29 28 -11 94 -6 100 7 2 7 -9 39 -24 72 -16 33 -39 88 -52 123 l-23
62 -58 0 c-57 0 -58 0 -69 -36z m64 -66 c10 -41 7 -48 -24 -48 -32 0 -38 16
-20 51 14 26 36 24 44 -3z"/>
<path d="M1749 383 c-1 -5 0 -51 1 -104 1 -54 -3 -106 -9 -117 -13 -24 9 -48
35 -38 14 5 16 18 12 79 -3 39 -3 78 -1 85 10 26 32 -10 44 -70 7 -32 20 -69
29 -81 15 -18 22 -20 46 -12 20 7 30 19 32 35 2 14 7 30 12 35 4 6 11 26 15
45 8 38 22 60 38 60 6 0 8 -30 5 -85 -4 -60 -2 -85 6 -86 13 -2 78 -1 87 0 3
1 5 58 4 129 l-2 127 -62 3 c-52 3 -62 0 -67 -15 -19 -62 -42 -108 -54 -108
-8 0 -18 19 -25 50 -6 28 -15 56 -19 63 -8 13 -125 17 -127 5z"/>
<path d="M2172 378 c-7 -7 -12 -40 -12 -79 0 -77 2 -79 89 -85 62 -5 66 -7 58
-29 -5 -11 -22 -15 -76 -15 -74 0 -91 -9 -66 -34 13 -12 34 -14 118 -9 56 3
107 10 112 15 6 5 10 39 9 75 0 81 -13 93 -97 93 -50 0 -58 2 -55 18 3 14 16
18 76 20 64 3 72 5 72 22 0 19 -7 20 -108 20 -71 0 -112 -4 -120 -12z"/>
<path d="M2543 373 c-15 -45 -60 -143 -86 -187 -30 -52 -26 -70 14 -64 17 2
25 10 27 30 5 39 24 49 82 46 50 -3 53 -5 64 -38 11 -34 13 -35 69 -38 60 -3
70 6 47 46 -8 14 -37 80 -70 157 -5 11 -12 30 -15 43 -6 20 -13 22 -66 22 -48
0 -61 -3 -66 -17z m57 -89 c13 -32 6 -44 -25 -44 -33 0 -39 15 -19 45 21 32
32 32 44 -1z"/>
</g>
</svg>
