<?xml version="1.0" encoding="UTF-8"?>
<!DOCTYPE svg PUBLIC "-//W3C//DTD SVG 1.1//EN" "http://www.w3.org/Graphics/SVG/1.1/DTD/svg11.dtd">
<svg xmlns="http://www.w3.org/2000/svg" version="1.1" width="949px" height="712px" style="shape-rendering:geometricPrecision; text-rendering:geometricPrecision; image-rendering:optimizeQuality; fill-rule:evenodd; clip-rule:evenodd" xmlns:xlink="http://www.w3.org/1999/xlink">
<g><path style="opacity:0.999" fill="#5e42e8" d="M 210.5,60.5 C 264.898,90.8705 319.231,121.537 373.5,152.5C 374.667,215.497 374.833,278.497 374,341.5C 319.667,310.167 265.333,278.833 211,247.5C 210.5,185.168 210.333,122.834 210.5,60.5 Z"/></g>
<g><path style="opacity:0.996" fill="#5f42e8" d="M 392.5,164.5 C 447.027,195.35 501.527,226.35 556,257.5C 556.833,320.169 556.667,382.836 555.5,445.5C 501.415,414.374 447.248,383.374 393,352.5C 392.5,289.834 392.333,227.168 392.5,164.5 Z"/></g>
<g><path style="opacity:0.986" fill="#4040b1" d="M 736.5,164.5 C 737.833,195.493 738.5,226.826 738.5,258.5C 738.167,289.833 737.833,321.167 737.5,352.5C 683.004,383.247 628.671,414.247 574.5,445.5C 573.167,382.833 573.167,320.167 574.5,257.5C 628.563,226.473 682.563,195.473 736.5,164.5 Z"/></g>
<g><path style="opacity:0.997" fill="#5f42e8" d="M 392.5,371.5 C 446.643,402.741 500.977,433.741 555.5,464.5C 556.833,527.167 556.833,589.833 555.5,652.5C 501.089,621.879 446.922,590.879 393,559.5C 392.5,496.834 392.333,434.168 392.5,371.5 Z"/></g>
</svg>
